<svg xmlns="http://www.w3.org/2000/svg" width="48" height="48" viewBox="0 0 48 48"><title>Bank/Color/Ayandeh</title><defs><linearGradient id="b" x1="50.021%" x2="50.021%" y1="99.939%" y2="-.056%"><stop offset="0%" stop-color="#6e2616"/><stop offset="100%" stop-color="#9b4722"/></linearGradient><linearGradient id="c" x1="50.061%" x2="50.061%" y1=".043%" y2="100.033%"><stop offset="0%" stop-color="#6e2616"/><stop offset="100%" stop-color="#9b4722"/></linearGradient><radialGradient id="a" cx="49.982%" cy="49.978%" r="50.007%" fx="49.982%" fy="49.978%"><stop offset="0%" stop-color="#f4b31b"/><stop offset="100%" stop-color="#cc932b"/></radialGradient></defs><g fill="none"><path fill="url(#a)" d="M6.679 0h34.642C44.981 0 48 3.02 48 6.679V41.32c0 3.661-3.019 6.68-6.679 6.68H6.679C3.019 48 0 44.98 0 41.321V6.68a6.67 6.67 0 0 1 1.952-4.724A6.68 6.68 0 0 1 6.68 0"/><path fill="url(#b)" d="M46 22v18.918a5.1 5.1 0 0 1-1.47 3.594A5 5 0 0 1 40.973 46H7.027a5 5 0 0 1-3.558-1.488A5.1 5.1 0 0 1 2 40.92v-7.892c1.854-20.216 20.965.253 29.844.253C38.904 33.242 43.11 27.766 46 22"/><path fill="url(#c)" d="M7.06 2h33.916A5.03 5.03 0 0 1 46 7.043v7.583c-1.568 20.96-20.913.036-29.855.036C9.126 14.662 4.922 20.277 2 26V7.043c.036-2.754 2.316-5.042 5.06-5.042"/></g></svg>