<svg xmlns="http://www.w3.org/2000/svg" width="48" height="48" viewBox="0 0 48 48"><title>Bank/Color/Melli</title><g fill="none" fill-rule="evenodd"><path fill="#f1af0e" d="M25.414 44.733s1.415-.514 1.726-.623c.567-.197.626-.913.927-.974.135-.244.073-.725.163-.931.12-.274.356-.263.417-.44.085-.248.005-.746.165-.922.136-.148.29-.14.568-.275.182-.088.256-.345.435-.444.18-.099.39.009.617-.08.292-.116.47-.895 1.003-.675.206.086.099.46.075.7a10 10 0 0 0 .79-.672c.424-.425.804-1.579.722-2.116-.029-.188-.365-.735-.387-.921-.032-.26.275-.293.383-.607.087-.25.543-.17.694-.439.14-.245-.173-.409-.062-.794.056-.197.461-.599.587-.842.171-.328.033-.783.433-.853.326-.057.301.308.426.46.088.107.5.391.516.512l.004.037c.274-.238.507-.478.608-.673.012-.343.524-1.245.154-2.062-.078-.173-.61-1.164-.637-1.35-.053-.355.248-.53.202-.859-.035-.253.46-.119.524-.42.059-.277-.203-.561-.476-.781.044-.376.188-.252.524-.41.267-.127-.167-.883.303-1.08.303-.128.705.44.963.845-.047-.377-.117-1.028-1.025-2.24-.085-.114-.008-.517-.087-1.07-.024-.173-.398-.137-.491-.33-.097-.201.163-.33.202-.627.024-.181-.238-.507-.199-.617.084-.231.362-.199.346-.386-.038-.457-.004-.858-.091-1.105-.145-.412-.336-.468-.106-.69.22-.213.362-.142.675.354.062.098.227.192.427.274l.002-.008c.074-.215.382-.627.604-.913-.312-.492-.718-1.16-1.338-1.277-.402-.076-.399.02-.694-.14-.434-.235-.402-.678-.582-.85-.14-.132-.255-.032-.406-.15-.153-.121-.278-.45-.546-.634-.175-.179-.16-.55.093-.778-.095-.269-.375-.44-.468-.628-.05-.103-.011-.266-.05-.374-.048-.135-.421-.378-.309-.564.145-.24.615.027.801.015.071-.004.191-.088.258-.063.169.063.637.352.633.274-.016-.389.062-.896.048-1.089-.026-.366-.132-.636-.006-.748.227-.204.338.23.502.312.245.122.7.208.887.388.019.018.051.039.058.03.09-.135.365-.08.498-.242.213-.257.08-.672.204-.764.125-.092.462.012.6.205.115.16.085.777.293.938.18.138.223-.046.525.222.192.17.325.842.323 1.163-.001.14-.23.109-.217.346.013.252.49.844.525 1.173.038.373-.227.316-.307.856-.033.224-.322.334-.347.473-.032.176-.057.477-.094.815.907.123.52 1.408.553 2.056.094-.073.43-.338.597-.511.2-.21.312-.716.547-.726.276-.012.64 1.17.648 1.515.006.269-.058.305-.265.688-.23.426.314.677.414.96.137.39.025.682-.07.749-.23.163-.456.281-.533.415-.166.288.091.466-.262.815-.324.32-.691.298-.931.519-.344.316-.671.984-.924 1.408.175-.175.362-.376.669-.44.497-.104.095.695.585 1.098.093.077.329.04.374.483v.006c.239-.137.827-.444 1.099-.31.074.037-.07 1.138-.101 1.234-.05.157-.305.246-.235.444.042.116.254.246.117.514-.081.16-.64.097-.823.42-.146.26.332.375.338.676.008.412-.089.901-.19.957-.255.14-.72-.107-.87.172-.068.125.022.266-.192.354-.421.173-.92.08-1.142.32-.174.187-.278.483-.468.724l.052.008c.174.035.142.76.087 1.173.195.043.523.037 1.035-.176.178-.074.507.302.366.544-.344.59-.303.675-.285.92-.128.128-.36.404-.518.56-.059.057-.034.168-.092.25-.095.135-.518-.304-.62-.139-.433.697.02.83.028 1.04.01.258.051.303-.439.607-.18.112.004.508-.253.664-.182.11-.695-.038-.808-.015a4.7 4.7 0 0 0-2.458 1.321 2.9 2.9 0 0 1-.753.522q.084-.024.16-.038c.255-.044.718-.422.921-.356s.319.518.265.758-.47.372-.577.572c-.097.182.022.46-.063.618s-.33.135-.477.4c-.17.307.013.657-.22.784l-.029.018c.24.136.705.333 1.346.292.178-.012.242.312.04.495-.11.1-.33-.024-.54.085-.227.12-.391.479-.6.55-.206.069-.538-.261-.718-.178-.198.092-.029.364-.156.53-.128.167-.326.238-.453.336-.081.063-.103.277-.408.322-.299.042-.453-.19-.633-.206-.152-.013-.115.126-.355.12-.109-.004-.236-.17-.352-.172-.846-.018-1.265.153-1.704.131-.316-.015-.631-.254-.947-.27-.477-.024-2.361-.194-2.361-.194zm-3.085.11c-.923.116-3.84.433-5.438-.008-1.365-.377-3.091-1.763-3.814-2.108-.194-.093-.66.062-.66.062.69-.719 1.335-1.04 2.316-.9-.2-.382-.308-.911-.46-1.445-.941-.22-2.525-1.063-4.148-2.587-.95-.893-.692-1.92-1.47-2.724-.15-.156-.562-.196-.562-.196.85-.255 1.587-.228 2.295.21-.009-.576.24-1.264.303-1.997-.874-.444-2.064-1.356-3.124-2.96-.657-.993-.354-2.014-.953-2.959-.116-.182-.511-.305-.511-.305.915-.08 1.628-.013 2.242.585.105-.488.366-1.035.555-1.62-.728-.63-1.517-1.484-1.918-2.968-.265-.984-.082-1.745.01-2.873.027-.332-.117-.973-.117-.973.433.726 1.112 1.32 1.325 2.142l.006-.043c.113-.782.753-1.283 1.28-1.904-.52-.54-1.093-1.151-.969-2.797.077-1.016.461-2.256.968-3.268.147-.293.32-.792.3-.812.754.545 1.228.962.652 2.344a4 4 0 0 0-.17.373q.097-.198.17-.373c.534-1.034 1.48-1.655 2.34-2.304-.573.894-.62 3.27-.62 3.27.872-.977 1.787-.83 2.047-.95-.247.523-.428.806-.724 1.433-.298.632-.383.771-.831 1.47-.394.613-1.327 1.147-2.391 1.645-.01.02.124 1.103.029 1.762.511-.838 1.263-.885 1.526-1.359-.23.575-.056.921-.008 1.568.051.697-.087 1.061-.343 1.749-.59 1.582-1.188 2.637-1.31 3.643.13.248.242.49.354.778.09-1.409.926-1.28 1-2.143.089.777-.094.681-.048 1.389.05.77.412.937.554 2.024.24 1.835-.946 3.343-.714 4.29-.052-.005-.066.014-.058.046.58.673.923 1.163 1.269 1.704-.22-1.453.703-1.491.599-2.362.128.078.518 1.264.706 1.948.205.744.674 1.163.848 1.88.215.887.368 2.225.027 3.254.717.259 1.246.503 1.823.888-.828-.76-.091-1.66-.506-2.5.283.296.463.646.875 1.273.188.286 1.374.795 1.775 1.414.484.748.825 2.145 1.182 3.075.399.306 2.261 1.013 2.151.943-.026-.016.34.275.34.275"/><path fill="#fff" d="M16.94 37.126a14 14 0 0 1-1.22-1.52q-.27-.39-.517-.796-.325-.536-.61-1.096a18 18 0 0 1-1.008-2.406 20.4 20.4 0 0 1-.797-3.203 22 22 0 0 1-.293-3.678c.004-1.31.122-2.62.36-3.908q.181-.987.459-1.952.236-.823.544-1.62.27-.701.598-1.377a17 17 0 0 1 1.158-2.012 15 15 0 0 1 1.156-1.489q.127-.141.256-.279a11.6 11.6 0 0 1 2.18-1.81 10 10 0 0 1 1.016-.56q.434-.207.888-.367a8.5 8.5 0 0 1 2.164-.453 8 8 0 0 1 .583-.022h.055a9 9 0 0 1 .565.022 8.3 8.3 0 0 1 2.164.453 9 9 0 0 1 1.475.67 10 10 0 0 1 .757.472 11.6 11.6 0 0 1 2.109 1.874 14 14 0 0 1 1.155 1.489q.28.413.532.842.352.6.655 1.23.31.646.57 1.316.319.832.563 1.689.267.943.444 1.908c.231 1.264.348 2.548.355 3.832a22 22 0 0 1-.288 3.706 20.4 20.4 0 0 1-.802 3.227 18 18 0 0 1-.998 2.387 16.5 16.5 0 0 1-1.125 1.894 15 15 0 0 1-1.142 1.44l-.09.097c.174.008.265.017.256.026a12 12 0 0 1-2.078 1.831 11 11 0 0 1-.723.454 10 10 0 0 1-1.47.682 8.8 8.8 0 0 1-2.063.474 8.4 8.4 0 0 1-2.518-.121 9 9 0 0 1-1.243-.347 9.3 9.3 0 0 1-1.47-.678 10 10 0 0 1-.74-.464 11.8 11.8 0 0 1-2.078-1.831c-.009-.01.082-.018.255-.026"/><path fill="#fef886" d="M22.04 44.575a6 6 0 0 1-.25-.04c-3.008-.455-5.516-1.044-6.825-2.324-.48-.47-.544-1.523-.908-2.414-1.185-.955-3.123-2.705-3.609-4.245-.242-.767.326-1.822.251-2.938-.754-.767-2.197-2.708-2.393-4.578-.076-.73.515-1.643.731-2.648-.508-1.147-1.035-2.807-.831-4.212.136-.944 1.042-1.478 1.586-2.31-.086-1.111-.026-2.685.576-3.986.518-1.12 1.51-1.767 2.41-2.445-.574.894-.55 1.892-.616 3.2-.086 1.717-1.401 2.61-1.935 3.73.156.79.159 1.149.004 2.046-.278 1.616-.615 3.033-.563 4.42.421.696.648 1.094.895 1.765.672 1.82-.185 3.32.435 5.177a14.6 14.6 0 0 1 1.699 2.28c.89 1.429.41 2.705 1.056 4.105 1.47.478 2.19.759 3.195 1.513 1.351 1.014 2.072 3.355 4.842 3.863l.246.037a8 8 0 0 0-.94-.567l-.166-.086-.214-.108q-.09-.045-.178-.093a3 3 0 0 1-.181-.105l-.028-.025c-.005-.01-.013-.021-.016-.033q-.004-.019-.004-.037v-.006l.002-.019.001-.026q.009-.17.009-.34v-.51a15 15 0 0 1 .01-.413 4 4 0 0 1 .033-.346 1 1 0 0 1 .039-.15l.008-.021a.3.3 0 0 1 .083-.11l.021-.013.037-.017a.6.6 0 0 1 .11-.032q.073-.013.145-.018.093-.005.186-.006h.042a7 7 0 0 1 .3.01l.22.009a12 12 0 0 0 .41.01l.167-.006a1.5 1.5 0 0 0 .292-.05q.093-.025.184-.057.1-.034.199-.072l.191-.074a12 12 0 0 1 .323-.118q.093-.03.187-.055a2 2 0 0 1 .286-.045 1 1 0 0 1 .168.004c.14.015.278.055.41.104a4 4 0 0 1 .184.071l.136.057.057.023.135.053a1.5 1.5 0 0 0 .553.12q.078.003.156 0 .099-.001.198-.007l.209-.015.255-.02a11 11 0 0 1 .454-.024 3 3 0 0 1 .275.01 2 2 0 0 1 .176.027l.06.015c.076.023.15.056.211.107a.4.4 0 0 1 .113.157q.019.045.032.094.015.057.024.115.011.068.017.138.008.097.01.195 0 .118-.005.237a5 5 0 0 1-.07.624l-.001.008-.01.029a.1.1 0 0 1-.02.024q-.01.011-.024.018l-.01.006-.029.015a3 3 0 0 0-.158.092 3 3 0 0 0-.28.205q-.134.11-.258.229l-.184.18-.145.145-.195.19a2.7 2.7 0 0 1-.469.364c.665-.207 1.891-.596 2.323-.781.327-.14.654-.373.86-.634s.207-.765.406-.903c.315-.22.51.042.684-.147.09-.099.006-.368.118-.612.075-.162.349-.353.442-.37.191-.033.298.027.373.098.03-.033.17.19.236.12.054-.056.029-.4.1-.475.543-.576 1.521-1.628 1.836-2.051.213-.286.5-.566.535-1.528.012-.332.396-.512.494-.734.114-.261-.445-.422-.33-.77.062-.193.14-.054.292-.276.148-.216-.034-.442.253-.704.256-.233.376.073.871-.148.204-.09.057-.183.392-.446.216-.17.28-.164.488-.339a.7.7 0 0 1 .156-.101c.277-.562.58-1.125.705-1.173.22-.084.102-1.092-.111-1.94-.143-.567-.13-1.001-.235-1.127.187-.285.587-.087.613-.328.015-.091-.43-.383-.353-.64.024-.078.17-.045.288-.248.136-.237.132-.315.666-.516.189-.237-.205-.517-.07-.71a.95.95 0 0 1 .342-.281c.037-.323.072-.71.054-.907-.02-.218.093-1.102-.098-1.48-.098-.193-.325-.328-.47-.58-.261-.456.344-.507.296-.861-.186-.407-.632-.981-.443-1.534.056-.165.233-.058.534-.253.164-.37-.637-.493-.582-.654.087-.254.5-.782.714-1.053-.096-.506-.22-1.189-.376-1.321-.229-.196-.865-.721-1.056-1.043-.135-.226.06-.778-.202-.807-.698-.078-.87-.558-.811-.907.04-.236.155-.15.263-.287.188-.24-.532-.578-.536-.664-.016-.389.062-.896.048-1.089-.026-.366-.132-.636-.006-.748.227-.204.338.23.502.312.245.122.7.208.887.388.152.145.005.477.155.624.218.212 1.002.344 1.131.634.153.341-.356.68-.177 1.07.047.102.251.1.323.244.108.217.097 1.486-.035 2.75-.02.193-.012.415.004.622.105-.3.157-.725.45-.738 1.338-.059.571 1.802.812 2.308.126.264.273.338.352.562s-.287.427-.294.733c-.005.22.325.521.315.84-.016.489-.588 1.134-.807 1.823-.037.518-.455 1.31-.746 1.903l.128-.079c.263-.174.457-.542.893-.633.497-.104.095.695.585 1.098.093.077.329.04.374.483.03.291-.26 1.29-.255 1.528s-.623.319-.726.607c-.074.208.214.54.104.838-.168.46-.685.411-1.11.998-.043.532-.747 1.356-1.384 2.098l.05-.016c.245-.08.404-.636.906-.534.202.041.127 1.014.059 1.345-.052.25-.455.124-.696.3-.099.071-.105.697-.169 1.124-.044.29-.01.373-.077.6-.067.229-.15.345-.456.36-.188.008-.852-.105-.99-.022-.19.115-.193.532-.02.838-.299.38-1.245 1.071-1.622 1.415-.403.06-1.336 1.063-2.06 1.773a.6.6 0 0 0 .165-.016c.338-.085.907-.412 1.316-.484.255-.044.718-.422.921-.356s.319.518.265.758-.47.372-.577.572c-.097.182.022.46-.063.618s-.33.135-.477.4c-.17.307.013.657-.22.784-.102.056-.226.203-.43.163-.265-.053-.587-.314-.773-.197-.247.157-.025.58-.185.756s-.523.312-.804.191c-.173-.074-.146-.461-.306-.446-.481.044-1.605.702-2.51.97-.752.017-2.176.124-2.686.164l-.039.014-.016.06a4 4 0 0 1-.177.506l-.04.085a13 13 0 0 0 1.667.27l.089.006q.259.012.519-.002l.309-.014.067-.003.226-.007h.024q.082 0 .166.008a1 1 0 0 1 .187.036q.03.01.056.024a.3.3 0 0 1 .107.097.3.3 0 0 1 .036.095.4.4 0 0 1-.025.214 1 1 0 0 1-.071.156 1.5 1.5 0 0 1-.127.192l-.002.003a1 1 0 0 0 .179-.012q.119-.013.237-.028l.25-.034q.175-.023.349-.043a11 11 0 0 1 .81-.059h.093q.219 0 .436.018a8 8 0 0 1 .91.125 7 7 0 0 1 .418.091l.01.003.037.018.027.032.012.04-.004.042-.021.036-.034.025-.04.01h-.017l-.053.002-.141.002q-.233.002-.464 0h-.087a13 13 0 0 0-.378.008 4 4 0 0 0-.285.025 1.3 1.3 0 0 0-.185.042.4.4 0 0 0-.091.046.1.1 0 0 0-.023.023v.014l.002.018q.008.03.02.057.02.045.046.088.029.05.062.096.056.08.119.156a5 5 0 0 0 .316.35q.066.07.136.136l.003.002.023.034.008.04-.007.04-.023.033-.033.023-.04.008-.04-.008-.017-.007-.022-.009a3.6 3.6 0 0 0-.578-.173 3 3 0 0 0-.37-.059 2.7 2.7 0 0 0-.53-.002 23 23 0 0 1-.673.036q-.3.011-.598.011a9 9 0 0 1-.72-.031 4 4 0 0 1-.386-.058 2 2 0 0 1-.245-.074 1 1 0 0 1-.09-.044.4.4 0 0 1-.104-.083.3.3 0 0 1-.071-.151q-.003-.021-.002-.042a.2.2 0 0 1 .01-.055.36.36 0 0 1 .107-.162 1 1 0 0 1 .074-.063 1 1 0 0 1 .138-.09q.052-.03.106-.058l.014-.007-.024-.004a7 7 0 0 0-.438-.06l-.307-.035a19 19 0 0 1-.493-.066 3 3 0 0 1-.269-.056.8.8 0 0 1-.288-.145 1.2 1.2 0 0 1-.308-.356 2 2 0 0 1-.089-.174 1 1 0 0 1-.09.068l-.022.014-.017.01a.3.3 0 0 1-.09.03.5.5 0 0 1-.183-.01 1 1 0 0 1-.119-.034l-.122-.044-.033-.011-.079-.025a.4.4 0 0 0-.073-.013h-.023a.7.7 0 0 0-.28.065l-.058.024-.083.03a.3.3 0 0 1-.223-.011.5.5 0 0 1-.157-.098 1 1 0 0 1-.18-.2l-.056.1a1.5 1.5 0 0 1-.424.455 1.2 1.2 0 0 1-.322.15l-.098.024a5 5 0 0 1-.233.045q-.15.026-.303.048l-.333.047-.294.044a5 5 0 0 0-.201.037h-.002l.023.013a1.7 1.7 0 0 1 .301.213l.047.054q.031.039.05.084a.23.23 0 0 1 .011.162l-.005.016a.2.2 0 0 1-.034.047l-.054.047a2 2 0 0 1-.328.188q-.069.031-.139.059-.188.074-.384.125a4 4 0 0 1-.427.09q-.276.041-.557.053a5.6 5.6 0 0 1-.843-.031l-.278-.03q-.126-.016-.25-.028l-.717-.079-.107-.011-.04-.014-.031-.027-.018-.039v-.042l.015-.04.03-.028.017-.01.019-.013a3 3 0 0 0 .23-.168q.064-.052.122-.11a1 1 0 0 0 .097-.12.3.3 0 0 0 .025-.056v-.02L17.508 47q0-.002-.004-.005l-.017-.02-.023-.02-.044-.032a1 1 0 0 0-.16-.083l-.092-.04a6 6 0 0 0-.211-.08l-.238-.084-.078-.027a8 8 0 0 1-.382-.147 4 4 0 0 1-.342-.161l-.008-.004-.007-.004-.031-.027-.019-.036-.002-.041.013-.039.027-.03.037-.018.041-.002.057.01.059.008q.306.046.613.079a18 18 0 0 0 1.21.088q.259.009.517.006a6 6 0 0 0 .499-.028 3 3 0 0 0 .247-.04 1 1 0 0 0 .152-.046.3.3 0 0 0 .055-.029l.004-.002-.012-.016a1.5 1.5 0 0 1-.139-.225 1 1 0 0 1-.055-.169.4.4 0 0 1-.002-.113.3.3 0 0 1 .05-.122l.025-.03a.3.3 0 0 1 .1-.068.5.5 0 0 1 .13-.038 1 1 0 0 1 .096-.013 2 2 0 0 1 .167-.005 4 4 0 0 1 .319.013l.167.01.173.01a5 5 0 0 0 .572-.001 4 4 0 0 0 .223-.022 12 12 0 0 0 .895-.134 13 13 0 0 0 .515-.105l.07-.017-.011-.032-.006-.018a11 11 0 0 0-.359-.288 8 8 0 0 0-.258-.188m3.211-1.366a3 3 0 0 0-.4-.179 4 4 0 0 0-.447-.137 3 3 0 0 0-.527-.08 3 3 0 0 0-.507.01l-.028.004-.06.012q-.078.02-.154.049-.09.035-.178.078-.159.076-.31.163l-.19.11q-.015.007-.03.017c.149.169.3.337.467.489a3 3 0 0 0 .156.134 1 1 0 0 1 .185-.117.6.6 0 0 1 .174-.049.6.6 0 0 1 .191.01.8.8 0 0 1 .304.141l.016-.015.013-.012a1 1 0 0 1 .163-.123.4.4 0 0 1 .158-.046h.01a.3.3 0 0 1 .085.014 1 1 0 0 1 .171.062q.075.033.146.07.084.045.166.094a6 6 0 0 1 .271-.485 3 3 0 0 1 .151-.209zm7.415-29.213.017-.004q.183-.056.358-.132.2-.086.39-.193a4.5 4.5 0 0 0 .703-.49 3 3 0 0 0 .264-.254l.045-.052.024-.03.057-.061a1 1 0 0 1 .136-.106q.11-.068.23-.118a3 3 0 0 1 .31-.113q.187-.059.376-.109l.276-.075q.279-.073.553-.163.183-.06.36-.133.157-.066.306-.146a2.4 2.4 0 0 0 .337-.222l.003-.003-.031-.012-.029-.012a3.7 3.7 0 0 1-.585-.322 4 4 0 0 1-.286-.211 5.4 5.4 0 0 1-.78-.792 8 8 0 0 1-.266-.344 10 10 0 0 1-.413-.607 22 22 0 0 1-.297-.476q-.196-.326-.39-.654-.04-.07-.084-.14-.195-.33-.398-.652a13 13 0 0 0-.333-.499 8 8 0 0 0-.36-.473 5 5 0 0 0-.354-.39 4 4 0 0 0-.371-.328l-.064-.048-.062-.047a15 15 0 0 0-.736-.515 19 19 0 0 0-1.196-.729 20 20 0 0 0-1.61-.813 16 16 0 0 0-1.297-.51l-.103-.034-.31-.108q-.29-.105-.575-.223-.325-.135-.639-.29a9 9 0 0 1-.754-.423 6 6 0 0 1-.539-.393 4 4 0 0 1-.21-.192 3 3 0 0 1-.266-.299 2 2 0 0 1-.241-.404L23.83.645l-.002.002a2 2 0 0 1-.126.275 2.3 2.3 0 0 1-.521.618 3 3 0 0 1-.253.202 5 5 0 0 1-.448.29q-.171.1-.348.19-.24.12-.484.229-.33.145-.668.274a20 20 0 0 1-.845.303l-.39.138q-.311.113-.619.24-.528.213-1.036.472a11 11 0 0 0-1.499.92 16 16 0 0 0-.618.469l-.064.052q-.03.023-.06.05a5 5 0 0 0-.244.223 7 7 0 0 0-.25.26 13 13 0 0 0-.782.965q-.295.397-.576.803-.314.45-.624.906l-.127.184q-.165.24-.334.48-.189.27-.385.533-.152.205-.312.404-.15.185-.309.362-.104.114-.216.22a3 3 0 0 1-.208.18 2 2 0 0 1-.17.117 1 1 0 0 1-.213.096l-.002.001q.132.114.275.215.153.108.312.208c.175.11.355.21.536.31q.22.119.44.235l.07.038q.147.079.292.162.103.06.204.123.107.068.208.145a1.7 1.7 0 0 1 .242.227l.016.02a3 3 0 0 0 .201.22q.12.12.242.233a10 10 0 0 0 .615.52q.088.068.178.13.076.054.157.103l.003.001.01-.015a16 16 0 0 1 .812-1.186 14 14 0 0 1 .94-1.114 11.8 11.8 0 0 1 2.215-1.853A10 10 0 0 1 20.1 9.25a9 9 0 0 1 .908-.378 8.8 8.8 0 0 1 2.215-.473 9 9 0 0 1 .616-.026h.056a9 9 0 0 1 .598.023 8.5 8.5 0 0 1 2.235.47 9 9 0 0 1 1.506.688 10 10 0 0 1 .725.45 11.8 11.8 0 0 1 2.177 1.93 14 14 0 0 1 .694.842 15 15 0 0 1 .837 1.221"/><path fill="#000" d="m22.503 44.924-.06.008-.368.045a30 30 0 0 1-2.231.175q-.478.017-.956.011a13 13 0 0 1-.836-.037 9 9 0 0 1-.71-.087 6 6 0 0 1-.486-.107 4 4 0 0 1-.377-.125 6 6 0 0 1-.273-.113 8 8 0 0 1-.588-.29q-.27-.144-.53-.302a22 22 0 0 1-.872-.55l-.378-.246a26 26 0 0 0-.553-.348 4 4 0 0 0-.244-.134l-.014-.006a.2.2 0 0 0-.051-.013l-.043-.004a1 1 0 0 0-.118.005 2 2 0 0 0-.194.034 2 2 0 0 0-.167.045l-.003.002h-.001l-.039.005q-.019-.003-.038-.01a.1.1 0 0 1-.052-.055.1.1 0 0 1 0-.077q.01-.017.022-.032l.058-.06q.129-.13.267-.251.14-.124.295-.23a2.6 2.6 0 0 1 .388-.222 2.2 2.2 0 0 1 .943-.2q.134-.001.267.01v-.002a3 3 0 0 1-.14-.392q-.056-.187-.106-.375l-.07-.269-.054-.197a4 4 0 0 1-.296-.088 6 6 0 0 1-.374-.141 8 8 0 0 1-.444-.203 9 9 0 0 1-.478-.255 12 12 0 0 1-.894-.566 14 14 0 0 1-1.607-1.304l-.072-.068a2.6 2.6 0 0 1-.531-.724 4 4 0 0 1-.122-.273 5 5 0 0 1-.094-.26l-.108-.33-.014-.044-.058-.17a4 4 0 0 0-.11-.28 2.1 2.1 0 0 0-.396-.606q-.01-.014-.023-.024l-.03-.022-.077-.04a1.5 1.5 0 0 0-.38-.092l-.04-.012-.03-.026-.019-.035-.004-.04.012-.039.026-.03.035-.02.023-.007.15-.041q.194-.05.392-.082c.2-.03.402-.044.604-.033a2.6 2.6 0 0 1 .58.098 2.5 2.5 0 0 1 .477.197v-.004q.008-.103.02-.205.027-.192.064-.383l.08-.397.065-.331q.041-.228.066-.457l-.002.017-.078-.042a7 7 0 0 1-.575-.354 8 8 0 0 1-.638-.492 9 9 0 0 1-.7-.667 10 10 0 0 1-1.175-1.51 2.7 2.7 0 0 1-.271-.614 4 4 0 0 1-.083-.313c-.049-.214-.082-.432-.118-.648l-.011-.07a8 8 0 0 0-.053-.285 4 4 0 0 0-.095-.368 2.6 2.6 0 0 0-.21-.481l-.053-.086a.3.3 0 0 0-.056-.058.7.7 0 0 0-.155-.099 1.6 1.6 0 0 0-.239-.099l-.036-.02-.025-.03-.011-.04.004-.04.02-.035.031-.025.039-.01q.012-.003.023-.003l.153-.012q.186-.012.373-.014a3.3 3.3 0 0 1 .8.089 2.2 2.2 0 0 1 .669.302q.09.06.174.132l.006-.021q.045-.155.097-.306.062-.177.13-.352l.15-.4q.06-.157.112-.316l-.184-.165a7 7 0 0 1-.59-.617 5.7 5.7 0 0 1-.564-.813 5.5 5.5 0 0 1-.436-.97 7 7 0 0 1-.157-.537 4 4 0 0 1-.102-.715 5 5 0 0 1-.006-.356c.006-.293.034-.586.065-.878l.03-.28a31 31 0 0 0 .048-.498l.004-.059.002-.018a2 2 0 0 0-.003-.173 6 6 0 0 0-.11-.729l-.002-.009-.001-.007v-.041l.015-.038.029-.03.038-.014H6.9l.037.018.028.03q.007.015.017.028l.016.028q.058.092.12.182.144.209.3.41l.135.177.08.107c.153.204.3.413.423.636q.07.124.125.253l.002-.007q.025-.072.056-.143.091-.204.218-.388a4 4 0 0 1 .392-.486l.116-.126.162-.175.204-.225.016-.02-.024-.024a7 7 0 0 1-.176-.192 4 4 0 0 1-.181-.224 3 3 0 0 1-.315-.54 3 3 0 0 1-.114-.314 3.6 3.6 0 0 1-.139-1.033 5 5 0 0 1 .032-.64 7 7 0 0 1 .084-.572q.064-.339.156-.673a10.3 10.3 0 0 1 .706-1.866l.025-.05.013-.027a5 5 0 0 0 .194-.472 5 5 0 0 0 .071-.222l.004-.018.002-.01v.004l.001.013.002.009-.004-.04.013-.041.03-.032.038-.017h.043q.02.007.039.017l.113.083q.126.093.245.193.116.097.219.21.095.104.168.224a1.2 1.2 0 0 1 .162.484 1.7 1.7 0 0 1-.035.545l-.018.08.002-.003a4.6 4.6 0 0 1 .509-.571c.283-.275.592-.52.907-.758l.172-.129.257-.19.084-.063.064-.048.02-.016.016-.007-.054-.03-.382-.204-.074-.04-.24-.131a8 8 0 0 1-.595-.361 5 5 0 0 1-.594-.473l-.005-.005-.006-.005-.024-.036-.007-.042.011-.042.027-.034.039-.02.043-.001.01.001.042.003q.06-.001.116-.02a1 1 0 0 0 .093-.036 1 1 0 0 0 .185-.114 2 2 0 0 0 .207-.172 4 4 0 0 0 .274-.283q.153-.17.294-.35.159-.198.31-.403.174-.236.342-.476.21-.3.417-.6l.342-.499q.289-.423.587-.842.23-.323.47-.639.232-.304.48-.594a8 8 0 0 1 .463-.494 5 5 0 0 1 .342-.298L15.98 5a16 16 0 0 1 .892-.645 12 12 0 0 1 1.309-.752c.439-.215.89-.404 1.347-.575a21 21 0 0 1 .585-.21l.12-.041.296-.104q.304-.109.605-.229.31-.123.614-.264a8 8 0 0 0 .437-.218 6 6 0 0 0 .549-.334 4 4 0 0 0 .383-.307l.069-.065A2 2 0 0 0 23.59.69a1.5 1.5 0 0 0 .12-.49l.003-.096.008-.039q.009-.018.022-.033c.026-.027.038-.024.072-.031l.04.008q.018.009.033.022c.027.026.024.038.031.072v.014a1.1 1.1 0 0 0 .053.321 1.6 1.6 0 0 0 .256.482 2 2 0 0 0 .147.176 3 3 0 0 0 .255.248q.098.087.202.166.135.104.278.199.178.119.365.225.245.14.498.264.33.16.669.299a13 13 0 0 0 .75.278l.123.041.041.015a14 14 0 0 1 1.103.426q.386.167.764.352a20 20 0 0 1 2.75 1.623 15 15 0 0 1 .469.35q.19.157.362.334.229.237.431.497.22.28.416.577.22.331.425.673.204.338.405.68l.085.14q.159.27.324.534a15 15 0 0 0 .474.71 9 9 0 0 0 .395.505 5 5 0 0 0 .875.812 3.5 3.5 0 0 0 .668.364l.125.047.007.003.008.002.035.022.025.034.009.04-.008.041-.024.034a2 2 0 0 1-.112.102 2.7 2.7 0 0 1-.707.415 5 5 0 0 1-.316.12 7 7 0 0 1-.523.16l-.363.099-.014.003a.3.3 0 0 1 .048.018.4.4 0 0 1 .148.131l.026.035.036.05.024.033a1 1 0 0 0 .066.08l.026.022.009.004.068.03q.087.035.175.065l.14.048a5 5 0 0 1 .239.089 2 2 0 0 1 .167.083 1 1 0 0 1 .09.063.4.4 0 0 1 .072-.038 1 1 0 0 1 .086-.027l.082-.02.026-.007.084-.028a.3.3 0 0 0 .077-.051l.017-.021.026-.04a.6.6 0 0 0 .067-.237l.007-.08.006-.106.001-.026.011-.1a.3.3 0 0 1 .057-.143.2.2 0 0 1 .058-.05.3.3 0 0 1 .066-.026.4.4 0 0 1 .094-.013h.012a.6.6 0 0 1 .118.014.77.77 0 0 1 .425.257.4.4 0 0 1 .057.112 1 1 0 0 1 .028.106q.014.063.024.126l.02.125.026.15a2 2 0 0 0 .032.133 1 1 0 0 0 .04.105.3.3 0 0 0 .04.059l.023.019.034.02.025.008.043.003.033.002.055.005.055.011a.5.5 0 0 1 .126.057 1 1 0 0 1 .192.156.6.6 0 0 1 .067.1q.035.064.06.13.035.084.06.173a3 3 0 0 1 .095.422 3 3 0 0 1 .033.365v.02a.2.2 0 0 1-.029.092.2.2 0 0 1-.03.04.3.3 0 0 1-.038.034l-.02.014-.036.025-.03.023a.1.1 0 0 0-.022.026.1.1 0 0 0-.013.05l.001.032.008.035.027.08a1 1 0 0 0 .05.106l.039.073.06.108.08.143a8 8 0 0 1 .136.253q.038.076.07.154a1 1 0 0 1 .052.188l.006.072a.6.6 0 0 1-.022.185.5.5 0 0 1-.052.114q-.037.059-.077.113-.008.009-.013.018a1 1 0 0 0-.09.169 1 1 0 0 0-.053.206l-.005.03-.021.078a.5.5 0 0 1-.072.125 1 1 0 0 1-.115.12l-.058.053-.061.062-.018.027-.001.005-.005.026a3 3 0 0 0-.035.268l-.033.324-.01.095a.8.8 0 0 1 .226.094.66.66 0 0 1 .224.236 1 1 0 0 1 .123.371 2 2 0 0 1 .024.29v.165a6 6 0 0 1-.012.228l-.024.308-.004.047-.012.187a9 9 0 0 0 .36-.312l.04-.038.023-.024a.6.6 0 0 0 .085-.12q.036-.062.069-.125l.053-.105q.034-.068.073-.134.03-.05.065-.1a.5.5 0 0 1 .102-.106.3.3 0 0 1 .088-.047.3.3 0 0 1 .11-.014.2.2 0 0 1 .043.01.33.33 0 0 1 .145.105 1 1 0 0 1 .06.075 1 1 0 0 1 .081.133 2 2 0 0 1 .113.24 4 4 0 0 1 .13.357 5 5 0 0 1 .096.349 3 3 0 0 1 .045.245 1 1 0 0 1 .01.152.65.65 0 0 1-.05.266q-.03.07-.069.138l-.044.079-.037.065-.025.043-.053.097-.005.008a.5.5 0 0 0-.035.103.3.3 0 0 0-.002.076.4.4 0 0 0 .07.172 1 1 0 0 0 .083.108l.053.06.06.066q.053.057.101.118a.7.7 0 0 1 .088.15 1 1 0 0 1 .038.118q.032.12.038.246a1 1 0 0 1-.042.315.6.6 0 0 1-.08.152.3.3 0 0 1-.053.05l-.024.017-.098.067-.122.08a3 3 0 0 0-.18.13.5.5 0 0 0-.075.08l-.02.036a.4.4 0 0 0-.032.118 1 1 0 0 0-.003.09l.002.063v.018l-.003.087a.6.6 0 0 1-.081.252 1 1 0 0 1-.114.148 1.2 1.2 0 0 1-.347.26 2 2 0 0 1-.156.07l-.154.06a3 3 0 0 0-.166.07.7.7 0 0 0-.18.131 3 3 0 0 0-.203.242 7 7 0 0 0-.387.619l.006-.003a1 1 0 0 1 .308-.107l.061-.005h.01a.4.4 0 0 1 .088.012.26.26 0 0 1 .17.16.6.6 0 0 1 .038.142l.007.048.008.065.01.102.014.12a1 1 0 0 0 .097.32.6.6 0 0 0 .132.159l.005.004.013.007.017.008.046.018.015.007a.6.6 0 0 1 .123.071.4.4 0 0 1 .074.077c.048.064.078.14.097.218q.052-.029.104-.054.12-.06.245-.11.11-.045.224-.077a1.2 1.2 0 0 1 .267-.044l.057.001a.5.5 0 0 1 .163.04l.01.005.01.006a.12.12 0 0 1 .042.052.2.2 0 0 1 .014.045l.005.041.003.074a2 2 0 0 1-.01.223l-.01.131a11 11 0 0 1-.098.749l-.008.032a.3.3 0 0 1-.037.079c-.035.054-.082.1-.127.145l-.014.015-.044.053a.1.1 0 0 0-.02.053q-.001.012.002.024l.007.02a.2.2 0 0 0 .022.035l.034.048.013.018a1 1 0 0 1 .068.122.4.4 0 0 1 .028.16.45.45 0 0 1-.07.226.2.2 0 0 1-.045.048.3.3 0 0 1-.067.04l-.08.03q-.043.015-.087.025l-.1.025-.102.026a1 1 0 0 0-.172.065.4.4 0 0 0-.11.078.3.3 0 0 0-.048.062.1.1 0 0 0-.016.048l.001.011.008.024.018.03.031.037.046.046.058.057q.049.046.092.098a.5.5 0 0 1 .087.145.4.4 0 0 1 .025.12v.02a3 3 0 0 1-.018.367 3 3 0 0 1-.067.382 1 1 0 0 1-.064.18l-.023.04a.2.2 0 0 1-.065.066l-.01.006-.017.009a.6.6 0 0 1-.208.048q-.096.003-.192-.005l-.079-.005-.151-.003-.065.008a.2.2 0 0 0-.082.036.1.1 0 0 0-.034.046.2.2 0 0 0-.016.066l-.005.042-.012.07a.3.3 0 0 1-.157.193 1 1 0 0 1-.089.04 2 2 0 0 1-.287.076q-.073.014-.147.024l-.18.024-.037.005a3 3 0 0 0-.192.035 1 1 0 0 0-.088.028.4.4 0 0 0-.185.145q-.055.073-.1.151-.054.09-.103.181l-.024.041a3 3 0 0 1-.108.177.3.3 0 0 1 .072.12 1 1 0 0 1 .025.095 1 1 0 0 1 .023.189 3 3 0 0 1 .005.27 5 5 0 0 1-.028.43l-.004.037a1 1 0 0 0 .213-.002 2 2 0 0 0 .191-.03q.102-.021.201-.052a3 3 0 0 0 .277-.101l.004-.002a.2.2 0 0 1 .076-.015h.023a.35.35 0 0 1 .185.07.6.6 0 0 1 .148.15 1 1 0 0 1 .05.083.5.5 0 0 1 .052.279.4.4 0 0 1-.042.122l-.026.044a6 6 0 0 0-.168.318 2 2 0 0 0-.051.124.7.7 0 0 0-.04.199q0 .04.004.083l.006.073.002.023-.007.043-.023.037-.006.006-.012.012-.02.02-.104.114-.138.154a9 9 0 0 1-.215.231l-.024.024-.002.003-.006.018-.006.025-.008.042a1 1 0 0 1-.033.106.3.3 0 0 1-.04.062.16.16 0 0 1-.104.05.3.3 0 0 1-.122-.02.5.5 0 0 1-.095-.042l-.056-.03-.073-.04-.103-.052a.4.4 0 0 0-.055-.018 2 2 0 0 0-.09.166 1 1 0 0 0-.051.134.5.5 0 0 0-.014.243.4.4 0 0 0 .037.094 1 1 0 0 0 .049.079l.035.05.04.062a.4.4 0 0 1 .042.121l.002.017.001.038.002.043.001.026q.002.045-.002.088a.4.4 0 0 1-.034.126.5.5 0 0 1-.138.163 2 2 0 0 1-.104.079q-.062.044-.126.085l-.053.033-.037.023-.003.003a.1.1 0 0 0-.018.026l-.007.02a.3.3 0 0 0-.01.052l-.005.07-.004.062q-.002.044-.008.087a1 1 0 0 1-.027.125.4.4 0 0 1-.108.171.4.4 0 0 1-.086.06.4.4 0 0 1-.069.025 1 1 0 0 1-.09.014 1 1 0 0 1-.11.004 2 2 0 0 1-.25-.023l-.145-.02-.026-.005-.125-.01h-.002l-.02.004-.178.04a4.5 4.5 0 0 0-2.021 1.074 5 5 0 0 0-.168.158l.002-.001a1 1 0 0 1 .11-.03.35.35 0 0 1 .165.008q.015.004.029.012a.4.4 0 0 1 .161.153.7.7 0 0 1 .079.159 1 1 0 0 1 .057.214 1 1 0 0 1 .009.288l-.018.08-.012.035a.5.5 0 0 1-.148.188 1 1 0 0 1-.081.066l-.06.043-.081.058-.028.02a2 2 0 0 0-.11.086.4.4 0 0 0-.055.068l-.012.025a.5.5 0 0 0-.019.11q-.001.05.002.1l.005.084.003.099a.5.5 0 0 1-.05.212.3.3 0 0 1-.102.11q-.069.044-.144.08l-.02.01-.053.032a.5.5 0 0 0-.112.099.5.5 0 0 0-.065.11.6.6 0 0 0-.033.114 1.3 1.3 0 0 0-.016.196l-.001.055-.001.027-.002.035a.6.6 0 0 1-.05.213l-.022.037-.005.007.088.039a2.3 2.3 0 0 0 1.033.172l.035-.002h.008a.3.3 0 0 1 .08.011.24.24 0 0 1 .103.07.33.33 0 0 1 .078.187.4.4 0 0 1-.005.138.5.5 0 0 1-.162.278l-.024.017a.3.3 0 0 1-.084.033.5.5 0 0 1-.111.01l-.094-.005h-.026q-.035-.003-.07 0a.4.4 0 0 0-.137.034.4.4 0 0 0-.059.038l-.062.054q-.046.045-.088.094l-.09.105-.078.09-.04.04a.6.6 0 0 1-.185.13.3.3 0 0 1-.095.02.4.4 0 0 1-.143-.018 1 1 0 0 1-.176-.07l-.086-.042a1 1 0 0 0-.1-.044l-.06-.02a.2.2 0 0 0-.041-.005q-.01 0-.02.003l-.007.002-.006.004-.017.014-.01.018a.1.1 0 0 0-.007.042l-.002.041v.03l.002.048v.026q.001.045-.004.089a.4.4 0 0 1-.054.163l-.03.041-.042.046a1 1 0 0 1-.166.134q-.073.046-.147.089l-.02.012-.075.05-.008.006-.003.003-.01.013-.014.022-.021.034-.049.07a.5.5 0 0 1-.316.192.6.6 0 0 1-.348-.027l-.08-.036q-.067-.036-.131-.075l-.024-.013-.057-.03a.2.2 0 0 0-.044-.014l-.025-.002-.017.001-.01.006-.013.01-.022.018a.5.5 0 0 1-.08.05.4.4 0 0 1-.082.026l-.072.008h-.059a.3.3 0 0 1-.053-.012.4.4 0 0 1-.08-.038q-.054-.033-.103-.07l-.016-.01a.4.4 0 0 0-.071-.038l-.013-.003h-.04a6 6 0 0 0-.847.052l-.268.038-.07.01a3 3 0 0 1-.444.033 1 1 0 0 1-.127-.011 1.5 1.5 0 0 1-.313-.091l-.045-.018-.119-.047a2 2 0 0 0-.19-.069 1 1 0 0 0-.181-.035l-.063-.004a21 21 0 0 1-.537-.037 82 82 0 0 1-1.42-.122l-.315-.03a3 3 0 0 1-.127.302 13 13 0 0 0 1.667.27q.045.005.089.006.259.012.518-.002l.31-.014.067-.003.226-.007h.024q.082 0 .166.008a1 1 0 0 1 .187.036q.03.01.056.024a.3.3 0 0 1 .107.097.3.3 0 0 1 .036.095.4.4 0 0 1-.025.214 1 1 0 0 1-.071.156 1.5 1.5 0 0 1-.127.192l-.002.003a1 1 0 0 0 .179-.012q.119-.013.237-.028l.25-.034q.175-.023.349-.043a11 11 0 0 1 .81-.059h.093q.219 0 .436.018a8 8 0 0 1 .91.125 7 7 0 0 1 .418.091l.01.003.037.018.027.032.012.04-.004.042-.021.036-.034.025-.04.01h-.017l-.194.004q-.233.002-.464 0h-.087a13 13 0 0 0-.378.008 4 4 0 0 0-.285.025 1.3 1.3 0 0 0-.185.042.4.4 0 0 0-.091.046.1.1 0 0 0-.023.023v.014l.002.018q.008.03.02.057.02.045.046.088.029.05.062.096.056.08.119.156a5 5 0 0 0 .316.35q.066.07.136.136l.003.002.023.034.008.04-.007.04-.023.033-.033.023-.04.008-.04-.008-.017-.007-.022-.009a3.6 3.6 0 0 0-.578-.173 3 3 0 0 0-.37-.059 2.7 2.7 0 0 0-.53-.002 23 23 0 0 1-.673.036q-.3.011-.598.011a9 9 0 0 1-.72-.031 4 4 0 0 1-.386-.058 2 2 0 0 1-.245-.074 1 1 0 0 1-.09-.044.4.4 0 0 1-.104-.083.3.3 0 0 1-.071-.151q-.003-.021-.002-.042a.2.2 0 0 1 .01-.055.36.36 0 0 1 .107-.162 1 1 0 0 1 .074-.063 1 1 0 0 1 .138-.09q.052-.03.106-.058l.014-.007-.024-.004a7 7 0 0 0-.438-.06l-.307-.035a19 19 0 0 1-.493-.066 3 3 0 0 1-.269-.056.8.8 0 0 1-.288-.145 1.2 1.2 0 0 1-.308-.356 2 2 0 0 1-.089-.174 1 1 0 0 1-.09.068l-.022.014-.017.01a.3.3 0 0 1-.09.03.5.5 0 0 1-.183-.01 1 1 0 0 1-.119-.034l-.122-.044-.033-.011-.079-.025a.4.4 0 0 0-.073-.013h-.023a.7.7 0 0 0-.28.065l-.058.024-.083.03a.3.3 0 0 1-.223-.011.5.5 0 0 1-.157-.098 1 1 0 0 1-.18-.2l-.056.1a1.5 1.5 0 0 1-.424.455 1.2 1.2 0 0 1-.322.15l-.098.024a5 5 0 0 1-.233.045q-.15.026-.303.048l-.333.047-.294.044a5 5 0 0 0-.201.037h-.002l.023.013a1.7 1.7 0 0 1 .301.213l.047.054q.031.039.05.084a.23.23 0 0 1 .011.162l-.005.016a.2.2 0 0 1-.034.047l-.054.047a2 2 0 0 1-.328.188q-.069.031-.139.059-.188.074-.384.125a4 4 0 0 1-.427.09q-.276.041-.557.053a5.6 5.6 0 0 1-.843-.031l-.278-.03q-.126-.016-.25-.028l-.717-.079-.107-.011-.04-.014-.031-.027-.018-.039v-.042l.015-.04.03-.028.017-.01.019-.013a3 3 0 0 0 .23-.168q.064-.052.122-.11a1 1 0 0 0 .097-.12.3.3 0 0 0 .025-.056v-.02L17.508 47q0-.002-.004-.005l-.017-.02-.023-.02-.044-.032a1 1 0 0 0-.16-.083l-.092-.04a6 6 0 0 0-.211-.08l-.238-.084-.078-.027a8 8 0 0 1-.382-.147 4 4 0 0 1-.342-.161l-.008-.004-.007-.004-.031-.027-.019-.036-.002-.041.013-.039.027-.03.037-.018.041-.002.057.01.059.008q.306.046.613.079a18 18 0 0 0 1.21.088q.259.009.517.006a6 6 0 0 0 .499-.028 3 3 0 0 0 .247-.04 1 1 0 0 0 .152-.046.3.3 0 0 0 .055-.029l.004-.002-.012-.016a1.5 1.5 0 0 1-.139-.225 1 1 0 0 1-.055-.169.4.4 0 0 1-.002-.113.3.3 0 0 1 .05-.122l.025-.03a.3.3 0 0 1 .1-.068.5.5 0 0 1 .13-.038 1 1 0 0 1 .096-.013 2 2 0 0 1 .167-.005 4 4 0 0 1 .319.013l.167.01.173.01a5 5 0 0 0 .572-.001 4 4 0 0 0 .223-.022 12 12 0 0 0 .895-.134 13 13 0 0 0 .515-.105l.07-.017-.011-.032-.006-.018zm-2.992 1.382a.4.4 0 0 1-.1.057 1 1 0 0 1-.154.052 2 2 0 0 1-.197.038 4 4 0 0 1-.353.034l-.231.009a10 10 0 0 1-.523-.004 18 18 0 0 1-1.243-.087l-.017-.001-.018-.002.052.018.212.075.073.027a8 8 0 0 1 .296.114 2 2 0 0 1 .21.105 1 1 0 0 1 .13.104.4.4 0 0 1 .039.053.23.23 0 0 1 .031.113.3.3 0 0 1-.008.067.4.4 0 0 1-.04.098 1 1 0 0 1-.113.148 2 2 0 0 1-.212.189l-.005.004.801.087.288.032.157.015q.112.009.226.013.406.017.81-.03a4 4 0 0 0 .691-.146 3 3 0 0 0 .437-.174q.068-.034.133-.075l.008-.005a26 26 0 0 1-.556-.291 8 8 0 0 1-.318-.184 1.4 1.4 0 0 1-.209-.16 4 4 0 0 1-.297-.293m7.371.912-.06.064-.014.025-.001.013q0 .006.003.011a.1.1 0 0 0 .018.03l.02.02q.023.017.048.03l.057.027a2 2 0 0 0 .205.06 2 2 0 0 0 .282.046 5 5 0 0 0 .416.031q.236.01.471.008a15 15 0 0 0 .933-.033l.185-.011.137-.01q.014 0 .027-.002a3 3 0 0 1 .302.002q.157.01.312.034a4 4 0 0 1 .445.097l.007.002-.028-.031a4 4 0 0 1-.295-.37 2 2 0 0 1-.1-.174l-.025-.067a.3.3 0 0 1-.01-.174.2.2 0 0 1 .037-.07.3.3 0 0 1 .066-.063.5.5 0 0 1 .114-.061 1.4 1.4 0 0 1 .217-.056q.075-.013.154-.02.108-.01.216-.014h.005a7 7 0 0 0-.392-.033 5 5 0 0 0-.605.006q-.293.018-.585.053-.248.03-.497.065l-.083.01-.248.028a2 2 0 0 1-.178.007l-.072-.006a.25.25 0 0 1-.103-.04q-.003 0-.005-.003a2 2 0 0 1-.377.31 1.8 1.8 0 0 1-.379.178 1.7 1.7 0 0 1-.62.08m-1.742-1.612a2 2 0 0 1-.148.209l.004.011a1.4 1.4 0 0 0 .16.304.9.9 0 0 0 .291.27.7.7 0 0 0 .218.074q.07.014.141.026.109.018.218.032.14.019.28.035l.27.032.344.043a5 5 0 0 1 .27.046 1 1 0 0 1 .139.04.2.2 0 0 1 .09.062l.01.02.012.04-.006.043-.024.037-.036.023-.022.008-.02.009-.014.005a1.5 1.5 0 0 0 .481-.208q.055-.037.108-.077a2 2 0 0 0 .489-.554q.046-.077.088-.157l.009-.016-.007-.019a.1.1 0 0 0-.033-.028l-.01-.004-.013-.005-.077-.018a1 1 0 0 0-.168-.014h-.11q-.12.002-.238.008l-.194.01-.058.003-.224.008a5 5 0 0 1-.558-.018 10 10 0 0 1-.532-.065 14 14 0 0 1-1.13-.215m-2.39-.31a13 13 0 0 1-1.132.215 12 12 0 0 1-.615.072l-.11.007a5 5 0 0 1-.473-.003q-.186-.009-.373-.021a11 11 0 0 0-.307-.013 2 2 0 0 0-.191.01.6.6 0 0 0-.109.024l-.013.006-.008.004a.1.1 0 0 0-.033.03l-.005.01-.005.025.001.03q.003.022.01.045l.018.054q.026.06.06.115a1.3 1.3 0 0 0 .122.167v.001q.01.014.018.029l.002.005a7 7 0 0 0 .244.25l.11.101a2 2 0 0 0 .173.13l.086.053.156.088-.004-.028.011-.041.02-.029a.2.2 0 0 1 .077-.052l.067-.025.06-.017a3 3 0 0 1 .251-.05 11 11 0 0 1 .346-.053l.259-.037.11-.016a13 13 0 0 0 .386-.063 3 3 0 0 0 .21-.05.7.7 0 0 0 .143-.06 1 1 0 0 0 .144-.09 1.3 1.3 0 0 0 .361-.44q.031-.06.057-.12l-.008-.015a3 3 0 0 1-.115-.249m2.406-.2a5 5 0 0 0 .162-.571v-.001a6 6 0 0 0-.297-.235 8 8 0 0 0-.533-.33 1.3 1.3 0 0 0-.226-.085l-.026.002-.02.006a.2.2 0 0 0-.044.022.5.5 0 0 0-.104.082 1 1 0 0 0-.075.08l-.008.01-.016.013a.1.1 0 0 1-.112.001q-.007-.004-.013-.01l-.014-.01-.018-.014a1 1 0 0 0-.165-.098.5.5 0 0 0-.133-.04.36.36 0 0 0-.213.038l-.07.04a8 8 0 0 0-.316.298l-.026.027a2 2 0 0 1-.178.165l-.005.004.009.037a6 6 0 0 0 .177.567l.016.04s.258.512.295.56a1 1 0 0 0 .087.096.5.5 0 0 0 .123.086l.02.008.025.004a.1.1 0 0 0 .047-.006l.053-.02.058-.024a2 2 0 0 1 .16-.055 1 1 0 0 1 .225-.029h.01a.5.5 0 0 1 .121.02q.06.016.118.037l.08.03a2 2 0 0 0 .142.044l.066.01.011.001a.1.1 0 0 0 .056-.01l.01-.005.013-.009a1 1 0 0 0 .164-.142 2.2 2.2 0 0 0 .364-.633m.278-.18a163 163 0 0 0 1.63.142 34 34 0 0 0 .588.042l.061.003.017.001.08.01c.099.018.195.05.289.086l.052.02.119.048q.084.035.17.062a1 1 0 0 0 .195.041 1 1 0 0 0 .151.002 4 4 0 0 0 .354-.037l.166-.023a11 11 0 0 1 .427-.052 6 6 0 0 1 .491-.021h.128l.038.005a.4.4 0 0 1 .137.06l.02.011.068.048.016.01a.4.4 0 0 0 .063.036l.01.002h.01q.03.001.06-.004a.15.15 0 0 0 .077-.037l.018-.015.039-.028a.25.25 0 0 1 .138-.036.4.4 0 0 1 .079.012l.07.025q.045.02.089.046l.06.036.027.015.068.035a.5.5 0 0 0 .094.033.4.4 0 0 0 .18-.001.4.4 0 0 0 .078-.026.3.3 0 0 0 .12-.101q.025-.037.047-.075l.01-.015a.3.3 0 0 1 .077-.085 1 1 0 0 1 .113-.074l.075-.044a1 1 0 0 0 .223-.175l.019-.025a.1.1 0 0 0 .015-.032l.007-.037a.4.4 0 0 0 .004-.093l-.002-.048v-.025l.001-.052a.4.4 0 0 1 .014-.09.26.26 0 0 1 .157-.18.2.2 0 0 1 .083-.018.4.4 0 0 1 .195.038 1 1 0 0 1 .102.045l.087.041a2 2 0 0 0 .156.065.3.3 0 0 0 .069.01.1.1 0 0 0 .036-.006l.019-.009a.4.4 0 0 0 .063-.044l.051-.049q.042-.043.08-.09.037-.041.073-.084.076-.093.165-.175a.52.52 0 0 1 .383-.15q.04 0 .077.002.036 0 .07.003l.089-.003.015-.004.009-.005.005-.004.025-.026a.28.28 0 0 0 .062-.208.2.2 0 0 0-.014-.047.1.1 0 0 0-.016-.024l-.012-.008-.011-.001-.024.001a3 3 0 0 1-.424-.009 2.5 2.5 0 0 1-.898-.266l.006-.005-.006.005-.094.062a.6.6 0 0 1-.105.048.45.45 0 0 1-.26.008l-.071-.02a2 2 0 0 1-.14-.055l-.132-.06-.031-.013a1 1 0 0 0-.174-.062l-.043-.007a.2.2 0 0 0-.047.002.1.1 0 0 0-.036.016l-.024.022a.2.2 0 0 0-.04.097l-.006.056a1 1 0 0 0 0 .114l.003.076v.1a.5.5 0 0 1-.057.225.3.3 0 0 1-.042.053.7.7 0 0 1-.15.12 1 1 0 0 1-.292.119.8.8 0 0 1-.308.014.7.7 0 0 1-.175-.053.3.3 0 0 1-.074-.055.45.45 0 0 1-.1-.175l-.014-.042-.02-.059-.008-.022-.035-.078a1.4 1.4 0 0 0-.292.074l-.123.045a7 7 0 0 0-.273.111l-.325.143-.258.116q-.313.141-.63.27a7 7 0 0 1-.57.203l-.01.004-.027.004h-.022l-.045.002-.069.002q-.277.01-.556.025l-.68.04a97 97 0 0 0-1.381.1zm-10.766-2.931a3 3 0 0 0-.302-.024 2.3 2.3 0 0 0-.454.033 2 2 0 0 0-.607.214 2.7 2.7 0 0 0-.391.262 4 4 0 0 0-.159.135h-.001l.016-.001.015-.002q.079-.01.157-.007a.6.6 0 0 1 .162.032l.027.012.018.008.066.034q.117.063.23.132.135.082.266.165l.296.192.29.19c.28.182.56.363.846.535q.266.161.539.31.281.154.573.286a6 6 0 0 0 .515.2 4 4 0 0 0 .532.132q.206.037.411.062.276.032.553.05.327.019.655.023.37.004.74-.007.457-.013.916-.043a29 29 0 0 0 1.582-.149l-.089-.03-.226-.08-.016-.003-.055-.01-.131-.02a45 45 0 0 1-1.593-.27 27 27 0 0 1-1.154-.244 18 18 0 0 1-1.064-.284q-.476-.142-.94-.324a9 9 0 0 1-.43-.183 7 7 0 0 1-.415-.205 5.4 5.4 0 0 1-.885-.581 4 4 0 0 1-.3-.272 1.5 1.5 0 0 1-.194-.268m7.871 2.685-.008-.03-.042-.167v-.004l-.002-.01v-.02a.1.1 0 0 1 .037-.072l.013-.01.02-.013q.076-.056.143-.125.072-.072.142-.148l.026-.026.022-.024-.108-.092a5 5 0 0 1-.424-.433c-.052-.058-.213-.24-.214-.243l-.066-.076-.052-.059-.172-.191a7 7 0 0 0-.226-.233 5 5 0 0 0-.436-.379l-.006-.005-.012-.012a.1.1 0 0 1-.02-.089.1.1 0 0 1 .083-.077l.017-.002h.008l.017.003.024.01.014.008.028.021a5 5 0 0 1 .465.412 7 7 0 0 1 .423.457l.049.056h.002l.05-.03.128-.074a7 7 0 0 1 .456-.24 2 2 0 0 1 .171-.07 1.3 1.3 0 0 1 .222-.06 1 1 0 0 1 .111-.012 3 3 0 0 1 .248-.011h.027a3 3 0 0 1 .27.012q.245.023.484.08a4 4 0 0 1 .946.361l.008.005.064-.043a1 1 0 0 1 .1-.055 3 3 0 0 1 .204-.092 4 4 0 0 0 .186-.088q.075-.04.149-.085c.16-.1.31-.217.451-.342l.015-.013.006-.005.015-.01a.1.1 0 0 1 .032-.01h.025c.008 0 .01 0 .017.003a.103.103 0 0 1 .07.134.1.1 0 0 1-.017.03l-.012.012-.029.026a3.4 3.4 0 0 1-.539.394q-.096.055-.196.102l-.193.086-.028.012a1.3 1.3 0 0 0-.178.097l-.101.089a2 2 0 0 0-.236.33 5 5 0 0 0-.21.389l-.001.002a5 5 0 0 1 .498.384l.002.002.014.015a.1.1 0 0 1 .02.068l-.001.014-.003.017-.001.004c.115-.052.221-.12.321-.196a4 4 0 0 0 .311-.272l.128-.125.159-.16.173-.169a5 5 0 0 1 .243-.217q.13-.108.269-.203a3 3 0 0 1 .226-.136l.005-.029a4 4 0 0 0 .054-.538 4 4 0 0 0 0-.313 2 2 0 0 0-.018-.185 1 1 0 0 0-.045-.177.2.2 0 0 0-.026-.048l-.02-.024-.03-.023a.5.5 0 0 0-.176-.067 1.2 1.2 0 0 0-.255-.028 3 3 0 0 0-.327.006q-.125.006-.25.017l-.254.02a11 11 0 0 1-.419.023 3 3 0 0 1-.315-.012l-.08-.011a2.4 2.4 0 0 1-.53-.166l-.081-.033-.09-.038-.156-.062a3 3 0 0 0-.245-.079 1.2 1.2 0 0 0-.24-.034h-.015a1 1 0 0 0-.207.023 2 2 0 0 0-.204.053 4 4 0 0 0-.248.086q-.12.045-.242.094l-.064.024q-.158.062-.32.113a2 2 0 0 1-.27.064q-.093.014-.186.018-.106.004-.213.004-.14-.001-.281-.008l-.252-.01-.338-.01a3 3 0 0 0-.265.011 1 1 0 0 0-.106.022l-.035.015-.009.013-.009.019a1 1 0 0 0-.038.169q-.008.063-.013.128a5 5 0 0 0-.016.397q-.002.257-.001.514v.107q0 .186-.01.372v.006l.117.066.174.09.214.108a16 16 0 0 1 .39.206 8.5 8.5 0 0 1 1.085.716l.011.004zm9.585-1.685a.5.5 0 0 1 .11.015 1 1 0 0 1 .1.03q.068.026.134.056l.092.042.039.017a1.4 1.4 0 0 0 .183.065l.045.008a.2.2 0 0 0 .09-.01.5.5 0 0 0 .127-.07l.05-.035.058-.038.011-.006.006-.004a.12.12 0 0 0 .05-.066.3.3 0 0 0 .015-.087 1 1 0 0 0 .005-.091l.002-.069.001-.029q.002-.05.008-.1a1 1 0 0 1 .026-.14.7.7 0 0 1 .136-.263.6.6 0 0 1 .183-.148q.052-.029.105-.055l.061-.035.027-.02a.1.1 0 0 0 .025-.031.2.2 0 0 0 .017-.056l.004-.04v-.065l-.006-.107-.002-.033a1 1 0 0 1 .006-.174q.01-.076.045-.144a.5.5 0 0 1 .126-.149q.05-.041.103-.08l.1-.07.034-.024q.042-.03.083-.064l.058-.054a.4.4 0 0 0 .038-.047.2.2 0 0 0 .032-.093.9.9 0 0 0-.04-.356 1 1 0 0 0-.062-.145.4.4 0 0 0-.041-.058.2.2 0 0 0-.05-.04.1.1 0 0 0-.029-.006l-.032.002a.4.4 0 0 0-.095.028 1.4 1.4 0 0 0-.167.077q-.09.046-.177.095l-.05.026a3 3 0 0 1-.144.071 1 1 0 0 1-.171.06l-.034.006-.017.004a2 2 0 0 0-.184.05 3 3 0 0 0-.169.06q-.115.045-.23.094l-.218.094-.209.087a3 3 0 0 1-.22.078 1 1 0 0 1-.152.03 1 1 0 0 1-.176-.005q-.076-.01-.153-.023l-.024-.004a1 1 0 0 0-.113-.007.2.2 0 0 0-.043.011l-.01.006-.003.003-.003.005-.005.014a.2.2 0 0 0-.007.04l-.002.045v.151l-.001.025a.4.4 0 0 1-.051.188.25.25 0 0 1-.167.115.2.2 0 0 1-.1-.009.3.3 0 0 1-.075-.046l-.046-.046-.039-.044a.5.5 0 0 0-.07-.067.26.26 0 0 0-.189-.05l-.042.004-.021.003-.005.002-.033.013a.6.6 0 0 0-.095.058 1 1 0 0 0-.17.148.5.5 0 0 0-.058.08l-.015.034a1 1 0 0 0-.044.21q-.005.069-.007.138l-.001.03-.008.08a.4.4 0 0 1-.016.068.3.3 0 0 1-.072.11.32.32 0 0 1-.261.084l-.11-.012-.02-.003-.056-.003a.4.4 0 0 0-.13.02.4.4 0 0 0-.093.048l-.014.01a.2.2 0 0 0-.034.035l-.02.032a1 1 0 0 0-.04.086q-.022.06-.04.121-.022.069-.041.138l-.012.043a2 2 0 0 1-.075.215 1 1 0 0 1-.106.194 1 1 0 0 1-.076.092 2 2 0 0 1-.206.2 2.5 2.5 0 0 1-.622.384 4 4 0 0 1-.24.095q-.19.071-.382.136-.252.087-.505.17-.39.128-.78.251l-.008.003.184-.014.172-.011a65 65 0 0 1 1.171-.07l.402-.015h.03l.029-.01a6 6 0 0 0 .654-.242c.251-.104.499-.217.747-.328l.105-.047q.159-.07.32-.138.12-.051.245-.096.105-.04.211-.07a1.3 1.3 0 0 1 .205-.04h.004a.2.2 0 0 1 .057.004.2.2 0 0 1 .083.044.3.3 0 0 1 .072.107l.01.02.023.065.02.059.038.096.026.04a.1.1 0 0 0 .023.019l.011.005.044.014a.6.6 0 0 0 .276.004.75.75 0 0 0 .348-.178l.013-.015.01-.015a.2.2 0 0 0 .014-.04.4.4 0 0 0 .008-.066v-.084q0-.045-.003-.088v-.029l-.001-.044v-.03a.6.6 0 0 1 .046-.228.36.36 0 0 1 .116-.137.3.3 0 0 1 .076-.038.3.3 0 0 1 .11-.016m-5.99 1.377q.356-.13.713-.257l.155-.055.07-.025.04-.014.012-.004a.7.7 0 0 0 .227-.14 1.2 1.2 0 0 0 .246-.318l.04-.068.054-.095.091-.148.052-.067a.5.5 0 0 1 .142-.112l.018-.008a1 1 0 0 0 .031-.104q.012-.053.02-.107l.014-.142.011-.164.004-.048q.006-.075.016-.148a1 1 0 0 1 .041-.165.64.64 0 0 1 .236-.285q.04-.029.082-.055l.016-.01.04-.031a.2.2 0 0 0 .031-.034.1.1 0 0 0 .015-.031.4.4 0 0 0 .018-.076l.012-.089.009-.124.006-.133q.005-.09.014-.178.008-.068.023-.135a1 1 0 0 1 .035-.11.4.4 0 0 1 .092-.133.6.6 0 0 1 .18-.119q.047-.02.094-.036l.084-.03a3 3 0 0 0 .204-.083.4.4 0 0 0 .055-.032l.039-.035a.7.7 0 0 0 .087-.108l.036-.05.013-.017.033-.042q.036-.046.079-.088a.44.44 0 0 1 .286-.13c.066-.006.132-.002.198 0h.028q.059.002.116-.006a.5.5 0 0 0 .115-.032.2.2 0 0 0 .044-.03 1 1 0 0 0 .098-.108l.06-.08.057-.08.054-.073.077-.095a.8.8 0 0 1 .244-.198.6.6 0 0 1 .109-.039.5.5 0 0 1 .094-.01h.013a.5.5 0 0 1 .15.022l.081.03a.3.3 0 0 1 .122.114.4.4 0 0 1 .052.207 1 1 0 0 1-.001.09 1 1 0 0 1-.014.138 16 16 0 0 0 .3-.248 7 7 0 0 0 .29-.266 1 1 0 0 0 .103-.123q.04-.055.076-.112.088-.14.159-.29a4 4 0 0 0 .172-.423 4 4 0 0 0 .123-.437 3 3 0 0 0 .057-.395 1.4 1.4 0 0 0-.005-.227l-.002-.014-.007-.026-.01-.032a1 1 0 0 0-.069-.163l-.059-.122-.075-.155-.065-.135a3 3 0 0 1-.083-.203.5.5 0 0 1-.022-.114.4.4 0 0 1 .015-.125.4.4 0 0 1 .034-.075.5.5 0 0 1 .054-.073l.063-.062.058-.054.054-.054a.6.6 0 0 0 .1-.147l.008-.022.01-.025a.4.4 0 0 1 .034-.065.3.3 0 0 1 .07-.075.6.6 0 0 1 .205-.1l.048-.017.067-.02a1 1 0 0 0 .147-.056.3.3 0 0 0 .107-.082.2.2 0 0 0 .038-.078l.004-.033a.2.2 0 0 0-.01-.06l-.023-.07-.026-.067-.034-.098a.8.8 0 0 1-.03-.218.7.7 0 0 1 .036-.203.5.5 0 0 1 .052-.103q.036-.06.076-.115.05-.07.103-.136l.129-.161.034-.043a4 4 0 0 0 .162-.224.7.7 0 0 0 .082-.189q.02-.075.033-.154l.018-.108.017-.091a.7.7 0 0 1 .088-.23.5.5 0 0 1 .065-.078.4.4 0 0 1 .17-.094.6.6 0 0 1 .136-.023h.014a.4.4 0 0 1 .09.012.3.3 0 0 1 .138.08.4.4 0 0 1 .082.118q.026.051.045.106l.023.063q.012.035.027.068a.3.3 0 0 0 .033.057l.027.028a1 1 0 0 0 .114.1l.087.072q.016.015.033.028a4 4 0 0 1 .162.148q.029.03.054.062l.003.003a5 5 0 0 0 .247-.243q.065-.069.123-.143a1 1 0 0 0 .096-.142l.002-.012v-.01a1 1 0 0 1 .024-.122 3 3 0 0 1 .058-.21l.04-.128.017-.06a5 5 0 0 0 .092-.357 2.3 2.3 0 0 0 .053-.551 2 2 0 0 0-.036-.277 1.4 1.4 0 0 0-.12-.33l-.051-.104-.144-.28a31 31 0 0 1-.288-.588l-.081-.185a1 1 0 0 1-.047-.14l-.007-.053a.65.65 0 0 1 .05-.323q.04-.094.086-.186l.01-.023a1 1 0 0 0 .041-.1.5.5 0 0 0 .023-.162l-.003-.032-.001-.009a.3.3 0 0 1 .003-.07.22.22 0 0 1 .075-.127.4.4 0 0 1 .15-.074l.03-.01.071-.02a1 1 0 0 0 .096-.033.2.2 0 0 0 .058-.035.13.13 0 0 0 .045-.084l.004-.037a.4.4 0 0 0-.047-.19.7.7 0 0 0-.09-.14 2 2 0 0 0-.31-.303l-.022-.025-.013-.032q-.003-.017-.002-.034a1 1 0 0 1 .02-.115.4.4 0 0 1 .08-.171.3.3 0 0 1 .081-.067.6.6 0 0 1 .127-.047l.075-.02a2 2 0 0 0 .179-.062l.014-.006.01-.005.003-.002.015-.022a.2.2 0 0 0 .01-.044.4.4 0 0 0 .004-.092l-.007-.113-.008-.094-.009-.152q-.001-.078.008-.157a.6.6 0 0 1 .051-.183.45.45 0 0 1 .279-.236.4.4 0 0 1 .142-.008q.066.01.127.038a.8.8 0 0 1 .181.119 1.4 1.4 0 0 1 .19.188q.07.08.134.164l.003.005a3.8 3.8 0 0 0-.304-.767 6 6 0 0 0-.19-.334 7 7 0 0 0-.404-.594l-.027-.037-.004-.005a.3.3 0 0 1-.037-.086.6.6 0 0 1-.019-.129l-.004-.142-.002-.157v-.038a6 6 0 0 0-.019-.386l-.016-.146-.004-.026v-.002l-.004-.005-.008-.007-.014-.01-.019-.01-.062-.025-.075-.026-.027-.01-.033-.011a.6.6 0 0 1-.18-.11.3.3 0 0 1-.051-.067.3.3 0 0 1-.04-.138.3.3 0 0 1 .009-.09.6.6 0 0 1 .082-.173l.029-.046.014-.023a1 1 0 0 0 .047-.088.5.5 0 0 0 .043-.16.2.2 0 0 0-.008-.049l-.02-.063-.034-.078-.06-.125-.016-.032a1 1 0 0 1-.045-.107.4.4 0 0 1-.02-.098.2.2 0 0 1 .015-.084.4.4 0 0 1 .124-.168.6.6 0 0 1 .104-.07l.043-.024a.4.4 0 0 0 .057-.04l.006-.01v-.014l-.003-.046a6 6 0 0 1-.016-.332l-.005-.19a5 5 0 0 0-.015-.265 2 2 0 0 0-.033-.207l-.01-.031-.01-.028a2 2 0 0 0-.079-.182l-.06-.117-.012-.022a1 1 0 0 1-.046-.107.27.27 0 0 1 .001-.183.4.4 0 0 1 .096-.144 1 1 0 0 1 .066-.063.44.44 0 0 1 .197-.101.3.3 0 0 1 .13.009.4.4 0 0 1 .168.105 1 1 0 0 1 .097.107 2 2 0 0 1 .124.169l.057.086.024.038a.3.3 0 0 0 .048.051 1.2 1.2 0 0 0 .233.138 2 2 0 0 1 .108-.19 4 4 0 0 1 .177-.263q.111-.156.228-.307l.023-.03-.123-.193a6 6 0 0 0-.215-.309 3 3 0 0 0-.315-.354 1.4 1.4 0 0 0-.428-.273 1 1 0 0 0-.168-.044q-.017-.005-.034-.006a2 2 0 0 0-.173-.021q-.057-.004-.114-.005l-.09-.007-.07-.013a1.3 1.3 0 0 1-.336-.165.9.9 0 0 1-.206-.215 1.2 1.2 0 0 1-.108-.198q-.038-.09-.072-.181l-.01-.027-.033-.077a.5.5 0 0 0-.055-.088.2.2 0 0 0-.058-.044l-.032-.01-.04-.007-.042-.004-.063-.01a.4.4 0 0 1-.192-.095 1 1 0 0 1-.078-.084 2 2 0 0 1-.086-.118l-.052-.076-.03-.044a2 2 0 0 0-.108-.14 1 1 0 0 0-.167-.153l-.016-.013a.5.5 0 0 1-.072-.096.6.6 0 0 1-.071-.344.7.7 0 0 1 .045-.2.7.7 0 0 1 .142-.23l.001-.003-.032-.057a1 1 0 0 0-.066-.09q-.08-.095-.167-.185l-.026-.027a1 1 0 0 1-.139-.183.4.4 0 0 1-.027-.065.7.7 0 0 1-.022-.224v-.017l-.009-.079-.005-.018-.005-.008-.025-.035-.056-.065-.05-.053-.021-.024a2 2 0 0 1-.1-.124l-.032-.05a.4.4 0 0 1-.047-.16.3.3 0 0 1 .015-.086.3.3 0 0 1 .22-.184.5.5 0 0 1 .106-.011q.052 0 .102.008c.102.015.2.045.3.072l.12.03.05.006h.006l.009-.002a.3.3 0 0 0 .046-.017l.04-.016.014-.005.02-.007a.3.3 0 0 1 .134-.02l.02.004.012.004.014.005a2 2 0 0 1 .182.078q.125.06.246.127l.055.031v-.004a5 5 0 0 1 .02-.415l.018-.237.004-.05.01-.185-.001-.048q0-.023-.003-.044l-.007-.072-.036-.256-.014-.098a1 1 0 0 1-.008-.117.4.4 0 0 1 .04-.187.3.3 0 0 1 .066-.08 6 6 0 0 0-.332.108 2 2 0 0 0-.233.102 1 1 0 0 0-.085.05.7.7 0 0 0-.136.116l-.022.028a3 3 0 0 1-.456.434 4.7 4.7 0 0 1-.984.6 4 4 0 0 1-.39.147 16 16 0 0 1 .733 1.362q.315.654.576 1.332.325.841.57 1.706.27.954.449 1.928c.24 1.31.357 2.641.359 3.972a22 22 0 0 1-.3 3.685 20.5 20.5 0 0 1-.801 3.211 18.4 18.4 0 0 1-1.02 2.434 17 17 0 0 1-1.118 1.881 15 15 0 0 1-1.157 1.463 12 12 0 0 1-2.078 1.831 11 11 0 0 1-.723.454 10 10 0 0 1-1.47.682 8.8 8.8 0 0 1-2.063.474 8.4 8.4 0 0 1-2.518-.121 9 9 0 0 1-1.243-.347 9.3 9.3 0 0 1-1.47-.678 10 10 0 0 1-.74-.464 11.8 11.8 0 0 1-2.078-1.831 14 14 0 0 1-.686-.82 15 15 0 0 1-.982-1.433q-.33-.544-.616-1.111a18.4 18.4 0 0 1-1.01-2.414 20.6 20.6 0 0 1-.806-3.235c-.203-1.226-.3-2.47-.295-3.713.004-1.322.123-2.644.363-3.944q.184-.998.464-1.972.238-.831.55-1.638.273-.709.605-1.392a17 17 0 0 1 .709-1.31l-.002-.001a3 3 0 0 1-.192-.127 6 6 0 0 1-.339-.259 10 10 0 0 1-.765-.697 4 4 0 0 1-.146-.164l-.026-.032-.012-.014a1 1 0 0 0-.198-.18 4 4 0 0 0-.421-.27v.026l-.014.038-.057.092a3 3 0 0 0-.349.89 5 5 0 0 0-.1.606q-.026.225-.04.45-.016.26-.027.52l-.016.35-.001.039q.103-.099.217-.186a2.6 2.6 0 0 1 .708-.386 3 3 0 0 1 .42-.11l.171-.028.166-.023.036-.005a2 2 0 0 0 .13-.025l.033-.011.005-.002.04-.01.041.008.035.023.023.035.006.041-.01.04-.01.025-.024.048a15 15 0 0 1-.247.49q-.06.11-.117.22a22 22 0 0 0-.297.594l-.068.143a20 20 0 0 1-.19.388 7 7 0 0 1-.138.253q-.113.196-.236.388l-.233.366-.01.015q-.031.048-.066.093-.124.164-.274.305a5 5 0 0 1-.448.363 6 6 0 0 1-.585.37 13 13 0 0 1-.978.503l-.04.019.02.1q.046.242.073.487a4 4 0 0 1 .006.723l.017-.02a2.3 2.3 0 0 1 .372-.333q.072-.052.146-.1.145-.093.291-.18l.03-.019.079-.05q.091-.057.175-.125a.8.8 0 0 0 .178-.205l.002-.003.029-.033.04-.018.044.001.04.019.028.034.011.042-.007.043-.002.007-.012.032a2 2 0 0 0-.064.212 1.4 1.4 0 0 0-.025.438q.011.135.032.268l.021.146a10 10 0 0 1 .043.358q.021.217.015.433a2.8 2.8 0 0 1-.093.64q-.061.228-.144.45l-.121.33q-.152.407-.318.81-.162.392-.328.785l-.054.127q-.113.27-.222.545-.092.237-.174.477a6 6 0 0 0-.121.412 4 4 0 0 0-.085.433l.03.058q.087.167.164.34l.001.002a2 2 0 0 1 .145-.456 1.7 1.7 0 0 1 .266-.41q.094-.108.193-.211l.033-.036a1.6 1.6 0 0 0 .18-.227.9.9 0 0 0 .134-.415l.012-.04.028-.033.04-.018h.042l.04.016.029.032.014.04q.016.13.022.26a2 2 0 0 1-.017.41l-.027.156a3 3 0 0 0-.028.216 2.5 2.5 0 0 0 .013.468 2 2 0 0 0 .104.442q.036.102.079.202l.063.153a7 7 0 0 1 .103.265 3.7 3.7 0 0 1 .178.726 4 4 0 0 1 .049.56q.003.226-.017.452-.018.208-.055.415a6 6 0 0 1-.096.455q-.05.195-.107.387-.051.168-.105.334-.065.2-.132.398l-.021.064q-.068.203-.127.41a4 4 0 0 0-.084.35q-.025.135-.031.271a1.2 1.2 0 0 0 .026.296l.002.039c-.007.022-.009.03-.017.04l-.024-.028.028.033a16 16 0 0 1 .759.966q.116.162.225.327a2 2 0 0 1 .056-.498 1.7 1.7 0 0 1 .129-.345 2 2 0 0 1 .07-.13q.077-.125.159-.247l.027-.041c.052-.08.102-.164.139-.253a.85.85 0 0 0 .056-.428v-.005l-.001-.005.002-.038.017-.035a.1.1 0 0 1 .063-.04q.02-.002.039 0l.035.014a.2.2 0 0 1 .063.063.6.6 0 0 1 .057.098 2 2 0 0 1 .08.18q.045.105.085.212a12 12 0 0 1 .2.573 21 21 0 0 1 .248.815l.023.083.008.025a3 3 0 0 0 .155.405q.054.114.114.223.048.09.098.176l.077.135a10 10 0 0 1 .166.305 3 3 0 0 1 .21.537 3 3 0 0 1 .045.187 9 9 0 0 1 .164 1.008q.034.332.037.666.003.275-.019.548a5 5 0 0 1-.094.63q-.027.12-.062.237c.279.103.555.213.825.34a7 7 0 0 1 .573.303l.007.004-.007-.004a1.3 1.3 0 0 1-.16-.397 2 2 0 0 1-.032-.226 3.5 3.5 0 0 1 .007-.482l.008-.116.002-.038.007-.17q.004-.14-.01-.28a1.4 1.4 0 0 0-.094-.373l-.03-.064-.01-.04.006-.041.022-.035.034-.024.04-.008.041.008.034.023.007.008.06.066q.05.056.097.115.103.133.194.273.082.123.16.248l.13.205.22.343.021.032.004.006a.4.4 0 0 0 .067.068q.046.04.096.076.064.048.13.091l.162.105.213.137q.187.119.369.244.119.084.233.173.116.09.224.191a2 2 0 0 1 .252.286l.059.091a3 3 0 0 1 .204.383q.06.126.113.254.066.16.126.32.07.186.135.374.142.42.279.841l.05.154q.111.342.237.68l.001.004q.095.069.197.127.117.068.238.129.142.071.287.136.162.074.326.142a17 17 0 0 0 .834.323l-.094-.061a8 8 0 0 0-.615-.351l-.166-.086-.214-.108q-.09-.045-.178-.093a3 3 0 0 1-.181-.105l-.028-.025c-.005-.01-.013-.021-.016-.033q-.004-.019-.004-.037v-.006l.002-.019.001-.026q.009-.17.009-.34v-.51a15 15 0 0 1 .01-.413 4 4 0 0 1 .033-.346 1 1 0 0 1 .039-.15l.008-.021a.3.3 0 0 1 .083-.11l.021-.013.037-.017a.6.6 0 0 1 .11-.032q.073-.013.145-.018.093-.005.186-.006h.042a7 7 0 0 1 .3.01l.22.009a12 12 0 0 0 .41.01l.167-.006a1.5 1.5 0 0 0 .292-.05q.093-.025.184-.057.1-.034.199-.072l.191-.074a12 12 0 0 1 .323-.118q.093-.03.187-.055a2 2 0 0 1 .286-.045 1 1 0 0 1 .168.004c.14.015.278.055.41.104a4 4 0 0 1 .184.071l.136.057.057.023.067.027.068.026a1.5 1.5 0 0 0 .553.12q.078.003.156 0 .099-.001.198-.007l.209-.015.255-.02a11 11 0 0 1 .454-.024 3 3 0 0 1 .275.01 2 2 0 0 1 .176.027l.06.015c.076.023.15.056.211.107a.4.4 0 0 1 .113.157q.019.045.032.094.015.057.024.115.011.068.017.138.008.097.01.195 0 .118-.005.237a5 5 0 0 1-.07.624l-.001.008-.01.029a.1.1 0 0 1-.02.024q-.01.011-.024.018l-.01.006-.029.015a3 3 0 0 0-.158.092 3 3 0 0 0-.28.205q-.134.11-.258.229l-.184.18-.145.145-.195.19zm-12.189-5.03q.038.066.074.134.095.185.169.38a6 6 0 0 1 .204.636l.052.192q.03.122.063.242l.021.08q.044.165.094.327.04.135.09.266.045.117.1.229a1.4 1.4 0 0 0 .2.294 1 1 0 0 0 .096.093q.102.094.21.182.2.159.414.297.255.163.523.299.405.204.829.364.496.188 1.009.333.516.147 1.04.265a28 28 0 0 0 1.33.268l.015.002-.032-.015-.13-.068a5 5 0 0 1-.59-.374 6 6 0 0 1-.4-.328 7 7 0 0 1-.317-.303 10 10 0 0 1-.524-.585q-.25-.304-.492-.612l-.074-.093q-.216-.273-.447-.533a4.6 4.6 0 0 0-.554-.527l-.056-.041a13 13 0 0 0-.298-.215 7 7 0 0 0-.865-.513 8 8 0 0 0-.283-.134q-.371-.163-.755-.3-.345-.123-.693-.238l-.025-.008zm17.435 1.417.021-.028.153-.204.026-.034a.3.3 0 0 0-.033-.04l-.027-.03-.01-.01-.038-.047a.4.4 0 0 1-.06-.126.6.6 0 0 1-.008-.118 2 2 0 0 1 .017-.16l.014-.095q.01-.063.016-.126a1 1 0 0 0 .002-.151.3.3 0 0 0-.016-.072l-.013-.022-.02-.018-.019-.008-.035-.012a.28.28 0 0 0-.213.01.4.4 0 0 0-.068.041l-.067.058a1 1 0 0 0-.076.084q-.044.056-.086.114l-.07.097a3 3 0 0 1-.133.166.5.5 0 0 1-.153.115.4.4 0 0 1-.059.022.7.7 0 0 1-.187.03q-.081.002-.164-.003h-.027l-.07.002a.4.4 0 0 0-.058.01.2.2 0 0 0-.047.017.3.3 0 0 0-.078.06l-.043.047-.046.06-.041.058-.02.025q-.03.04-.062.076a.6.6 0 0 1-.138.113l-.04.02a2 2 0 0 1-.175.073l-.125.045-.025.009a.6.6 0 0 0-.13.062.4.4 0 0 0-.07.065l-.018.032a.3.3 0 0 0-.029.09 1 1 0 0 0-.022.157l-.009.13-.005.1-.01.141a1.4 1.4 0 0 1-.033.196.33.33 0 0 1-.079.145.5.5 0 0 1-.07.06q-.042.031-.087.06l-.018.012-.054.04a.4.4 0 0 0-.116.148l-.01.027-.02.076q-.009.053-.014.105l-.01.122-.007.099a4 4 0 0 1-.018.195q-.008.06-.02.117a.8.8 0 0 1-.071.207l-.002.003-.03.033-.04.018-.012.004-.014.005-.032.021-.032.031-.05.065a2 2 0 0 0-.088.144l-.05.087a3 3 0 0 1-.179.274l-.057.068.02-.007a14 14 0 0 0 .366-.135 4 4 0 0 0 .18-.078 2.4 2.4 0 0 0 .47-.3 2 2 0 0 0 .267-.27.6.6 0 0 0 .066-.111q.023-.05.041-.101.023-.063.041-.128l.039-.132.012-.041q.027-.094.063-.183a.6.6 0 0 1 .079-.14.4.4 0 0 1 .133-.113.6.6 0 0 1 .228-.076.6.6 0 0 1 .178.005l.055.007.063.005a.1.1 0 0 0 .038-.005l.025-.011a.1.1 0 0 0 .026-.022l.004-.005.006-.014.006-.027.008-.084.003-.08a2 2 0 0 1 .013-.154 1 1 0 0 1 .056-.208l.01-.022a.6.6 0 0 1 .072-.11 1 1 0 0 1 .192-.179 1 1 0 0 1 .166-.103.4.4 0 0 1 .091-.031 1 1 0 0 1 .124-.01 1 1 0 0 1 .108.013.46.46 0 0 1 .228.127q.023.022.045.046l.039.044.035.034.006-.001.011-.008.012-.018a.1.1 0 0 0 .012-.044l.004-.04.001-.033v-.122q-.001-.073.015-.145l.005-.015a.3.3 0 0 1 .023-.054l.008-.012.02-.026.01-.01.011-.01.022-.017.008-.005.014-.008.014-.006.006-.003zm-6.129 2.46a3 3 0 0 0-.4-.179 4 4 0 0 0-.447-.137 3 3 0 0 0-.527-.08 3 3 0 0 0-.507.01l-.028.004-.06.012q-.078.02-.154.049-.09.035-.178.078-.159.076-.31.163l-.19.11q-.015.007-.03.017c.149.169.3.337.467.489a3 3 0 0 0 .156.134 1 1 0 0 1 .185-.117.6.6 0 0 1 .174-.049.6.6 0 0 1 .191.01.8.8 0 0 1 .304.141l.016-.015.013-.012a1 1 0 0 1 .163-.123.4.4 0 0 1 .158-.046h.01a.3.3 0 0 1 .085.014 1 1 0 0 1 .171.062q.074.033.146.07.084.045.166.094a6 6 0 0 1 .271-.485 3 3 0 0 1 .151-.209zm-5.589.238-.022-.062a26 26 0 0 1-.184-.548l-.12-.365q-.118-.367-.247-.73a12 12 0 0 0-.229-.58 6 6 0 0 0-.189-.386 3 3 0 0 0-.124-.204 1 1 0 0 0-.088-.112 2 2 0 0 0-.197-.196 4 4 0 0 0-.236-.19 6 6 0 0 0-.238-.168q-.226-.15-.456-.295l-.222-.146a3 3 0 0 1-.137-.099 1 1 0 0 1-.097-.082.6.6 0 0 1-.08-.09l-.04-.06-.155-.244-.19-.3-.04-.062-.128-.197v.002a2 2 0 0 1 .01.266c-.001.134-.011.268-.02.402l-.002.038c-.008.14-.013.28.001.421q.01.099.035.195.026.1.069.19c.038.08.094.15.143.225.035.054.096.174.17.26a10 10 0 0 1 .403.29q.068.054.133.11.159.137.302.288.145.151.28.31.16.188.313.38l.254.32.076.095q.116.144.234.287.172.208.354.406.177.194.37.373.142.134.294.258m11.98-2.704.011.002.083.013.031.005.072.008.041-.04q.209-.207.415-.415l.112-.112q.248-.248.503-.488a11 11 0 0 1 .427-.377 4 4 0 0 1 .295-.215q.062-.038.126-.069a1 1 0 0 1 .13-.047h.003l.026-.024.03-.027a10 10 0 0 1 .352-.292l.264-.213a27 27 0 0 0 .51-.426q.101-.088.199-.18.086-.081.164-.17v-.001l-.008-.018-.032-.08a1.1 1.1 0 0 1-.065-.34 1 1 0 0 1 .028-.239.45.45 0 0 1 .118-.2.3.3 0 0 1 .077-.05l.045-.015.054-.01q.064-.007.129-.007.083 0 .165.005.108.008.215.018l.186.017a5 5 0 0 0 .206.013l.03-.002a1 1 0 0 0 .126-.018.3.3 0 0 0 .114-.058.3.3 0 0 0 .05-.069l.035-.082a1.2 1.2 0 0 0 .063-.327l.004-.077.002-.028a3 3 0 0 1 .02-.19l.007-.05.005-.03q.019-.153.032-.304l.02-.221a7 7 0 0 1 .041-.352 1 1 0 0 1 .039-.157.3.3 0 0 1 .025-.052.2.2 0 0 1 .062-.06.8.8 0 0 1 .26-.098q.087-.017.173-.028l.09-.016.052-.016.027-.014.02-.018.009-.013.005-.015.008-.037a2 2 0 0 0 .022-.147 5 5 0 0 0 .035-.807 1 1 0 0 0-.022-.16.4.4 0 0 0-.03-.08q-.021-.005-.042-.007l-.04-.002h-.008a.5.5 0 0 0-.09.01.4.4 0 0 0-.073.026.6.6 0 0 0-.192.144l-.074.08-.061.071a1 1 0 0 1-.102.108.5.5 0 0 1-.145.096l-.028.01-.02.006a2 2 0 0 1-.357.076l-.09.01-.03.005-.088.015a.5.5 0 0 0-.219.111l-.03.026-.082.063-.07.05q-.063.04-.128.078a1 1 0 0 0-.09.058 2 2 0 0 0-.202.163.6.6 0 0 0-.096.124l-.016.032-.016.036-.023.044a.3.3 0 0 1-.119.114 1 1 0 0 1-.11.05q-.09.034-.185.052a.8.8 0 0 1-.274.005l-.096-.014-.02-.003a.3.3 0 0 0-.105.002.2.2 0 0 0-.05.023.5.5 0 0 0-.135.14.4.4 0 0 0-.051.144 1 1 0 0 0-.009.094l-.002.043-.001.023-.008.071a.47.47 0 0 1-.106.246.5.5 0 0 1-.102.1.4.4 0 0 1-.085.043l-.025.01q-.004 0-.008.003l-.008.004-.002.003-.003.005-.009.016a.3.3 0 0 0-.016.049.2.2 0 0 0-.003.061.25.25 0 0 0 .056.122l.042.051.028.032.067.07.015.016c.04.043.08.088.109.14a.34.34 0 0 1 .043.148.3.3 0 0 1-.039.148.7.7 0 0 1-.12.16l-.052.053-.072.071-.045.046a2 2 0 0 0-.085.098l-.022.031a.5.5 0 0 0-.067.147.3.3 0 0 0-.007.057l-.002.037a5 5 0 0 1-.023.304q-.019.16-.053.316a2 2 0 0 1-.161.462 2 2 0 0 1-.135.227l-.067.093-.085.11-.024.033a5 5 0 0 1-.214.267 15 15 0 0 1-.416.478l-.252.279q-.311.342-.628.68l-.016.018zm1.519-.425.014-.007a3.5 3.5 0 0 0 .484-.3 2 2 0 0 0 .201-.173l.047-.046.028-.026a5 5 0 0 1 .466-.403 4.8 4.8 0 0 1 1.395-.737 5 5 0 0 1 .624-.16l.024-.001h.01q.06.003.118.011l.14.02.029.005a3 3 0 0 0 .268.023 1 1 0 0 0 .094-.007.3.3 0 0 0 .055-.016l.018-.011a.2.2 0 0 0 .053-.06.3.3 0 0 0 .022-.057 1 1 0 0 0 .02-.142q0-.038.004-.074l.003-.038.002-.025a.44.44 0 0 1 .062-.188.3.3 0 0 1 .071-.07l.047-.029a4 4 0 0 0 .224-.153 1 1 0 0 0 .089-.083.15.15 0 0 0 .037-.088l.001-.058-.003-.082-.001-.027-.008-.027-.017-.03-.025-.038-.033-.047-.011-.017a.6.6 0 0 1-.12-.337l-.001-.04a.85.85 0 0 1 .083-.337 1.5 1.5 0 0 1 .133-.241.18.18 0 0 1 .115-.065.3.3 0 0 1 .148.021.6.6 0 0 1 .104.048l.118.064q.039.022.077.04a.4.4 0 0 0 .058.024l.013-.045.009-.046q0-.008.003-.014l.01-.042a.3.3 0 0 1 .056-.094l.017-.017q.102-.104.198-.212l.14-.155q.06-.07.124-.136l.007-.008-.003-.039-.002-.02-.002-.038v-.06a.7.7 0 0 1 .048-.252q.023-.066.053-.13t.06-.127a5 5 0 0 1 .125-.226l.026-.044.002-.005.009-.02a.2.2 0 0 0-.002-.116l-.016-.043a.4.4 0 0 0-.065-.106.4.4 0 0 0-.091-.081.2.2 0 0 0-.038-.019l-.025-.005h-.013l-.035.015a4 4 0 0 1-.229.084 3 3 0 0 1-.353.087 1.4 1.4 0 0 1-.371.015l-.014.074-.002.008a.4.4 0 0 1-.028.075.3.3 0 0 1-.084.094.45.45 0 0 1-.188.071l-.033.007-.054.008-.067.01-.033.005-.082.016a.5.5 0 0 0-.158.063l-.003.005-.014.043-.012.053q-.013.072-.021.144l-.02.199q-.012.11-.02.22l-.007.068a8 8 0 0 1-.034.298l-.008.057-.003.024a3 3 0 0 0-.016.172l-.006.093a2 2 0 0 1-.015.146 1.3 1.3 0 0 1-.124.364.5.5 0 0 1-.117.125.5.5 0 0 1-.105.054.6.6 0 0 1-.202.041 1 1 0 0 1-.17-.001l-.132-.011-.167-.016-.19-.016a3 3 0 0 0-.215-.005l-.082.008-.023.007h-.001a.15.15 0 0 0-.05.056.5.5 0 0 0-.04.131.6.6 0 0 0 .002.202.9.9 0 0 0 .1.304l.002.003.002.004.013.038-.003.04-.018.036a3 3 0 0 1-.203.22 7 7 0 0 1-.27.246q-.146.124-.294.246-.222.182-.445.361l-.055.045-.192.158q-.088.075-.174.151l-.025.017-.029.01h-.008a.3.3 0 0 0-.091.032 1 1 0 0 0-.107.057 4 4 0 0 0-.29.212q-.112.09-.218.186-.112.1-.222.204-.27.256-.532.52l-.253.252.162-.048-.026.011.112-.048.153-.066a9 9 0 0 1 .326-.133 3 3 0 0 1 .201-.067m-5.516-.784h-7.539l.066.032q.417.201.853.36a8.6 8.6 0 0 0 2.015.462 8.2 8.2 0 0 0 2.439-.115 8.5 8.5 0 0 0 1.213-.336 9 9 0 0 0 .953-.403m7.087-6.611-.039.003a.3.3 0 0 0-.067.017.2.2 0 0 0-.082.056.3.3 0 0 0-.047.081.6.6 0 0 0-.035.126l-.013.07-.016.099-.03.15a1 1 0 0 1-.163.343 4 4 0 0 1-.148.196l-.106.131a7 7 0 0 0-.154.203 1 1 0 0 0-.068.112.3.3 0 0 0-.027.087.5.5 0 0 0 .017.242l.023.066.028.072.029.084q.015.05.017.104a.36.36 0 0 1-.039.181.4.4 0 0 1-.12.148.6.6 0 0 1-.194.103l-.078.027-.088.027-.106.039-.042.021a.2.2 0 0 0-.051.044.1.1 0 0 0-.019.036l-.003.009-.005.012a.7.7 0 0 1-.198.281l-.072.066-.014.014-.049.052a.15.15 0 0 0-.035.127.3.3 0 0 0 .016.06l.013.035q.023.057.048.112l.07.147.076.154.106.228q.019.045.035.093a.5.5 0 0 1 .031.173 2 2 0 0 1 .001.175q-.005.106-.02.21a3 3 0 0 1-.102.469 4.4 4.4 0 0 1-.243.653 3 3 0 0 1-.169.314 2 2 0 0 1-.167.23 1 1 0 0 1-.1.104l-.08.076a8 8 0 0 1-.26.226 17 17 0 0 1-.384.312l.001.05q.001.01.005.02.006.018.017.033.015.02.033.04l.04.044.009.01.011.014-.016.017q.283-.303.561-.61a32 32 0 0 0 .593-.674 7 7 0 0 0 .186-.23l.03-.042.027-.034.042-.055.026-.034a3 3 0 0 0 .113-.162 2 2 0 0 0 .107-.2q.08-.187.12-.385a3 3 0 0 0 .057-.431l.005-.094.003-.06v-.009a.6.6 0 0 1 .039-.169 1 1 0 0 1 .043-.089 1 1 0 0 1 .097-.133q.056-.066.118-.125l.052-.051.092-.099a.4.4 0 0 0 .06-.088.1.1 0 0 0 .008-.03.1.1 0 0 0-.011-.044.3.3 0 0 0-.029-.045l-.043-.051-.048-.051-.032-.034-.016-.017-.049-.055a.7.7 0 0 1-.11-.178.4.4 0 0 1-.021-.175.4.4 0 0 1 .103-.226.2.2 0 0 1 .054-.035q.026-.011.053-.02l.035-.019a.2.2 0 0 0 .048-.045.5.5 0 0 0 .052-.079.3.3 0 0 0 .017-.05l.011-.079q.004-.04.005-.083l.002-.023.008-.08a.6.6 0 0 1 .08-.221.7.7 0 0 1 .196-.203.4.4 0 0 1 .115-.053.4.4 0 0 1 .112-.012q.047.002.093.01l.063.01a1 1 0 0 0 .15.01 1 1 0 0 0 .108-.014 1 1 0 0 0 .22-.079l.023-.018a.1.1 0 0 0 .022-.037l.016-.035a1 1 0 0 1 .065-.115.8.8 0 0 1 .148-.16 9 9 0 0 0-.007-.3l-.01-.126-.003-.005-.017-.024-.023-.027a3 3 0 0 0-.165-.154q-.069-.06-.138-.116l-.03-.026-.07-.062-.059-.064a.5.5 0 0 1-.056-.1q-.026-.06-.047-.123l-.035-.088a.4.4 0 0 0-.04-.064.1.1 0 0 0-.037-.029.1.1 0 0 0-.055-.01zM9.077 34.877a3 3 0 0 0-.543.057h-.006l.01.005.012.005.032.015a.6.6 0 0 1 .137.092l.024.025a2.2 2.2 0 0 1 .334.46q.075.136.134.28c.082.2.146.408.213.614l.02.065.064.185q.046.131.101.26a3 3 0 0 0 .229.422 2.4 2.4 0 0 0 .331.395l.07.066a17 17 0 0 0 .41.368q.36.314.742.602.339.257.693.492.373.246.765.461.336.186.688.337a6 6 0 0 0 .586.215l-.03-.1a5 5 0 0 0-.121-.338l-.03-.024a25 25 0 0 1-.732-.618q-.39-.344-.762-.707a15 15 0 0 1-.682-.71q-.297-.33-.565-.685a7 7 0 0 1-.382-.553 5 5 0 0 1-.294-.536 4 4 0 0 1-.188-.486 1.4 1.4 0 0 1-.05-.33v-.005l-.01-.006a2.23 2.23 0 0 0-1.187-.322zm4.697 4.571-.004-.007-.002-.003-.003-.005v-.001l-.002-.003-.004-.006-.004-.006v-.002a2 2 0 0 0-.144-.214l-.019-.039v-.043l.015-.036a4 4 0 0 1-.16-.462 5 5 0 0 1-.074-.3 7 7 0 0 1-.083-.505q-.039-.309-.068-.618l-.01-.093a10 10 0 0 0-.065-.5 5 5 0 0 0-.11-.517 4 4 0 0 0-.185-.522 4 4 0 0 0-.237-.448l-.054-.087a28 28 0 0 0-.357-.554 13 13 0 0 0-.963-1.267 21 21 0 0 0-.42-.48l-.013-.014.001.093q.001.093-.004.184a5 5 0 0 1-.049.48q-.027.187-.064.371l-.083.405-.015.073a9 9 0 0 0-.059.32q-.021.127-.033.256a2 2 0 0 0-.011.25 1.5 1.5 0 0 0 .045.339 2 2 0 0 0 .044.136q.048.132.106.261.104.23.232.447.15.251.32.49.238.33.502.638.276.32.572.625.309.317.633.618.396.367.81.713v.002l.004.006.004.006.002.004.004.007v.001zl.003.005-.001-.002zm.858-.103-.01-.004q.036-.12.062-.242.053-.245.077-.495.025-.27.025-.543a7 7 0 0 0-.032-.666 8 8 0 0 0-.207-1.206 2 2 0 0 0-.057-.182 3 3 0 0 0-.145-.33c-.072-.142-.152-.279-.231-.417l-.031-.054a7 7 0 0 1-.138-.255 3.5 3.5 0 0 1-.207-.504l-.015-.053-.012-.043-.014-.049-.02-.068a20 20 0 0 0-.374-1.169 8 8 0 0 0-.112-.296v.002a1 1 0 0 1-.092.242 2 2 0 0 1-.082.143l-.06.094-.113.172a2 2 0 0 0-.132.24 1.5 1.5 0 0 0-.087.251 1.8 1.8 0 0 0-.047.435 2.5 2.5 0 0 0 .03.369q.089.14.176.282l.02.03a4 4 0 0 1 .258.502 4 4 0 0 1 .194.58q.07.275.11.556.035.255.06.509l.028.26.022.205q.022.195.053.388.023.148.056.295a4 4 0 0 0 .193.631l.05.119a49 49 0 0 1 .804.27m14.46-.687H18.66a10 10 0 0 0 1.052.67h8.33a10 10 0 0 0 1.051-.67m1.072-.883H17.587q.383.357.797.677h10.984q.412-.32.796-.677m.216-.206a12 12 0 0 0 .826-.888 14 14 0 0 0 .837-1.092q.27-.39.516-.797.325-.537.609-1.097c.39-.77.721-1.57.998-2.387a20.4 20.4 0 0 0 .802-3.227c.2-1.224.295-2.465.288-3.706a22 22 0 0 0-.355-3.832 21 21 0 0 0-.444-1.908 19 19 0 0 0-.564-1.689 18 18 0 0 0-.57-1.316 17 17 0 0 0-1.186-2.072 15 15 0 0 0-.853-1.137 14 14 0 0 0-.545-.616 11.6 11.6 0 0 0-2.194-1.826 10 10 0 0 0-1.015-.56 9 9 0 0 0-.889-.366 8.5 8.5 0 0 0-2.164-.453 8 8 0 0 0-.565-.022h-.055a8 8 0 0 0-.583.022 8.3 8.3 0 0 0-2.164.453 9 9 0 0 0-1.474.67 10 10 0 0 0-.757.472 11.6 11.6 0 0 0-2.11 1.874 13 13 0 0 0-.683.83 15 15 0 0 0-1.004 1.501q-.336.573-.626 1.17-.327.676-.598 1.376a19 19 0 0 0-.544 1.621 21 21 0 0 0-.46 1.952 22 22 0 0 0-.36 3.908 22 22 0 0 0 .294 3.678c.18 1.087.444 2.16.797 3.203.28.824.614 1.63 1.008 2.406a16.5 16.5 0 0 0 1.128 1.892 15 15 0 0 0 .837 1.09 13 13 0 0 0 .813.873zm7.322-10.457a6 6 0 0 0-.243-.358 3 3 0 0 0-.124-.158 2 2 0 0 0-.173-.18 1 1 0 0 0-.149-.104.3.3 0 0 0-.047-.02.2.2 0 0 0-.055-.009h-.004a.1.1 0 0 0-.055.013l-.021.01a.3.3 0 0 0-.073.06.3.3 0 0 0-.038.064.4.4 0 0 0-.03.14 1 1 0 0 0-.001.096q0 .051.005.102l.011.137.003.031q.007.084.003.168a.5.5 0 0 1-.022.117.3.3 0 0 1-.03.064.24.24 0 0 1-.117.095 1.4 1.4 0 0 1-.18.066l-.112.03-.057.018a.1.1 0 0 0-.038.02.1.1 0 0 0-.026.035 1 1 0 0 0-.028.097l.04.034q.079.069.15.143a1.6 1.6 0 0 1 .175.218 1 1 0 0 1 .079.16q.021.06.03.122a.5.5 0 0 1-.018.21.33.33 0 0 1-.136.173.5.5 0 0 1-.108.054l-.086.028-.071.02-.058.02-.037.016-.007.005-.006.005-.002.003-.001.006v.011l.002.016a1 1 0 0 1 .003.102.7.7 0 0 1-.028.152 1 1 0 0 1-.072.175l-.03.06a1 1 0 0 0-.059.14.5.5 0 0 0-.023.156l.002.042.004.024.005.02.008.023.022.058q.029.07.061.141a9 9 0 0 0 .206.427l.238.469.029.056.079.167q.058.141.088.29.041.21.034.424a2.5 2.5 0 0 1-.041.378q-.027.147-.067.293-.031.12-.068.238l-.042.14a4 4 0 0 0-.061.234l-.008.066-.012.043q-.04.077-.091.147a3 3 0 0 1-.376.41l-.124.113a3 3 0 0 1 .008.21 3 3 0 0 1 .14-.088 2 2 0 0 0 .12-.08l.061-.048.037-.03.013-.01a1 1 0 0 1 .114-.076l.004-.002.02-.039a19 19 0 0 1 .287-.554 7 7 0 0 1 .2-.34 2 2 0 0 1 .105-.147l.047-.052a.3.3 0 0 1 .048-.04l.035-.019.003-.003.011-.02.01-.028a.5.5 0 0 0 .02-.092 1 1 0 0 0 .01-.155q.002-.092-.004-.184a6 6 0 0 0-.107-.816 9 9 0 0 0-.1-.462l-.02-.086-.007-.027a5 5 0 0 1-.099-.53l-.024-.175-.005-.034a4 4 0 0 0-.036-.198l-.027-.08-.01-.017-.02-.038-.003-.044.016-.04a.5.5 0 0 1 .064-.078.5.5 0 0 1 .118-.082.6.6 0 0 1 .121-.043q.046-.01.093-.017l.084-.011.02-.003.024-.004a.3.3 0 0 0 .054-.015l.008-.005.005-.004.002-.004-.022-.029-.031-.035-.06-.066a3 3 0 0 1-.118-.138l-.05-.073a.5.5 0 0 1-.076-.204l-.002-.031a.3.3 0 0 1 .025-.126.2.2 0 0 1 .03-.041.2.2 0 0 1 .05-.037q.027-.015.058-.028l.05-.027a.3.3 0 0 0 .087-.09l.022-.04.039-.07.016-.027a.6.6 0 0 1 .248-.259q.049-.03.1-.055.056-.03.114-.053.08-.034.16-.065l.004-.006.008-.023a.2.2 0 0 0 .002-.06l-.008-.035-.027-.075-.02-.044-.027-.058-.025-.054a.5.5 0 0 1-.041-.2.3.3 0 0 1 .032-.107m-.807 6.49.075-.087q.273-.316.535-.642a10 10 0 0 0 .2-.26q.102-.137.196-.278a4 4 0 0 0 .139-.226q.054-.096.1-.198a1 1 0 0 0 .058-.149 1 1 0 0 0 .036-.168v-.008l.007-.027.013-.025.016-.021a2 2 0 0 1 .113-.137 1.7 1.7 0 0 1 .253-.226 2 2 0 0 1 .232-.15l.115-.068q.063-.036.123-.077a1 1 0 0 0 .11-.088.6.6 0 0 0 .13-.191l.013-.04q.011-.045.01-.09-.001-.06-.014-.119a2 2 0 0 0-.044-.15l-.027-.081a1 1 0 0 1-.042-.145.5.5 0 0 1-.014-.11.4.4 0 0 1 .022-.126.4.4 0 0 1 .033-.066.6.6 0 0 1 .17-.165 1 1 0 0 1 .108-.067l.082-.044.103-.052.092-.05a1 1 0 0 0 .103-.074l.018-.023a.04.04 0 0 0 .007-.019v-.012a1 1 0 0 1 .013-.138l.031-.17.045-.216.05-.233a13 13 0 0 0 .085-.425 3 3 0 0 0 .032-.248l-.002-.088-.002-.023a1 1 0 0 0-.032-.14.3.3 0 0 0-.07-.116.2.2 0 0 0-.053-.037q-.04-.02-.08-.035l-.017-.007a.4.4 0 0 1-.078-.044l-.014-.011-.022-.02a.8.8 0 0 1-.175-.237 1 1 0 0 1-.063-.174 2 2 0 0 1-.034-.171l-.014-.118-.012-.113-.014-.113-.022-.081-.01-.019-.013-.016a.1.1 0 0 0-.039-.013h-.012a.8.8 0 0 0-.33.118q-.06.039-.116.084c-.081.067-.155.142-.23.216l-.029.03a1.6 1.6 0 0 1-.23.19 2 2 0 0 1-.164.099l-.129.07-.032.019a1.2 1.2 0 0 0-.193.129.6.6 0 0 0-.108.12l-.005.011-.003.026a.2.2 0 0 0 .011.051l.034.08.035.076.014.03a.6.6 0 0 1 .057.211.35.35 0 0 1-.028.15.3.3 0 0 1-.046.076l-.02.02-.025.012-.012.005-.024.01-.034.013a3 3 0 0 0-.23.1 1 1 0 0 0-.084.048.5.5 0 0 0-.122.113 1 1 0 0 0-.05.081l-.038.068-.025.045a.6.6 0 0 1-.08.104.5.5 0 0 1-.127.092l-.058.027-.01.005v.006l-.002.015q.001.036.016.07a.8.8 0 0 0 .117.177q.023.028.05.055l.061.067.066.077a.3.3 0 0 1 .034.053.2.2 0 0 1 .018.082.3.3 0 0 1-.022.086.22.22 0 0 1-.097.105.4.4 0 0 1-.158.046l-.035.005-.053.006-.023.004-.028.004-.022.005a.4.4 0 0 0-.121.046l-.032.025.004.01a.6.6 0 0 1 .035.12q.013.057.022.115l.02.13.019.135.006.041a8 8 0 0 0 .06.353l.031.138.023.092.01.04a10 10 0 0 1 .09.411 9 9 0 0 1 .09.58 5 5 0 0 1 .031.42q.002.084-.003.17a1 1 0 0 1-.035.218l-.008.021a.3.3 0 0 1-.084.13.2.2 0 0 1-.055.033l-.027.026a1 1 0 0 0-.076.098l-.045.069a9 9 0 0 0-.233.405q-.077.145-.152.292l-.013.025.114-.014.034-.005a2 2 0 0 0 .161-.028q.048-.01.094-.023m.913-.574a2 2 0 0 0 .138-.218l.032-.056.045-.081.023-.04a2 2 0 0 1 .186-.272.6.6 0 0 1 .117-.103.8.8 0 0 1 .314-.11 2 2 0 0 1 .164-.027l.119-.015c.12-.016.24-.034.357-.068a1 1 0 0 0 .158-.058l.021-.014a.1.1 0 0 0 .026-.032l.007-.021.005-.025.005-.049.011-.066a.35.35 0 0 1 .12-.192.3.3 0 0 1 .103-.057.6.6 0 0 1 .26-.03l.066.004.103.007a2 2 0 0 0 .176 0 .4.4 0 0 0 .064-.01.2.2 0 0 0 .046-.018l.003-.003.01-.017.01-.022.02-.054a1 1 0 0 0 .043-.165 3 3 0 0 0 .041-.274 3 3 0 0 0 .014-.338q0-.015-.004-.03a.2.2 0 0 0-.027-.065.5.5 0 0 0-.078-.097l-.032-.032-.058-.056a1 1 0 0 1-.077-.082l-.05-.073a.3.3 0 0 1-.034-.09.26.26 0 0 1 .014-.15.4.4 0 0 1 .051-.093.5.5 0 0 1 .112-.114.9.9 0 0 1 .27-.132q.075-.023.152-.042l.078-.018a2 2 0 0 0 .128-.038.3.3 0 0 0 .047-.022l.006-.006.005-.01a.3.3 0 0 0 .028-.121.2.2 0 0 0-.01-.051.3.3 0 0 0-.026-.057q-.029-.045-.06-.088l-.043-.066a.3.3 0 0 1-.032-.183.3.3 0 0 1 .017-.06.4.4 0 0 1 .044-.08q.05-.064.11-.121l.056-.064a.2.2 0 0 0 .021-.039l.002-.009.004-.016.018-.107a9 9 0 0 0 .08-.674 5 5 0 0 0 .014-.253q0-.033-.002-.065a.3.3 0 0 0-.066-.01q-.036 0-.074.003a1.4 1.4 0 0 0-.21.045q-.09.03-.178.065a3 3 0 0 0-.382.186q-.001.06-.008.118a3 3 0 0 1-.05.314l-.045.22-.07.322-.012.055a7 7 0 0 0-.066.353l-.006.084v.005a.3.3 0 0 1-.007.053.3.3 0 0 1-.022.056.4.4 0 0 1-.143.144 1 1 0 0 1-.09.054l-.07.037-.102.053a2 2 0 0 0-.13.071 1 1 0 0 0-.082.058.4.4 0 0 0-.054.053.2.2 0 0 0-.034.061.1.1 0 0 0-.004.038 1 1 0 0 0 .02.113l.025.08.028.08q.023.07.042.14a.8.8 0 0 1 .027.193.55.55 0 0 1-.054.243.7.7 0 0 1-.163.229q-.062.059-.132.107-.068.045-.14.087l-.114.067-.136.084a1.8 1.8 0 0 0-.293.244 2 2 0 0 0-.104.125l-.003.003-.002.016a1 1 0 0 1-.057.223q-.03.082-.066.16a3 3 0 0 1-.115.218 4 4 0 0 1-.142.225q-.088.133-.184.26a10 10 0 0 1-.243.314.6.6 0 0 1 .158-.022h.023M10.6 32.985a3 3 0 0 0 0-.327l-.005-.004a7 7 0 0 1-.402-.454 11 11 0 0 1-.863-1.203 10 10 0 0 1-.386-.68 9 9 0 0 1-.31-.666 7 7 0 0 1-.222-.614 5.5 5.5 0 0 1-.204-.963l-.008-.076a2 2 0 0 1 .034-.452 1.9 1.9 0 0 0-.868-.47 2.5 2.5 0 0 0-.356-.059 4 4 0 0 0-.482-.014h-.01l.01.007.011.008a1 1 0 0 1 .13.113l.025.033.018.03a2 2 0 0 1 .137.25 2.7 2.7 0 0 1 .187.528q.04.157.07.318l.039.223.038.233q.015.098.034.197.029.156.065.31.031.127.071.25a2.8 2.8 0 0 0 .241.536l.045.072.04.06a10 10 0 0 0 .355.502q.367.488.792.929.324.334.682.632.246.206.508.389a7 7 0 0 0 .584.362m.568-.176q-.006-.141.01-.282.024-.188.072-.374.057-.222.128-.439a23 23 0 0 1 .15-.453l.022-.067q.048-.145.093-.292.07-.222.127-.446.058-.223.098-.449.043-.231.061-.466a4 4 0 0 0-.205-1.62l-.07-.18-.09-.22a6 6 0 0 1-.099-.258 2.2 2.2 0 0 1-.113-.64 2.6 2.6 0 0 1 .022-.487l.026-.147.005-.03.014-.1v-.003a2 2 0 0 1-.2.242l-.08.085a5 5 0 0 0-.161.185 1.6 1.6 0 0 0-.2.324 2 2 0 0 0-.156.616q-.007.06-.011.12a7 7 0 0 1 .104.288 4.3 4.3 0 0 1 .192.899q.027.24.032.48.005.282-.007.563-.008.192-.02.384l-.02.321q-.02.302-.028.603-.01.33.014.66a5 5 0 0 0 .097.676 4 4 0 0 0 .115.418zm-.387-.43-.01-.044a5 5 0 0 1-.06-.34 6 6 0 0 1-.054-.66 9 9 0 0 1 .007-.558q.016-.354.04-.707l.007-.12q.012-.2.019-.4a8 8 0 0 0 0-.53 5 5 0 0 0-.037-.464 4.3 4.3 0 0 0-.296-1.11 7 7 0 0 0-.283-.63q-.188-.363-.4-.711l-.198-.327-.213-.35-.1-.168-.028-.044-.001.01a4 4 0 0 1-.048.24q-.057.248-.138.49c-.084.255-.18.505-.276.756l-.028.073q-.06.159-.115.32-.045.132-.083.27a3 3 0 0 0-.058.254 1.7 1.7 0 0 0-.022.36 2 2 0 0 0 .014.126 4.6 4.6 0 0 0 .148.72q.067.24.153.473.094.255.206.5.125.277.269.544a10 10 0 0 0 .655 1.059 11 11 0 0 0 .513.673q.11.13.223.258l.014.016-.012.022.014-.025.034-.026.042-.01.043.008.035.025q.014.013.025.028zm26.563-11.697a2 2 0 0 1-.205-.103 1 1 0 0 1-.15-.11.5.5 0 0 1-.066-.075l-.025-.04a4 4 0 0 0-.104-.154 2 2 0 0 0-.13-.158l-.063-.052-.031-.016a.1.1 0 0 0-.028-.005.1.1 0 0 0-.046.012l-.03.018-.033.026a1 1 0 0 0-.075.077l-.022.031a.1.1 0 0 0-.009.033l.002.018.005.018.013.03.023.049.041.077a3 3 0 0 1 .101.218 2 2 0 0 1 .043.128q.018.075.028.15.01.085.015.171.006.093.008.186l.006.19.002.058a8 8 0 0 0 .017.31v.006a.3.3 0 0 1-.004.063.23.23 0 0 1-.057.11.3.3 0 0 1-.046.041q-.052.037-.11.067l-.017.01a.4.4 0 0 0-.063.047.2.2 0 0 0-.052.076v.005l.012.039.02.05.033.07.033.066.01.023q.033.067.06.137a.6.6 0 0 1 .03.112.36.36 0 0 1-.01.167.7.7 0 0 1-.09.217q-.01.021-.024.041l-.04.064a1 1 0 0 0-.043.08.2.2 0 0 0-.012.044.1.1 0 0 0 .006.044l.013.024q.011.016.028.029a.3.3 0 0 0 .063.036l.073.028.06.02.026.01.052.02a.4.4 0 0 1 .147.102.2.2 0 0 1 .042.096l.003.02.012.092a4 4 0 0 1 .026.408q.002.124.002.25v.031a3 3 0 0 0 .009.157.4.4 0 0 0 .012.062l.005.01.013.017.013.017.088.12q.125.174.241.354.119.184.224.375.1.18.184.367a3.7 3.7 0 0 1 .208.603 3 3 0 0 1 .059.323v.006q.035-.03.07-.054.053-.035.107-.067a12 12 0 0 0 .048-.548 4 4 0 0 0 .004-.23l-.002-.04-.003-.036v-.093l.002-.105.007-.183a8 8 0 0 0 .007-.384 3 3 0 0 0-.03-.41 1 1 0 0 0-.046-.187.54.54 0 0 0-.127-.2l-.066-.07-.057-.058-.026-.027a2 2 0 0 1-.133-.154 1.3 1.3 0 0 1-.107-.169.5.5 0 0 1-.056-.199.4.4 0 0 1 .038-.185.5.5 0 0 1 .074-.111q.035-.04.073-.078l.055-.052.03-.03.034-.038a.4.4 0 0 0 .033-.046.2.2 0 0 0 .025-.064.2.2 0 0 0 .002-.04l-.01-.021-.034-.068-.06-.113-.073-.132a6 6 0 0 1-.166-.333 2 2 0 0 1-.053-.13 1.5 1.5 0 0 1-.096-.506 1 1 0 0 1 .049-.284l.014-.037a.3.3 0 0 1 .07-.088.3.3 0 0 1 .08-.042l.074-.02.05-.01a1 1 0 0 0 .136-.038 1 1 0 0 0 .123-.06h.002a.1.1 0 0 0 .003-.046.14.14 0 0 0-.04-.072.3.3 0 0 0-.051-.047l-.068-.048a1 1 0 0 0-.122-.069l-.095-.049-.023-.012a1 1 0 0 1-.12-.075.3.3 0 0 1-.072-.085m1.423-1.994h-.036l-.021.002-.017.002a.2.2 0 0 0-.04.013.2.2 0 0 0-.091.088 1 1 0 0 0-.05.096q-.027.06-.046.124l-.03.094-.033.117a3 3 0 0 1-.073.215 1 1 0 0 1-.085.151l-.044.057-.046.058q-.12.154-.237.31a8 8 0 0 0-.16.223 4 4 0 0 0-.176.285l-.039.08a.3.3 0 0 0 .047.033l.073.04.087.045a3 3 0 0 1 .177.104.7.7 0 0 1 .108.09.4.4 0 0 1 .084.125.3.3 0 0 1 .02.156.3.3 0 0 1-.027.096v.002l-.017.026-.022.02-.016.01a1 1 0 0 1-.246.11l-.077.02-.07.015-.041.01-.022.008-.01.006-.007.011-.008.021a.7.7 0 0 0-.035.264q.003.095.024.188.025.106.063.207.045.118.101.23.084.164.173.327l.03.053.088.176.009.03v.005a.5.5 0 0 1 0 .096.4.4 0 0 1-.053.15.6.6 0 0 1-.085.11q-.048.049-.1.098l-.015.015a1 1 0 0 0-.068.078.2.2 0 0 0-.04.094.23.23 0 0 0 .027.13l.03.058.026.04q.043.065.094.122.038.045.079.086l.073.075a1.2 1.2 0 0 1 .198.257 1.1 1.1 0 0 1 .094.335q.01.072.016.144.01.138.011.278a7 7 0 0 1-.004.303l-.01.238-.001.06v.147q0 .014.002.027v.02q.004.077.002.153 0 .075-.006.15a9 9 0 0 1-.03.373l-.001.012.044-.09.108-.217c.08-.166.162-.332.238-.5a7 7 0 0 0 .227-.566 3 3 0 0 0 .079-.289q.017-.082.024-.165v-.008l.005-.024a3 3 0 0 1 .156-.388 6 6 0 0 1 .25-.472l.082-.146q.015-.03.032-.057.076-.138.145-.28a2 2 0 0 0 .097-.24 1 1 0 0 0 .039-.193.4.4 0 0 0-.031-.195 1 1 0 0 0-.038-.09 2 2 0 0 0-.065-.124l-.052-.092-.019-.033a2 2 0 0 1-.063-.126 1 1 0 0 1-.033-.096.4.4 0 0 1-.01-.152.6.6 0 0 1 .032-.127 1 1 0 0 1 .055-.115q.057-.095.123-.184l.014-.02a1 1 0 0 0 .053-.087.3.3 0 0 0 .02-.05.1.1 0 0 0 .004-.043l-.005-.021-.026-.062-.034-.062a1 1 0 0 0-.065-.09l-.046-.06-.08-.11a1.3 1.3 0 0 1-.116-.216.7.7 0 0 1-.03-.137 1 1 0 0 1-.01-.162q-.002-.092.004-.184l.015-.22.014-.17a9 9 0 0 0 .023-.44 3 3 0 0 0-.011-.247 1.4 1.4 0 0 0-.034-.195.7.7 0 0 0-.133-.27.5.5 0 0 0-.102-.088.5.5 0 0 0-.125-.056.8.8 0 0 0-.243-.033zm-28.384 2.437q-.026.175-.057.35-.099.56-.202 1.117l-.032.173q-.085.463-.159.928-.06.387-.104.775a10 10 0 0 0-.06.893q-.005.22.002.44l.004.006a30 30 0 0 1 .324.549q.04-.187.092-.37a7 7 0 0 1 .126-.39q.083-.234.176-.465.1-.248.204-.494l.18-.428a52 52 0 0 0 .309-.753q.069-.174.135-.349l.07-.184q.062-.164.12-.332.07-.193.121-.39a2.7 2.7 0 0 0 .065-.992 5 5 0 0 0-.037-.307l-.025-.172a4 4 0 0 1-.038-.352 2 2 0 0 1 .012-.3v-.002l-.02.014-.02.015a3 3 0 0 1-.216.138l-.11.066a5 5 0 0 0-.265.172q-.136.096-.256.209a2 2 0 0 0-.335.411zm29.2-.435a1 1 0 0 0 .013.094.4.4 0 0 0 .052.125 1 1 0 0 0 .117.172l.052.068q.038.047.07.098a.8.8 0 0 1 .093.195.3.3 0 0 1 .007.125.6.6 0 0 1-.055.151q-.03.055-.066.105l-.05.072q-.039.052-.07.108a1 1 0 0 0-.038.082.4.4 0 0 0-.022.115q.001.02.007.04l.018.054.027.058.042.078.052.091.08.151a.9.9 0 0 1 .085.274.6.6 0 0 1-.002.16 1 1 0 0 1-.041.187 3 3 0 0 1-.11.274 5 5 0 0 1-.151.29l-.131.235-.033.06a7 7 0 0 0-.194.37 3 3 0 0 0-.14.346l-.002.004-.002.022-.002.02q-.012.105-.037.208a3 3 0 0 1-.103.34 9 9 0 0 1-.362.832l.062-.108.098-.174.05-.09q.104-.182.216-.36a4 4 0 0 1 .197-.29 2.3 2.3 0 0 1 .254-.285.8.8 0 0 1 .2-.128q.073-.034.15-.063l.104-.04.104-.041q.068-.029.131-.064a1 1 0 0 0 .24-.183 1 1 0 0 0 .08-.094.37.37 0 0 0 .075-.198q.004-.059 0-.116v-.1a.7.7 0 0 1 .025-.152.6.6 0 0 1 .08-.16 1 1 0 0 1 .06-.068 2 2 0 0 1 .247-.186l.112-.074q.038-.023.073-.05l.043-.029.003-.002.019-.024.023-.043a.65.65 0 0 0 .043-.3 1 1 0 0 0-.054-.252l-.006-.017-.012-.027a1 1 0 0 0-.053-.08l-.08-.092-.072-.08-.075-.087a.9.9 0 0 1-.16-.276.5.5 0 0 1-.01-.241.6.6 0 0 1 .068-.17l.062-.112.072-.125.017-.031.035-.067a1 1 0 0 0 .044-.116.6.6 0 0 0 .013-.156 1 1 0 0 0-.007-.09 2 2 0 0 0-.033-.184l-.027-.113a5 5 0 0 0-.2-.61 3 3 0 0 0-.133-.268 1 1 0 0 0-.075-.107.3.3 0 0 0-.054-.049l-.012-.005-.01.001-.023.01-.024.017a.6.6 0 0 0-.105.139 2 2 0 0 0-.067.124l-.047.09-.02.038a2 2 0 0 1-.07.127 1 1 0 0 1-.102.139l-.029.03-.043.042q-.072.069-.148.134a8 8 0 0 1-.353.29zl-.002-.01zM7.064 19.552a4 4 0 0 1 .033.378q0 .062-.003.124l-.005.058q-.013.153-.029.306-.023.238-.05.475l-.01.113a9 9 0 0 0-.053.78 5 5 0 0 0 .04.653 4 4 0 0 0 .13.583q.04.142.089.282a5.7 5.7 0 0 0 .468 1.015 5.3 5.3 0 0 0 .62.84 6 6 0 0 0 .554.549l-.006.019v.001l.006-.02a6 6 0 0 0 .08-.309 12 12 0 0 1-.572-1.594 9 9 0 0 1-.187-.812 7 7 0 0 1-.096-.743 5.3 5.3 0 0 1 .02-1.021l.001-.004-.006-.02a2 2 0 0 0-.094-.268 3.5 3.5 0 0 0-.404-.689 9 9 0 0 0-.19-.257l-.162-.213-.175-.234zm1.928 5.47q.007-.059.01-.118l.001-.007.012-.041.028-.033.04-.019h.042l.04.016.03.032.075.124.174.29.115.19c.004-.366.031-.73.073-1.092.048-.419.114-.835.187-1.25l.1-.56.089-.483a76 76 0 0 0 .143-.811q.024-.14.043-.28.028-.201.04-.404a3.6 3.6 0 0 0-.05-.862l-.046-.266-.068-.332-.08-.377-.004.005a3 3 0 0 1-.121.198 4 4 0 0 1-.24.322c-.156.191-.325.37-.493.551a15 15 0 0 0-.266.297l-.126.154a3 3 0 0 0-.183.262 2 2 0 0 0-.178.369 1.6 1.6 0 0 0-.076.32l-.007.05a4.3 4.3 0 0 0-.031.698q.006.25.035.5.03.268.08.532.048.266.115.527a10 10 0 0 0 .353 1.13q.069.185.144.368m26.888-9.9-.022-.03a1.7 1.7 0 0 0-.218-.232 2 2 0 0 0-.197-.154 3.7 3.7 0 0 0-.676-.364h-.002l-.023.005-.036.013-.053.02a.3.3 0 0 1-.14.029l-.062-.006a1 1 0 0 1-.137-.032l-.1-.028a2 2 0 0 0-.168-.04 1 1 0 0 0-.096-.01q-.03 0-.06.007a.1.1 0 0 0-.034.013.1.1 0 0 0-.036.043v.016l.005.022q.006.018.016.035a.4.4 0 0 0 .048.07 1 1 0 0 0 .068.08l.058.062.02.022.06.071a.4.4 0 0 1 .054.105l.011.048c.01.057.008.115.01.173l.005.076a.2.2 0 0 0 .017.054.4.4 0 0 0 .054.08q.035.042.073.081l.077.082.018.02.05.054q.046.053.088.11a1 1 0 0 1 .108.202l.001.004c.002.013.007.026.006.04a.1.1 0 0 1-.01.038q-.009.017-.024.033l-.01.009-.04.043a.53.53 0 0 0-.12.398.34.34 0 0 0 .076.172l.012.008q.054.04.102.086.071.07.132.148.04.052.079.107l.076.11.014.02q.037.054.078.104a.4.4 0 0 0 .044.044.2.2 0 0 0 .129.05l.042.005a.6.6 0 0 1 .13.03.4.4 0 0 1 .123.083.6.6 0 0 1 .12.194l.032.077.027.072q.023.061.05.121.034.077.082.147a.7.7 0 0 0 .274.233 1 1 0 0 0 .137.057.4.4 0 0 0 .119.017l.062.002h.021a2 2 0 0 1 .347.047 1.2 1.2 0 0 1 .29.112 1.7 1.7 0 0 1 .473.38 3 3 0 0 1 .182.216 5 5 0 0 1 .257.367l.057.09.007.036-.012-.062-.012-.062a16 16 0 0 0-.131-.623 4 4 0 0 0-.082-.282 1 1 0 0 0-.067-.15l-.027-.035-.024-.021-.178-.151a12 12 0 0 1-.514-.467 5 5 0 0 1-.228-.245 2 2 0 0 1-.13-.178.4.4 0 0 1-.06-.162 1 1 0 0 1-.011-.102l-.003-.12v-.123a2 2 0 0 0-.008-.174l-.004-.018a.2.2 0 0 0-.014-.044l-.006-.01-.007-.007-.015-.005-.02-.003-.083-.012a1.4 1.4 0 0 1-.198-.05 1 1 0 0 1-.18-.08.9.9 0 0 1-.256-.214.8.8 0 0 1-.152-.308.9.9 0 0 1-.009-.391.4.4 0 0 1 .073-.161.3.3 0 0 1 .069-.056q.03-.017.063-.03a.3.3 0 0 0 .048-.03zm-25.745.04-.002-.003a.1.1 0 0 1-.019-.07c.002-.022.01-.035.02-.054l.01-.02.018-.038a7 7 0 0 0 .137-.307 5 5 0 0 0 .157-.432 3 3 0 0 0 .077-.329l.01-.065a1.3 1.3 0 0 0-.027-.48 1 1 0 0 0-.153-.314 1.6 1.6 0 0 0-.22-.24 4 4 0 0 0-.29-.237l-.003-.003-.002.006a5 5 0 0 1-.174.465 4 4 0 0 1-.087.19l-.034.07-.114.24a10 10 0 0 0-.55 1.498q-.102.359-.172.723a7 7 0 0 0-.101.763 6 6 0 0 0-.01.59l.007.115c.019.268.065.536.151.791a2.5 2.5 0 0 0 .424.767 4 4 0 0 0 .29.33l.004-.005a4 4 0 0 0 .204-.274 11 11 0 0 1-.03-.842q.003-.31.023-.617.03-.489.115-.97.078-.435.206-.857a6 6 0 0 1 .135-.39m.361 3.926.012-.019q.296-.144.586-.301a9 9 0 0 0 .37-.214 6 6 0 0 0 .335-.22q.125-.087.245-.183.102-.082.199-.174a2.2 2.2 0 0 0 .314-.369l.084-.131q.1-.154.196-.31.12-.189.23-.385c.095-.172.181-.348.266-.525l.067-.142.027-.057a18 18 0 0 1 .198-.4l.227-.433.042-.08.116-.228.006-.013-.044.006-.243.035q-.087.014-.172.033a2.3 2.3 0 0 0-1.051.527q-.132.113-.249.242l-.002.02a3.4 3.4 0 0 1-.287 1.116 4 4 0 0 1-.21.413 7 7 0 0 1-.38.584l-.12.162q-.144.192-.29.38l-.059.078a13 13 0 0 0-.268.366 6 6 0 0 0-.145.222m-.623-.571a2 2 0 0 0 .056-.124c.043-.1.063-.161.118-.163.051-.003.068.116.096.246l.059.27.068.318a5 5 0 0 1 .224-.346 8 8 0 0 1 .227-.312l.227-.296.06-.08q.182-.237.352-.485.189-.277.34-.577.081-.162.146-.332a3.3 3.3 0 0 0 .218-1.127l.02-.47.006-.113q.011-.247.028-.493.015-.202.037-.403.028-.25.079-.496a4 4 0 0 1 .187-.633l.043-.102.002-.005-.011.009-.384.29a7.6 7.6 0 0 0-.876.77 5 5 0 0 0-.262.3 4 4 0 0 0-.411.635 4 4 0 0 0-.093.196q-.05.112-.095.227-.106.272-.184.555-.082.294-.139.594a8 8 0 0 0-.098.685 9.6 9.6 0 0 0-.042 1.4zl-.006.012-.001.002zm25.714-5.788-.013.003-.019.012-.023.022-.008.015-.007.025-.003.033.003.087a2 2 0 0 0 .017.133l.015.099.005.03a4 4 0 0 1 .027.267 1 1 0 0 1-.002.131l-.011.16-.016.199a8 8 0 0 0-.018.28 4 4 0 0 0-.003.26l.005.004q.034.03.072.055l.088.064.13.097a2 2 0 0 1 .153.139l.043.051a.4.4 0 0 1 .074.161.24.24 0 0 1-.06.201.4.4 0 0 1-.108.087l-.058.028-.01.005a.1.1 0 0 0-.024.016l-.008.012-.009.018-.008.025-.007.032a.67.67 0 0 0 .053.397.6.6 0 0 0 .206.239.9.9 0 0 0 .292.127 1 1 0 0 0 .155.028l.02.002h.004a.3.3 0 0 1 .073.023.23.23 0 0 1 .087.074.36.36 0 0 1 .06.168 1 1 0 0 1 .01.125v.181a2 2 0 0 0 .014.212.3.3 0 0 0 .021.065l.01.018a1 1 0 0 0 .071.1q.048.06.1.118.057.064.119.125a7 7 0 0 0 .239.23q.173.156.35.307l.15.128a.3.3 0 0 1 .053.058 1 1 0 0 1 .103.216 2 2 0 0 1 .075.249q.04.157.073.317v-.031a3 3 0 0 1 .011-.246l.008-.078.006-.059a23 23 0 0 0 .08-1.138 16 16 0 0 0 .013-.849 7 7 0 0 0-.019-.364 2 2 0 0 0-.022-.157l-.02-.068-.016-.024a.2.2 0 0 0-.04-.032l-.06-.03-.042-.02-.055-.028a.3.3 0 0 1-.068-.05.2.2 0 0 1-.054-.09.52.52 0 0 1-.023-.316c.017-.082.05-.161.086-.238l.02-.043.04-.082a2 2 0 0 0 .066-.16.4.4 0 0 0 .019-.119.2.2 0 0 0-.025-.095.2.2 0 0 0-.025-.036.6.6 0 0 0-.102-.083 1 1 0 0 0-.144-.078 3 3 0 0 0-.212-.09l-.167-.066-.045-.018a4 4 0 0 1-.227-.1 1 1 0 0 1-.16-.102.4.4 0 0 1-.047-.047.3.3 0 0 1-.057-.11.5.5 0 0 1-.02-.1q-.007-.073-.006-.148v-.043a1 1 0 0 0-.008-.104l-.009-.04-.013-.03-.011-.016-.014-.013a.4.4 0 0 0-.067-.049 1 1 0 0 0-.147-.074l-.1-.04q-.124-.044-.25-.086l-.046-.015a3 3 0 0 1-.223-.088.4.4 0 0 1-.067-.04.5.5 0 0 1-.081-.082q-.046-.058-.087-.118l-.017-.023a1 1 0 0 0-.068-.079l-.022-.017-.015-.006zm3.242 5.754.033-.311.009-.086a9 9 0 0 1 .043-.325v-.006l.01-.032a.3.3 0 0 1 .052-.087 1 1 0 0 1 .089-.09l.044-.04.021-.02a1 1 0 0 0 .077-.082.3.3 0 0 0 .043-.072l.009-.03.008-.05q.014-.084.039-.166a1 1 0 0 1 .127-.267l.062-.09.012-.016.03-.052a.3.3 0 0 0 .032-.16l-.006-.06a.5.5 0 0 0-.03-.108 1.5 1.5 0 0 0-.105-.232l-.067-.122-.099-.175-.094-.17-.038-.077a1 1 0 0 1-.055-.127.6.6 0 0 1-.035-.174.4.4 0 0 1 .028-.135.3.3 0 0 1 .097-.12l.06-.042.012-.009.02-.017v-.008a2 2 0 0 0-.023-.282 3 3 0 0 0-.113-.504 2 2 0 0 0-.089-.21.4.4 0 0 0-.056-.078l-.012-.01-.016-.014a1 1 0 0 0-.114-.081.3.3 0 0 0-.096-.033l-.038-.002h-.026l-.015-.002a.4.4 0 0 1-.102-.02.4.4 0 0 1-.114-.066l-.027-.025a.5.5 0 0 1-.084-.126 1 1 0 0 1-.04-.101 1.4 1.4 0 0 1-.049-.202l-.02-.111-.019-.125-.018-.105a1 1 0 0 0-.034-.128.2.2 0 0 0-.02-.037l-.014-.017a.4.4 0 0 0-.115-.094.6.6 0 0 0-.166-.067.4.4 0 0 0-.083-.012h-.008a.2.2 0 0 0-.04.004l-.023.009-.004.01-.005.014-.008.05-.007.077-.004.08-.002.035a2 2 0 0 1-.022.178q-.014.075-.043.146a.6.6 0 0 1-.127.194.4.4 0 0 1-.068.05.6.6 0 0 1-.136.057q-.058.017-.118.03l-.071.021a.3.3 0 0 0-.05.024q.015.054.019.11c.005.057.004.115.005.173v.02a.6.6 0 0 0 .017.127.1.1 0 0 0 .024.044l.013.013.023.018a.5.5 0 0 0 .095.056 2 2 0 0 0 .183.082l.21.083.045.018a5 5 0 0 1 .223.096q.055.026.108.057.061.034.116.076a.5.5 0 0 1 .148.186.45.45 0 0 1 .015.291 1 1 0 0 1-.05.146q-.04.09-.084.176l-.011.024a2 2 0 0 0-.053.125.5.5 0 0 0-.029.194.3.3 0 0 0 .025.091l.003.008.004.004.007.005.022.013.037.019q.019.007.038.017l.013.006a1 1 0 0 1 .086.048.4.4 0 0 1 .091.09q.017.024.029.05l.025.08q.013.053.02.108a2 2 0 0 1 .02.207q.008.124.01.249a11 11 0 0 1-.005.697 19 19 0 0 1-.061 1.038l-.036.386-.005.046a.6.6 0 0 1 .143-.173.37.37 0 0 1 .221-.073zm-6.164-4.487.017-.004q.183-.056.358-.132.2-.086.39-.193a4.5 4.5 0 0 0 .703-.49 3 3 0 0 0 .264-.254l.045-.052.024-.03.057-.061a1 1 0 0 1 .136-.106q.11-.068.23-.118a3 3 0 0 1 .31-.113q.187-.059.376-.109l.276-.075q.279-.073.553-.163.183-.06.36-.133.157-.066.306-.146a2.4 2.4 0 0 0 .337-.222l.003-.003-.031-.012-.029-.012a3.7 3.7 0 0 1-.585-.322 4 4 0 0 1-.286-.211 5.4 5.4 0 0 1-.78-.792 8 8 0 0 1-.266-.344 10 10 0 0 1-.413-.607 22 22 0 0 1-.297-.476q-.196-.326-.39-.654-.04-.07-.084-.14-.195-.33-.398-.652a13 13 0 0 0-.333-.499 8 8 0 0 0-.36-.473 5 5 0 0 0-.354-.39 4 4 0 0 0-.371-.328l-.064-.048-.062-.047a15 15 0 0 0-.736-.515 19 19 0 0 0-1.196-.729 20 20 0 0 0-1.61-.813 16 16 0 0 0-1.297-.51l-.103-.034-.31-.108q-.29-.105-.575-.223-.325-.135-.639-.29a9 9 0 0 1-.754-.423 6 6 0 0 1-.539-.393 4 4 0 0 1-.21-.192 3 3 0 0 1-.266-.299 2 2 0 0 1-.241-.404l-.003-.007-.002.002a2 2 0 0 1-.126.275 2.3 2.3 0 0 1-.521.618 3 3 0 0 1-.253.202 5 5 0 0 1-.448.29q-.171.1-.348.19-.24.12-.484.229-.33.145-.668.274a20 20 0 0 1-.845.303l-.39.138q-.311.113-.619.24-.528.213-1.036.472a11 11 0 0 0-1.499.92 16 16 0 0 0-.618.469l-.064.052q-.03.023-.06.05a5 5 0 0 0-.244.223 7 7 0 0 0-.25.26 13 13 0 0 0-.782.965q-.295.397-.576.803-.314.45-.624.906l-.127.184q-.165.24-.334.48-.189.27-.385.533-.152.205-.312.404-.15.185-.309.362-.104.114-.216.22a3 3 0 0 1-.208.18 2 2 0 0 1-.17.117 1 1 0 0 1-.213.096l-.002.001q.132.114.275.215.153.108.312.208c.175.11.355.21.536.31q.22.119.44.235l.07.038q.147.079.292.162.103.06.204.123.107.068.208.145a1.7 1.7 0 0 1 .242.227l.016.02a3 3 0 0 0 .201.22q.12.12.242.233a10 10 0 0 0 .615.52q.088.068.178.13.076.054.157.103l.003.001.01-.015a16 16 0 0 1 .812-1.186 14 14 0 0 1 .94-1.114 11.8 11.8 0 0 1 2.215-1.853A10 10 0 0 1 20.1 9.25a9 9 0 0 1 .908-.378 8.8 8.8 0 0 1 2.215-.473 9 9 0 0 1 .616-.026h.056a9 9 0 0 1 .598.023 8.5 8.5 0 0 1 2.235.47 9 9 0 0 1 1.506.688 10 10 0 0 1 .725.45 11.8 11.8 0 0 1 2.177 1.93 14 14 0 0 1 .694.842 15 15 0 0 1 .837 1.221"/><path fill="#df0024" d="M23.873 30.676a.066.066 0 0 1-.116 0l-.494-.868s-1.497.132-2.454-.013c-.554-.083-.938-.277-1.117-.496a.084.084 0 0 1 .088-.133c1.358.365 2.474-.078 2.65-.29-1.363-.75-3.671-3.832-2.893-6.785.5-1.897 1.546-2.906 2.135-3.343a.065.065 0 0 1 .089.092c-.387.488-.986 1.482-1.137 3.079-.361 3.834 2.48 5.709 2.48 5.709l-.177-8.626.81-.735a.117.117 0 0 1 .157 0l.81.735-.179 8.626s2.842-1.875 2.48-5.71c-.15-1.596-.75-2.59-1.136-3.078a.065.065 0 0 1 .09-.092c.588.437 1.635 1.446 2.134 3.343.778 2.953-1.53 6.034-2.893 6.786.176.211 1.292.654 2.65.289a.084.084 0 0 1 .087.133c-.178.22-.562.413-1.116.496-.957.145-2.454.012-2.454.012zM21.09 18.453a.065.065 0 0 1 .067.11c-.69.607-2.346 2.233-2.81 4.198-.527 2.227.514 4.755.945 5.666a.089.089 0 0 1-.135.108c-.827-.698-2.956-2.877-2.035-6.18.632-2.268 3.037-3.501 3.968-3.902m5.45 0a.065.065 0 0 0-.067.11c.69.607 2.346 2.233 2.81 4.198.527 2.227-.514 4.755-.945 5.666a.089.089 0 0 0 .135.108c.827-.698 2.956-2.877 2.035-6.18-.633-2.268-3.037-3.501-3.968-3.902m-2.725-.474s-.998.465-1.66.034c-.3-.195-.489-.735-.287-1.438a.073.073 0 0 1 .144.01c.046.337.196.81.662.938.758.208 1.02-.304 1.104-.578a.041.041 0 0 1 .078-.001c.092.272.365.78 1.1.579.466-.128.615-.601.662-.937a.074.074 0 0 1 .144-.01c.201.702.012 1.242-.287 1.437-.642.418-1.598-.006-1.657-.033zm6.137-7.797c.217-.184.478-.249.57-.371 0 0 .26.194.202.398-.09.318-.627.334-.627.334.004-.108-.054-.23-.145-.361m-12.785-3.99c.034.188.045.398.123.558.113.23.45.592.56.851.092.218.12.698.021.912-.454.976-1.077.957-1.26.977-.276.03-.449-.332-.575-.574-.126-.24-.191-.793-.23-.883-.036-.084-.038.186-.013.274.072.247.145 1.32.947 1.771.523.295 1.329-.382 1.397-1.076.03-.299.041-.89-.168-1.42-.244-.623-.683-1.183-.802-1.39m14.3 2.833c-.215.376-.485.675-.868.583-.32-.39.41-1.275 1.08-2.145l.344-.285s-.05.12-.127.24c-.346.533-.9 1.126-.847 1.505.058.424.417.102.417.102m-1.807-.34c-.136.268-.635.688-.904.539-.159-.16-.092-.508.123-.855.171-.276.426-.629.443-.71-.43.197-.775.481-1.559.4-1.024-.106-2.094-.537-2.832-1.084a.49.49 0 0 1-.215-.38c-.004-.252.358-.61.444-.673-.054.122-.087.232.007.38.246.386 1.493.982 2.508 1.253.588.156 1.11.202 1.476.06.406-.158.478-.339.696-.548.205-.196.457-.499.656-.545.4-.093 1.962.057 2.945.402l-.311.112s-.496-.142-1.076-.237c-.742-.121-1.594-.203-1.63-.166-.122.131-.33.342-.39.421-.384.508-.883 1.095-.824 1.473.069.446.443.158.443.158m-13.07-.338c-.088-.296-.03-.563-.114-.713 0 0 .328-.117.513.05.289.262.048.741.048.741-.11-.064-.267-.083-.447-.078m3.695-.192c-.055-.14.017-.598.129-.688.11-.09.414.057.524.14.118-.07.077-.468.17-.531.107-.072.41.03.464.164.053.133-.04.497-.153.583-.2.026-.376-.146-.497-.103-.044.115-.092.505-.178.564-.118-.053-.174-.123-.459-.129m-.12-2.808c-.02.002-.008.189-.036.28-.053.178-.166.222-.221.423-.082.296.032.573-.045.85-.078.282-.343.635-.42.806a.4.4 0 0 0 0 .168c.188-.087.487-.346.545-.521.07-.217-.02-.626.026-.856.031-.162.192-.304.232-.447a1.2 1.2 0 0 0 .016-.427c-.013-.096-.076-.277-.097-.276m3.775-2.725s-.113 1.016.276 1c.16-.007.147-.242.147-.242.3.16.204.683-.056.91-.1.088-.22.041-.36-.01 0 0-.187.404-.148.528.064.207.343.142.428.334.148.337.073.912-.055 1.286-.152.44-.546 1.124-1.319 1.139-.203.004-.889-.147-.81-1.275.076-1.094.448-1.618.448-1.618s.005.143-.059.326c-.1.287-.267.708-.252 1.06.014.346.164.656.492.743.392.104 1.198-.1 1.45-.693.155-.37.06-.417-.164-.482-.125-.038-.287-.05-.35-.233-.041-.115.007-.33.034-.468.04-.206.205-.474.184-.808-.03-.46.002-1.24.073-1.5.005-.017.03-.042.04.003m-5.73 2.494c.01.209.02.533.079.734.095.324.368.882.47 1.147.033.088.07.265.11.416.003.01.022-.533-.086-.852-.093-.274-.267-.623-.368-.871a14 14 0 0 1-.205-.574m2.515-1.483c-.013.225-.036.576.001.799.06.36.273.992.346 1.29.024.097.043.292.067.46.002.01.078-.572.003-.928-.064-.305-.2-.701-.274-.98-.053-.2-.143-.641-.143-.641m9.162 1.91c.218-.184.48-.249.57-.371 0 0 .26.194.203.398-.09.318-.627.334-.627.334.004-.108-.054-.23-.146-.361M23.723 1.92c-.11.134-.07.42.064.413.143-.008.163-.104.196-.143.023.041.034.108.096.116.123.015.184-.217.173-.365-.002-.018-.05.169-.143.171-.055.002-.092-.071-.117-.126-.025.055-.092.159-.173.157-.051-.001-.094-.134-.096-.223"/></g></svg>