<svg xmlns="http://www.w3.org/2000/svg" width="48" height="48" viewBox="0 0 48 48"><title>Bank/Color/Saman</title><g fill="none" fill-rule="evenodd"><path fill="#7dcdf1" d="M16.437 8.38c1.864-2.736 4.52-5.493 7.407-8.087 1.671 2.003 3.132 4.514 3.655 7.412 2.069-1.189 4.399-2.177 6.855-3.001A62 62 0 0 1 39.32 3.28c-.208 3.757-.92 7.747-2.55 11.33 3.84.079 7.71 1.206 11.23 2.74-2.812 3.614-5.966 6.998-9.31 9.405h-.001c2.401 1.983 4.06 4.756 5.177 7.538-3.784 1.59-7.591 2.847-10.968 3.286.435 2.41 0 4.976-.734 7.233a46 46 0 0 1-3.536-.424c-1.751-.283-3.402-.683-4.847-1.24h-.002.002c-.818 1.795-2.236 3.344-3.682 4.558-1.896-1.18-3.704-2.535-4.988-4.023-1.323.95-2.963 1.507-4.485 1.822-.941-1.504-1.78-3.154-2.19-4.754-.872.113-1.788.064-2.678-.083a14 14 0 0 1-1.59-.355c-.209-1.552-.283-3.226-.015-4.717-1.276-.489-2.504-1.396-3.56-2.365.399-1.467.976-3.008 1.813-4.238C1.426 27.854.631 26.312 0 24.76c.978-1.24 2.184-2.475 3.518-3.246l-.01-.043c-.45-1.8-.561-3.972-.502-6.117.59-.288 1.21-.547 1.85-.763 1.054-.351 2.146-.573 3.205-.554.443-2.45 1.457-5.2 2.672-7.887 1.99.26 4.09.894 5.704 2.23"/><path fill="#00aae7" d="M19.703 14.464a37 37 0 0 1 4.322-4.327c1.04-.899 2.211-1.702 3.474-2.432.204 1.131.263 2.307.132 3.51a27.2 27.2 0 0 1-1.24 5.686 34.5 34.5 0 0 1 6.128-1.908 18.5 18.5 0 0 1 4.251-.382 20.4 20.4 0 0 1-2.24 3.802 37 37 0 0 1-4.437 4.938 24.5 24.5 0 0 1 5.513 1.54 12 12 0 0 1 3.083 1.865c-1.238.888-2.5 1.643-3.788 2.23-2.058.94-4.02 1.626-5.84 2.093a17.3 17.3 0 0 1 2.87 3.77 8.7 8.7 0 0 1 .967 2.73c-1.257.165-2.463.217-3.599.131-1.838-.135-3.505-.423-4.988-.828a14.5 14.5 0 0 1 .119 3.975 7.5 7.5 0 0 1-.65 2.292c-.9-.348-1.729-.755-2.457-1.241a19 19 0 0 1-3.112-2.56l-.006-.006.006.007a13 13 0 0 1-1.674 2.957 6.5 6.5 0 0 1-1.426 1.378 9.4 9.4 0 0 1-1.254-1.81 15.7 15.7 0 0 1-1.25-3.15 11.3 11.3 0 0 1-2.512 1.568 5.7 5.7 0 0 1-1.659.46 8 8 0 0 1-.268-1.893c-.018-1.056.079-2.08.274-3.049a10.2 10.2 0 0 1-2.707.158 5.5 5.5 0 0 1-1.582-.371 7.7 7.7 0 0 1 .511-1.714 12.8 12.8 0 0 1 1.479-2.511 10.6 10.6 0 0 1-2.453-1.22 6.5 6.5 0 0 1-1.284-1.158 6.8 6.8 0 0 1 1.167-1.333 11.5 11.5 0 0 1 2.413-1.596 13.7 13.7 0 0 1-1.743-2.598 9 9 0 0 1-.725-1.954 6 6 0 0 1 1.708-.679 10.3 10.3 0 0 1 3.01-.197 20 20 0 0 1-.421-3.906c-.017-.852.074-1.755.246-2.693a5.5 5.5 0 0 1 1.999.394A10.9 10.9 0 0 1 13 16.225a30 30 0 0 1 1.692-4.767 20 20 0 0 1 1.745-3.077 6.9 6.9 0 0 1 1.647 1.948 16.2 16.2 0 0 1 1.618 4.135"/><path fill="#006fba" d="M15.992 20.241c-.023.052.023.053 0 0v-.003c.806-1.83 2.047-3.794 3.71-5.774.502 2.09.599 4.223.319 6.203-.038.03-.04.068-.016.112l.016-.112c1.687-1.404 3.839-2.703 6.37-3.766-.841 2.511-1.995 4.731-3.324 6.526q.606-.12 1.244-.199c1.79-.22 3.745-.194 5.782.123-2.084 1.92-4.195 3.367-6.175 4.314 1.802.706 3.576 1.86 5.142 3.414-2.024.518-3.897.764-5.558.77q-.597 0-1.156-.039c.96 1.43 1.644 3.17 1.965 5.072-2.073-.569-3.82-1.378-5.184-2.348v-.001c.032 1.578-.278 3.234-.916 4.814-1.252-1.284-2.19-2.658-2.788-4.032.018-.034-.024-.056 0 0a11.4 11.4 0 0 1-2.816 3.408c-.417-1.532-.56-3.045-.435-4.45a10 10 0 0 1-3.73 1.537c.295-1.457.818-2.806 1.533-3.957.043-.004.03-.05 0 0a9 9 0 0 1-.764.035 9.4 9.4 0 0 1-3.068-.516c.869-1.154 1.903-2.108 3.03-2.796-1.147-.554-2.231-1.405-3.187-2.511a10 10 0 0 1 3.176-.967q.398-.05.798-.06c.03.045.056-.002 0 0-.767-1.192-1.358-2.681-1.722-4.4 1.496.125 2.905.584 4.104 1.33.003.052.045.028 0 0-.097-1.685.114-3.631.657-5.742a11.2 11.2 0 0 1 2.992 4.012v.003"/><path fill="#fff" d="m20.024 20.644-.003.023c-1.355 1.128-2.43 2.34-3.178 3.577a9.85 9.85 0 0 0-.851-4.003c-.66 1.5-1.044 2.934-1.132 4.246-.605-1.013-1.472-1.869-2.518-2.519.079 1.413.376 2.67.881 3.71-.982-.468-2.096-.677-3.263-.64q-.021-.03-.075.002l.075-.003c.654 1.021 1.449 1.84 2.352 2.4-1.07.127-2.14.527-3.14 1.139 1 .485 2.059.743 3.115.738-.901.65-1.684 1.522-2.312 2.54a7.8 7.8 0 0 0 3.146-.972c-.523 1.017-.839 2.17-.95 3.391a8.8 8.8 0 0 0 2.463-2.483c.008 1.16.281 2.352.79 3.525.605-1.134.98-2.339 1.08-3.531.606 1.017 1.496 1.948 2.622 2.75-.027-1.367-.311-2.651-.852-3.753 1.124.571 2.5.92 4.072 1.03-.81-1.206-1.804-2.172-2.913-2.825 1.378-.117 2.898-.562 4.485-1.321-1.475-.577-2.957-.843-4.35-.79 1.234-.827 2.423-1.995 3.499-3.448-1.7.336-3.213.908-4.471 1.684.709-1.29 1.194-2.803 1.425-4.444q.009-.008.003-.023"/></g></svg>