<svg xmlns="http://www.w3.org/2000/svg" width="48" height="48" viewBox="0 0 48 48"><title>Bank/Color/Tejarat</title><path fill="#2f4a98" fill-rule="evenodd" d="M41.714 48h-34.5v-5.426l.674-.792a24.1 24.1 0 0 1-4.587-5.635l8.922 5.11h.986l-10.785-6.74a24 24 0 0 1-.932-2.176l12.814 8.915h.678L.971 30.775a24 24 0 0 1-.622-2.678l15.637 13.16h.709L.075 25.913a24 24 0 0 1-.071-2.338l17.37 17.68h.492L.106 21.731q.127-1.341.396-2.635l18.015 22.16h.45L.986 17.17q.335-1.125.774-2.203l17.699 26.29h.419L2.642 13.05q.58-1.13 1.274-2.187l16.437 30.393h.383l-4.22-8.72-.134-.066a2.7 2.7 0 0 1-.608-.423 2.4 2.4 0 0 1-.424-.56c-.148-.26-.26-.54-.391-.81a5 5 0 0 0-.127-.236.4.4 0 0 0-.084-.107q-.089-.069-.179-.136a.7.7 0 0 1-.15-.164c-.031-.052-.05-.109-.07-.166h-.002a.3.3 0 0 1-.104-.088.25.25 0 0 1-.043-.13c-.001-.04.006-.04.007-.078l-.002-.03c.002-.045.006-.048.02-.09q.012-.092.03-.184a.6.6 0 0 1 .055-.166c.082-.15.241-.24.393-.313l-2.588-5.345-.083-.027c-.264-.091-.542-.209-.716-.437a1 1 0 0 1-.194-.43q-.028-.15-.031-.303c-.003-.098.003-.198-.01-.297 0-.007 0-.007-.004-.014l-.055-.067q-.128-.135-.252-.273a1.6 1.6 0 0 1-.179-.248.9.9 0 0 1-.118-.456.8.8 0 0 1 .038-.21l.115-.316L5.18 9.113a24 24 0 0 1 1.562-1.784l1.56 3.677a2 2 0 0 1 .031-.347 1.11 1.11 0 0 1 .704-.814.77.77 0 0 1 .422-.048c.1.022.193.061.285.107q.126.063.24.144L8.402 5.766a24 24 0 0 1 1.765-1.375l2.113 6.66q.101-.088.2-.18c.231-.22.453-.449.682-.67.159-.148.327-.305.523-.406L11.921 3.26q1.078-.63 2.224-1.147l2.076 9.666.049-.05q.083-.088.152-.187a1 1 0 0 0 .095-.18c.055-.144.06-.299.058-.45-.009-.182-.031-.361-.042-.542-.007-.162-.007-.332.06-.484.098-.227.343-.344.568-.412q.067-.02.137-.035.108-.024.217-.038l.017-.002-1.356-8.094q1.04-.359 2.12-.623l1.044 8.66.383-.015q.395-.013.788-.019c.183-.002.369.002.551-.004l.1-.008-.664-9.043a24 24 0 0 1 2.338-.226l.274 11.312a.6.6 0 0 1 .16.287c.062.184.09.378.105.571q.009.126.014.252.006.201.015.403l.022.252q.038.33.07.66.008.08.013.16l.005-.002q.064-.027.124-.062c.17-.1.32-.225.468-.353q.201-.177.405-.351l.147-.12q.115-.087.236-.166L25.22.031q1.156.057 2.282.223l-.896 12.216a7 7 0 0 1 1.098-.036c.192.012.386.035.573.085L29.704.683q1.08.264 2.12.623l-2.052 12.248q.238-.016.475-.028c.144-.005.206-.008.35-.011a6 6 0 0 1 .584.009q.109.006.219.023l2.455-11.433q1.147.516 2.224 1.147l-3.046 11.28q.037.015.073.034.171.081.332.182a2.2 2.2 0 0 1 .825.89l3.57-11.256q.915.646 1.765 1.375L33.92 21.14q.084.151.098.327c.005.076-.005.148-.014.223l-.019.172c-.01.125-.01.125-.017.25-.029.72.024 1.439.103 2.154L41.258 7.33q.825.853 1.562 1.784L35.286 24.68c.223.094.422.233.56.438q.076.113.12.24a.9.9 0 0 1 .038.444l8.08-14.94q.693 1.057 1.274 2.187l-9.947 16.278q.107.085.222.162c.176.114.358.218.534.33l.05.033 10.022-14.887q.438 1.077.773 2.203l-10.084 13.51q.028.082.047.165c.054.227.054.46.075.693.078.037.16.065.24.098l.01.005 10.198-12.544q.27 1.294.396 2.635L35.62 35.224a5 5 0 0 0 .004.478l.032-.004c.1-.008.099-.007.198-.013.102-.004.101-.005.202-.005h.047l11.892-12.104.002.106a24 24 0 0 1-.073 2.232l-11.05 10.2-.014.087c-.01.08-.01.26-.014.338l-.017.48a.6.6 0 0 1-.042.2l-.019.035 10.882-9.157-.03.17a24 24 0 0 1-.592 2.508L33.016 41.256h.678l12.814-8.915-.052.14a24 24 0 0 1-.88 2.036l-10.785 6.74h.986l8.922-5.11-.05.083a24 24 0 0 1-4.021 5.07l1.086 1.274zm-.6-4.826h-33.3V47.4h33.3zm-10.153 2.902q0 .194-.17.529-.163.323-.334.494a.8.8 0 0 1-.298-.078.9.9 0 0 1-.268-.156 2.7 2.7 0 0 0 .521-.312q.27-.208.32-.375a.73.73 0 0 0-.299-.353l.223-.431q.12.103.212.313.093.21.093.37m9.591.589-.26.245-.255-.255.265-.242zm-7.401-.023-.26.245-.255-.255.265-.241zm-20.719-2.538h.35v1.5q0 .293-.038.452a.66.66 0 0 1-.185.332.5.5 0 0 1-.353.125.46.46 0 0 1-.397-.197q-.14-.195-.14-.576L12 45.69a.8.8 0 0 0 .044.287q.057.129.173.128.118 0 .167-.091.048-.091.048-.38zm2.294 2.368h-.383l-.152-.538h-.695l-.144.538h-.373l.678-2.368h.372zm-3.253-1.968h-.939v.526h.874v.399h-.874v.644h.972v.4h-1.323v-2.37h1.29zm3.791 1.968h-.35v-2.368h.739q.278 0 .405.064a.46.46 0 0 1 .202.227q.076.162.076.373a.8.8 0 0 1-.115.44.5.5 0 0 1-.344.22q.114.09.188.198.075.108.2.384l.213.462h-.42l-.255-.515q-.135-.276-.185-.348a.3.3 0 0 0-.105-.099.4.4 0 0 0-.177-.026h-.072zm2.973 0h-.382l-.152-.538h-.696l-.144.538h-.372l.678-2.368h.371zm1.264-1.968h-.515v1.968h-.352v-1.968h-.516v-.4h1.383zm1.496 1.968h-.593v-2.368h.696q.207 0 .308.023a.4.4 0 0 1 .182.098q.08.074.133.198a.7.7 0 0 1 .053.277q0 .166-.065.305a.5.5 0 0 1-.179.209.47.47 0 0 1 .244.215q.087.15.086.357a.9.9 0 0 1-.055.314.6.6 0 0 1-.151.244.42.42 0 0 1-.236.112q-.088.013-.423.016m2.731 0h-.382l-.152-.538h-.696l-.143.538h-.373l.678-2.368h.371zm.516 0h-.326v-2.368h.342l.712 1.582v-1.582h.326v2.368h-.352l-.702-1.544zm1.782 0h-.351v-2.368h.351v1.052l.71-1.052h.472l-.655.922.691 1.446h-.455l-.478-1.111-.285.396zm-16.07-1.968h-.515v1.968H9.09v-1.968h-.517v-.4h1.383zm28.31 1.643h-.104a.55.55 0 0 1-.34-.126 1.5 1.5 0 0 1-.23-.25 1.5 1.5 0 0 0-.224-.246 1 1 0 0 1-.008.295q-.142.205-.466.28a2.6 2.6 0 0 1-.558.047q-.482 0-.65-.068-.245-.098-.245-.416 0-.285.199-.596.075-.007.096.053a.57.57 0 0 0-.093.295q0 .203.23.26.132.032.544.032.382 0 .556-.03a.64.64 0 0 0 .27-.104q-.187-.313-.652-.524.01-.328.052-.55.698-.394 1.34-.532l-.194.416q-.225.054-.583.201-.285.117-.413.186.253.095.58.348.123.095.302.28.161.165.235.218a.43.43 0 0 0 .257.09h.164q.35 0 .35-.106 0-.072-.182-.319l.248-.339a.84.84 0 0 1 .184.513q-.056.342-.155.465a.62.62 0 0 1-.51.227m1.636 0h-.105q-.308 0-.401-.255-.063-.172-.084-.77a5 5 0 0 0-.024-.409 1.4 1.4 0 0 0-.104-.395l.296-.31q.074.118.091.363.007.09.007.376v.476q0 .213.03.31.055.172.22.172h.139q.35 0 .35-.105 0-.072-.183-.319l.249-.339a.84.84 0 0 1 .183.513q-.056.342-.154.465a.62.62 0 0 1-.51.227m-10.133-.76q0 .076-.092.273-.091.196-.15.244-.07.056-.444.141-.443.102-.82.102-.507 0-.697-.198-.12-.126-.121-.373 0-.335.192-.632l.018-.002q.07 0 .098.055a1 1 0 0 0-.098.355q0 .357.767.356.697 0 1.092-.166a1.3 1.3 0 0 0-.177-.322l.245-.332q.075.091.134.266a.8.8 0 0 1 .053.233m2.277.76h-.22q-.309 0-.402-.255-.063-.172-.084-.77a5 5 0 0 0-.024-.409 1.4 1.4 0 0 0-.104-.395l.295-.31q.074.118.092.363.007.09.007.376v.476q0 .213.03.31.055.172.22.172h.261q.263 0 .43-.053a4 4 0 0 0 .431-.194q-.614-.24-.693-.241a.15.15 0 0 0-.115.045.8.8 0 0 0-.106.167.1.1 0 0 1-.047.012q-.043 0-.07-.044.111-.285.168-.393.109-.204.208-.204.065 0 .443.17.379.17.55.17.191 0 .594-.078l-.17.39q-.213.022-.349.052.098.201.374.201h.342q.35 0 .35-.105 0-.072-.182-.319l.248-.339a.84.84 0 0 1 .184.513q-.057.342-.155.465a.62.62 0 0 1-.51.227h-.133a.58.58 0 0 1-.434-.163q-.128-.13-.224-.42-.517.366-.615.42a1.2 1.2 0 0 1-.59.163m-11.007-.707h-.283v.633h.325q.19 0 .24-.014a.2.2 0 0 0 .128-.095.36.36 0 0 0 .05-.2.4.4 0 0 0-.038-.182.23.23 0 0 0-.11-.108q-.072-.034-.312-.034m2.042.095-.24-.879-.235.88zm-9.002 0-.24-.879-.235.88zm3.51 0-.239-.879-.235.88zm-2.05-1.03h-.274v.6h.26q.252 0 .315-.028a.2.2 0 0 0 .099-.1.4.4 0 0 0 .035-.178.35.35 0 0 0-.047-.194.2.2 0 0 0-.132-.092 2 2 0 0 0-.256-.008m5.419-.007h-.202v.548h.23q.206 0 .255-.008a.2.2 0 0 0 .142-.085.3.3 0 0 0 .052-.185.3.3 0 0 0-.045-.179.2.2 0 0 0-.132-.083 3 3 0 0 0-.3-.008m7.618.219-.24.225-.233-.237.243-.218zm.59-.031-.239.224-.234-.235.245-.22zm9.79-.221-.26.245-.255-.255.264-.242zm-4.02.013-.222.222-.226-.198-.207.208-.237-.208.223-.227.225.201.207-.211zm-13.427-3.222-1.25-3.387-.03-.005-.09-.017a.3.3 0 0 1-.116-.056.25.25 0 0 1-.071-.276.3.3 0 0 1 .074-.106l.048-.04-.412-1.115a.7.7 0 0 1-.128.065 1 1 0 0 1-.28.065 1 1 0 0 1-.183 0l2.067 4.872zm.352 0h.318l-.886-3.282a11 11 0 0 1-.484-.034zm.69 0h.319l-.546-3.26-.147-.001-.327-.003zm.636 0h.318l-.238-3.253h-.053l-.42-.004zm.985 0 .083-3.288c-.117.074-.247.052-.377.032q-.044-.003-.087-.002h-.034l.08 3.258zm.641 0 .544-4.51-.027.07q-.033.075-.077.145c-.103.153-.25.276-.396.386l-.08.056-.282 3.853zm.635 0 1.22-5.676-.086.183-.072.14c-.123.213-.279.44-.53.504l-.039.009-.811 4.84zm.373 0h.318l1.392-4.387a.3.3 0 0 1-.06-.057.4.4 0 0 1-.072-.15.9.9 0 0 1-.014-.369l.016-.096.04-.195q.029-.202.05-.406a5 5 0 0 0 .025-.618zm.67 0h.37l1.617-3.81a.4.4 0 0 1-.315-.275.6.6 0 0 1-.023-.17v-.019l-.068-.007zm.773 0h.383l1.907-3.525a2.4 2.4 0 0 1-.386-.04 1 1 0 0 1-.16-.039zm1.276 0 2.392-3.553c-.215.004-.43.004-.645.01l-2.166 3.543zm.943 0 2.941-3.618-.017.001q-.351.021-.702.038l-2.671 3.58zm1.143 0 3.678-3.743-.417.026-.397.028-3.356 3.69zm1.388 0 4.65-3.913a.64.64 0 0 1-.288.057h-.105l-.146-.01q-.091-.009-.184-.013-.151.005-.303.018l-.166.015-4.167 3.846zm-12.317-5.635.018-.002c.041 0 .041 0 .082.004l.035.006h.003l.033.008h.005l.032.009.012.003.011.003.015.005.012.004.01.003.014.005.015.005.02.008.017.007.018.007.02.009.014.006.022.011q.124.061.238.14c.136.09.271.192.375.32.216.27.273.627.178.957a.9.9 0 0 1-.137.294l-.001.001q.198.02.398.032l.018.001.116.007.032.001.12.005.048.002.095.003.05.002.096.002.108.002.4.004.495.004q.24 0 .482.004l.143-.001.147-.002.11-.002h.18c.074.001.074-.002.147.006l.018.003q.015-.047.035-.095a.5.5 0 0 1 .115-.153l.165-.12.143-.096.07-.05.071-.049q.063-.046.121-.096l.04-.037.02-.02.02-.019.02-.02.008-.01.01-.01.008-.01.01-.012.012-.016.008-.011a.6.6 0 0 0 .058-.128l.058-.161c.02-.048.02-.047.042-.094a.8.8 0 0 1 .118-.17.64.64 0 0 1 .34-.18l.022-.003.025-.004c.111-.015.224-.001.334-.016a.1.1 0 0 0 .045-.014l.017-.014.017-.014.005-.005.016-.016.014-.016.015-.017.014-.018.004-.006.013-.018.012-.018.02-.03.013-.023.014-.024.01-.016.04-.075c.075-.15.141-.303.215-.453l.134-.243q.076-.148.155-.294.044-.077.095-.152.056-.079.122-.15.058-.061.123-.114l.021-.016.015-.011.016-.012.02-.015.01-.007.027-.018.002-.001.036-.023c.162-.1.362-.199.554-.123a.4.4 0 0 1 .118.075h.001a.5.5 0 0 1 .094.108c.04.06.067.129.087.198.036.131.042.268.053.402a4 4 0 0 1-.001.768v.004l-.001.004-.017.176-.001.007-.003.024-.005.046-.003.024-.002.015-.002.02-.003.027-.006.043-.002.02-.002.01-.001.013-.012.085c-.014.11-.043.216-.06.325a1 1 0 0 0-.008.09v.006c.074.007.15.008.224.013l.038.004.027.003.033.004.017.002.016.003.023.004q.053.01.104.028a.42.42 0 0 1 .26.26.6.6 0 0 1 .025.175h.113a.5.5 0 0 1 .347.158c.022.021.043.046.068.063l.016.005.015.005.032.007.067.012c.18.028.363.03.545.024l.042-.001.062-.003.253-.011.065-.003.063-.002h.002l.576-.006.398-.012.147-.006.044-.002.187-.008h.018l.172-.009.04-.002.182-.01.038-.002.723-.045.542-.036.47-.032.108-.007.472-.032q.204-.015.408-.035l.41-.04.047-.005.059-.005.04-.004.045-.004.015-.001.13-.011q.15-.012.3-.02h.054l.018.001.036.002.036.002c.095.006.19.016.285.019h.004c.003-.185.014-.37.021-.554l.008-.176-.142.01-.047.001h-.103l-.051-.001h-.051l-.05.002H35.9l-.031.002-.086.006-.012.001-.048.004-.055.005-.053.004-.477.05-.196.014a5 5 0 0 1-.251.005h-.043l-.037-.003a.9.9 0 0 1-.272-.075c-.1-.044-.194-.103-.295-.147l-.083-.026-.025-.005-.008-.001-.017-.003-.01-.002-.015-.002-.01-.001-.015-.002-.02-.002L33.81 36h-.016l-.035-.003-.2-.018c-.057-.008-.056-.008-.112-.018a1.1 1.1 0 0 1-.354-.143l-.004-.003-.048-.028h-.001l-.032-.02-.013-.009-.005-.003-.006-.004-.012-.007-.014-.01-.019-.011-.03-.02-.008-.006-.01-.006-.002-.001-.076-.05-.042-.028-.025-.016-.013-.008-.046-.03a2 2 0 0 0-.142-.072l-.022-.009-.005-.002-.012-.004-.023-.007-.008-.003a2 2 0 0 0-.208-.042 6 6 0 0 0-.54-.05h-.008l-.056-.003h-.059l-.015-.001h-.127l-.047.001-.019.001-.039.002h-.02l-.04.003-.018.001-.056.005-.066.006-.019.002-.049.006-.018.002-.063.009-.097.014-.263.039c-.078.009-.078.008-.157.016-.152.01-.304.014-.456-.006a.9.9 0 0 1-.335-.104l-.017-.01-.005-.003-.002-.002-.004-.002-.006-.004-.005-.003-.01-.006-.015-.011-.004-.003h-.001l-.029-.022-.002-.001-.005-.004-.012-.009-.01-.009-.005-.003-.003-.002-.004-.004-.007-.006-.017-.013-.014-.012-.005-.005-.006-.004-.005-.005-.013-.011-.019-.017-.029-.025q-.049-.044-.099-.086c-.133-.103-.276-.192-.411-.293l-.043-.034-.012-.01-.011-.01-.003-.001-.03-.025-.005-.005-.02-.018-.004-.003-.003-.003-.007-.006-.013-.012-.006-.006-.005-.004-.006-.006-.009-.009-.009-.009-.006-.006-.004-.004-.006-.006-.013-.014-.006-.007-.003-.002-.051-.059-.002-.002-.006-.007-.011-.014-.005-.007-.004-.005-.005-.006-.007-.01-.008-.01-.005-.008-.003-.004-.004-.005-.013-.018-.005-.007v-.001l-.022-.032v-.002l-.005-.006-.012-.02-.003-.005-.003-.004-.004-.008-.007-.012-.006-.01-.004-.006-.003-.006-.004-.007-.008-.015-.004-.009-.002-.003-.002-.004-.014-.027-.001-.003-.002-.003-.013-.028-.001-.003-.002-.004-.004-.01-.007-.014-.003-.008-.003-.006-.003-.008-.004-.01-.004-.012-.004-.009-.002-.006-.002-.005-.007-.017-.004-.011v-.003l-.036-.117c-.049-.186-.064-.378-.095-.567a2 2 0 0 0-.027-.128.5.5 0 0 0-.079-.167.3.3 0 0 0-.135-.09l-.024-.008h-.002l-.023-.007-.004-.001-.023-.005-.03-.006a1 1 0 0 0-.125-.013h-.025q-.026 0-.05.002c-.171.013-.33.082-.48.158l-.072.038c-.155.085-.305.177-.46.262q-.15.078-.307.139h-.002l-.002.001-.014.005-.025.01-.007.003-.008.003-.012.004-.016.006-.014.005-.01.004-.01.003-.009.003-.022.008-.014.005-.004.001-.047.016h-.003l-.012.004-.028.01-.007.001-.007.002-.013.004-.017.005-.013.004-.011.004-.01.002-.01.003-.02.006-.015.004-.006.002h-.003l-.038.01-.008.003-.017.004-.026.007-.004.001-.008.002-.017.004-.015.004-.006.001-.082.02H25.8l-.043.01-.044.01-.011.002q-.334.067-.668.108l-.063.008-.324.038h-.003l-.016.002-.027.003h-.008l-.017.002-.024.002h-.005l-.006.001-.017.001-.02.002h-.015l-.016.001-.019.001h-.008l-.01.001h-.014l-.017.001h-.049c-.146 0-.29-.02-.427-.08a1.1 1.1 0 0 1-.277-.174l-.004-.004-.012-.01-.013-.01-.003-.004-.003-.002-.057-.053-.003-.003-.004-.004-.01-.01-.013-.012-.004-.004-.002-.002-.003-.003-.007-.007-.018-.019-.014-.014-.006-.006-.004-.005-.037-.04-.002-.002-.006-.006-.019-.021-.008-.01-.01-.01-.036-.04-.003-.005-.002-.002-.065-.074-.035-.04-.021-.023-.01-.011-.038-.042a2 2 0 0 0-.1-.096l-.021-.017-.008-.006-.014-.01-.01-.007-.012-.01-.011-.007-.012-.008-.012-.007-.011-.007-.013-.008-.01-.006-.015-.008-.01-.005-.016-.009c-.197-.102-.425-.144-.64-.185l-.1-.02-.045-.008-.015-.003-.13-.025a5 5 0 0 1-.293-.073l-.004-.001-.01-.004-.021-.006-.01-.003-.006-.002-.01-.004-.014-.004-.014-.005-.01-.004-.006-.002-.009-.003-.02-.008-.01-.004-.005-.001-.003-.002-.034-.013-.005-.002-.007-.003-.031-.012-.003-.002-.005-.002-.014-.006-.016-.007a3 3 0 0 1-.407-.221 5 5 0 0 1-.44-.333l-.004-.003-.007-.006-.032-.027-.013-.01-.003-.004-.007-.005-.032-.028-.013-.01-.002-.003-.006-.005-.077-.066-.025-.022-.005-.004-.105-.092-.11-.094-.09-.075-.032-.027-.057-.047-.109-.09-.081-.066-.048-.04-.108-.088-.017-.014-.012-.01-.03-.024-.029-.025-.013-.011-.02-.017-.028-.023-.026-.022-.038-.032a9 9 0 0 1-.482-.443c-.094-.093-.188-.186-.264-.294a2 2 0 0 1-.276-.616 5 5 0 0 1-.153-.878c-.01-.103-.01-.206-.017-.308a1 1 0 0 0-.018-.128c-.01-.04-.021-.085-.052-.114a.1.1 0 0 0-.036-.019c-.043-.008-.087 0-.129.007l-.192.035-.07.006h-.005l-.01.001h-.01a.7.7 0 0 1-.17-.011c-.062-.013-.125-.037-.184-.057-.156-.054-.31-.13-.412-.264-.064-.084-.093-.188-.137-.282l-.006-.012a.3.3 0 0 0-.082-.024l-.012-.001h-.024l-.015.002h-.002l-.013.003h-.005l-.01.004-.004.001-.014.006-.003.001-.01.005-.005.002-.01.006-.003.002-.012.007-.02.013-.002.002-.018.014-.054.047c-.075.075-.142.156-.215.233-.102.104-.21.203-.31.31l-.067.08a3 3 0 0 0-.098.147l-.015.026-.018.028-.029.046-.014.024-.01.014-.002.005-.005.007-.017.027-.01.017-.003.003-.002.003-.002.003-.012.018-.019.027a2 2 0 0 1-.085.111 1 1 0 0 1-.127.125c-.076.058-.163.1-.25.14l-.126.057-.025.01-.062.03-.005.002-.071.035a1 1 0 0 0-.086.055l-.014.013-.02.105-.005.036q.027.047.048.095c.027.063.046.13.073.193q.027.032.062.057.083.06.162.122c.034.03.034.03.066.061.034.038.034.037.065.077q.05.075.093.152c.147.266.264.545.396.818q.057.114.12.226c.086.141.183.275.3.39l.024.024.006.006.024.022c.182.162.4.282.62.384l.086.038.027.012.05.022.125.054.148.063.004.002.136.059.005.002q.086.037.172.077.098.047.192.096c.098.053.197.106.286.174.188.143.346.326.49.512q.038.048.073.098l.015.02.009.012.01.015.013.019.01.014.013.019.03.044.018.03.015.023.027.044.015.027.018.032.011.02.013.026.011.022.015.03a2 2 0 0 1 .146.46l.008.04.002.017.005.03.004.023.003.022.005.032.002.013.005.044.006.05.004.044c.015.165.02.332.025.498.004.151.014.301.02.451.003.112-.002.223.003.335q.003.053.013.104a.5.5 0 0 0 .255-.018l.026-.01.007-.002.023-.05c.018-.028.035-.055.06-.078l.017-.013.015-.011.014-.01.016-.01.016-.008.016-.008.017-.008.017-.006.017-.006.017-.005.018-.004.023-.005.017-.003.017-.002zm.675.94.066.21a.5.5 0 0 0-.066-.21m-4.959-23.835a1 1 0 0 0-.22-.06l-.05-.007-.016-.002-.034-.004-.02-.002-.03-.002-.02-.002-.032-.002h-.019l-.035-.002h-.015l-.05-.001h-.07l-.03.001-.023.001-.027.001-.024.002-.025.001-.026.002-.02.002-.12.01v.001l-.046.005q-.064.007-.127.017l-.042.007.045-.376.008-.079.007-.082.005-.05.005-.056.006-.072.003-.041.01-.116a12 12 0 0 0 .023-.568 6 6 0 0 0-.015-.434 1.4 1.4 0 0 0-.094-.459c-.033-.074-.082-.146-.165-.167a.3.3 0 0 0-.074-.002l-.018.004-.005.001-.012.003-.006.002-.01.003-.007.002-.01.004-.007.002-.01.004-.006.002-.011.005-.006.002-.014.007h-.001l-.027.014-.003.002-.023.013-.02.012-.01.006-.027.018-.002.002-.03.021c-.101.074-.193.16-.285.245-.2.192-.393.39-.591.584q-.139.133-.284.26a4 4 0 0 1-.452.348 3 3 0 0 1-.157.094c-.168.093-.35.166-.54.195q-.056.008-.11.011l-.037.001a.64.64 0 0 1-.37-.115 1.6 1.6 0 0 1-.378-.396l-.046-.065-.005-.007-.003-.004-.01-.013c-.1-.144-.195-.292-.296-.436a6 6 0 0 0-.172-.224 1.8 1.8 0 0 0-.493-.424 1 1 0 0 0-.13-.062c-.022-.009-.046-.02-.07-.023a.3.3 0 0 0-.15.026.64.64 0 0 0-.264.185.6.6 0 0 0-.116.222 1 1 0 0 0-.022.15 3 3 0 0 0-.01.277c.005.302.04.604.09.902q.059.341.145.675l.005.019.023.088.004.012.025.087.003.012.022.074.007.022.027.084q.083.261.197.51l.026.055.01.018.018.037.022.042.004.007.026.045.015.026.006.01.04.06.018.029.018.023.017.023.017.022.032.038.029.306.009.093.005.05.014.143c.044.378.097.774.273 1.117q.067.126.154.24.115.156.237.306l.103.125.02.026.054.064.109.131.053.064.022.026.055.066.036.045.102.123q.144.181.283.367.093.127.18.257c.059.087.117.172.15.272.039.12.052.25.056.376.005.149-.005.298-.02.446l-.002.01v.003l-.008.066a8 8 0 0 1-.328 1.426q-.066.21-.14.415c-.028.078-.065.154-.084.235l-.005.042c0 .142.086.257.174.361.097.109.2.212.294.323a1 1 0 0 1 .09.132.7.7 0 0 1 .054.255c.005.109.003.218.008.327l.003.035v.007l.004.034a.7.7 0 0 0 .04.169.5.5 0 0 0 .131.184l.068.052.026.016.026.016.027.015.025.012.006.003.03.014.01.005.035.015.038.015.01.003.017.007.037.013.015.005.048.017c.058.019.084.026.143.044.219.063.439.119.657.181l.075.023.066.02.017.006.02.007.033.01.025.008.019.007.025.008.017.006.017.006.016.006.02.007.02.008.021.007.014.005.014.005.024.01.025.01.021.008a3 3 0 0 1 .515.263q.104.068.2.146a1 1 0 0 1 .144.137c.137.177.163.416.168.632v.154c-.002.081-.006.148-.009.233-.004.113-.005.113-.007.226q-.001.105.004.21c.013.146.04.312.16.412.043.035.095.053.143.08l.047.039a.8.8 0 0 1 .182.322c.041.12.07.247.09.372.048.293.07.588.077.885l.001.086v.293l-.001.043v.027l-.001.012v.015l-.002.057v.033l-.004.105-.005.094.127.088.059-.094.06-.093.023-.031.023-.03.02-.025.028-.035c.12-.135.255-.253.378-.384q.077-.088.156-.173.074-.077.156-.141a1 1 0 0 1 .114-.074l.017-.009.017-.008.018-.009.017-.007.018-.007.017-.007.025-.008.012-.004.016-.005.025-.006.014-.004.015-.003.025-.004.017-.002.014-.002.058-.003h.033a.7.7 0 0 1 .247.052.5.5 0 0 1 .173.096.65.65 0 0 1 .15.238c.018.044.033.093.058.135a.2.2 0 0 0 .04.031q.066.036.137.06l.052.019.02.007.025.007.03.007a.3.3 0 0 0 .055 0c.089-.01.176-.03.264-.043a.7.7 0 0 1 .303.015.6.6 0 0 1 .225.125c.148.132.202.32.228.51.012.122.013.246.023.369.028.28.066.56.149.83.052.17.121.335.233.474q.042.048.088.094l.078.08.07.068.07.066.027.026.043.039.03.027.041.037.031.027.042.037.03.026.043.038.028.024.046.04.026.02.043.037.06.05.101.085.025.02.434.36.477.409c.123.1.25.198.384.283l.05.033.053.03.052.03.026.014.027.014.027.013.027.013.027.013.028.012.028.012.028.01.028.012.028.01.047.016.048.015.019.005.028.008.021.006.027.007.022.006.026.006.024.005.023.006.027.006.05.01c.15.032.302.056.451.086q.1.023.2.049l.13.04.022.008.038.013.037.014.037.015.027.011.03.013.017.008.013.006.022.011.008.004.028.015.032.017.026.015.011.007.018.01.016.011.011.008.022.015.006.004.027.02.02.015.019.015.033.027.01.009.011.01.018.016.01.009.01.01.015.014.013.012.009.01.012.012.016.016.018.018.018.02.015.016.032.035.024.026q.115.134.233.263.047.048.098.091a.7.7 0 0 0 .187.114c.066.023.138.03.208.03h.048l.04-.002.04-.003.04-.003.04-.004.04-.004.08-.01.22-.026.088-.012.075-.01a7 7 0 0 0 .706-.129l.047-.012.037-.01.044-.011.044-.012.044-.013.043-.013.045-.015.045-.015.02-.007.025-.009.02-.007.024-.01.02-.007.025-.01.019-.008.025-.01.018-.008.026-.011.018-.008.043-.02.042-.02c.195-.102.38-.22.574-.322q.155-.08.318-.137l.022-.008.036-.01.035-.011.036-.01.036-.008.037-.008.036-.007.03-.004.03-.004.03-.004.02-.001.011-.001.028-.002.07-.002h.027l.032.001.019.001.012.001.028.002.07.009.028.004.03.006.032.006.025.007.071.02a.8.8 0 0 1 .466.37q.063.112.096.234l.005.018.006.024.018.081.008.04.003.016.004.024.006.035.007.05.01.08.005.033.011.078.006.041.004.028.003.015.008.049q.014.07.033.139l.009.024.009.025.01.024.01.024.01.024.011.023.012.023.012.023.014.022.013.022.014.022.015.02.016.022.016.02.017.02.018.02q.073.078.16.142c.127.094.26.18.387.274l.036.03.035.03.018.014.079.07.01.008.035.03.035.029.035.028a.4.4 0 0 0 .082.047q.053.014.107.02l.026.003.027.003.026.002.026.001.026.001h.089c.262-.005.521-.06.781-.092.081-.009.08-.009.162-.015l.085-.003h.015l.082-.003h.2l.084.003h.011q.09.003.177.009h.007a6 6 0 0 1 .244.023c.181.02.366.042.536.108l.033.014.009.003.04.019.017.008.011.005.013.006.025.013.015.008.023.013.016.009.02.012.019.01.018.011.02.013.017.01.036.023.038.025.022.014.076.05.076.05.037.023.037.023.036.02.038.02q.033.018.068.033.077.028.16.038c.111.013.223.018.335.032q.095.014.187.04l.022.007.012.004.022.008h.003l.031.013c.106.043.203.104.307.152q.034.015.069.026l.04.008q.046.003.088.002l.089-.002q.15-.006.3-.02a5.3 5.3 0 0 1 .104-1.441l.01-.05.012-.053.006-.023q.029-.12.062-.238a2 2 0 0 1 .135-.364c.127-.25.314-.465.502-.671l.184-.202q.038-.046.08-.087a.3.3 0 0 1 .044-.03c.091-.04.192-.025.287-.006l.007.001c.108.025.215.06.324.084a.6.6 0 0 0 .118.015h.014a.2.2 0 0 0 .075-.022.3.3 0 0 0 .091-.09.44.44 0 0 0 .077-.282.23.23 0 0 0-.043-.123.2.2 0 0 0-.06-.045q-.09-.044-.185-.08l-.128-.053q-.06-.029-.118-.064a.4.4 0 0 1-.103-.095.5.5 0 0 1-.066-.21c-.015-.124-.019-.25-.028-.375l-.002-.032-.004-.039-.005-.054a1.2 1.2 0 0 0-.097-.364l-.01-.022-.004-.007-.008-.014-.005-.008-.007-.013-.005-.008-.007-.012-.005-.008-.009-.013-.004-.007-.011-.016-.003-.003-.014-.019-.004-.006-.01-.012-.006-.008-.01-.01-.006-.008-.009-.01-.006-.008-.006-.006-.027-.029-.001-.001-.028-.028-.003-.003-.03-.026-.004-.004-.017-.015-.021-.018-.017-.014-.02-.016-.017-.014-.02-.015-.019-.014-.018-.013-.093-.064-.008-.006-.084-.054c-.163-.1-.327-.197-.487-.301a4 4 0 0 1-.247-.18l-.004-.003-.007-.006-.017-.013-.01-.01-.007-.005-.006-.005-.01-.008-.017-.014-.007-.007-.003-.003-.037-.032v-.002l-.03-.027-.005-.005-.003-.003-.008-.007-.015-.015-.009-.01-.006-.005-.006-.006-.009-.01-.014-.015-.008-.008-.003-.003-.033-.037a2 2 0 0 1-.291-.45l-.002-.002-.017-.041-.002-.004v-.002l-.016-.04-.001-.003-.001-.002-.003-.009-.006-.017-.007-.018-.002-.006-.002-.008-.006-.017-.004-.015-.002-.007-.004-.01-.005-.019-.003-.01-.002-.007-.004-.015-.005-.019v-.005l-.002-.005-.005-.02-.005-.022-.006-.03c-.082-.405-.029-.837.038-1.243.017-.106.025-.149.047-.27q.01-.048.023-.092a1.4 1.4 0 0 1 .287-.464c.132-.15.278-.286.414-.431.042-.046.041-.046.081-.092.117-.146.232-.323.179-.52a.5.5 0 0 0-.16-.256.9.9 0 0 0-.246-.153l-.03-.013-.028-.01-.007-.004-.026-.009-.01-.004-.024-.008-.012-.004-.023-.007-.014-.004-.022-.006-.015-.005-.022-.005-.017-.005-.019-.004-.014-.003-.022-.005-.017-.004-.021-.004-.017-.003-.021-.004-.017-.003-.021-.004-.017-.003-.022-.003-.016-.003-.023-.003-.015-.002-.01-.001-.065-.008-.05-.005-.016-.002-.033-.003-.019-.001-.03-.002-.02-.002-.03-.002h-.02l-.03-.002-.02-.001-.029-.001h-.021l-.029-.002h-.197l-.018.001-.033.001H33.9l-.035.002h-.012l-.038.002h-.008l-.043.003-.032.002-.052.004-.019.002q-.09-.61-.143-1.225a15 15 0 0 1-.057-1.455l.002-.066.003-.086v-.026l.002-.036.001-.025.002-.02.001-.026.002-.04.002-.03.003-.037.002-.026a7 7 0 0 1 .027-.272q.008-.052.011-.104 0-.03-.006-.059c-.043-.17-.208-.278-.347-.367l-.088-.056q-.088-.055-.174-.112l-.08-.06-.026-.021-.003-.002-.005-.005-.012-.01-.006-.006-.005-.005-.009-.008-.002-.002-.02-.02-.002-.001-.001-.002-.025-.027-.004-.005v-.001l-.003-.003-.004-.005-.002-.003-.002-.002-.003-.005-.003-.004h-.001l-.002-.003a.4.4 0 0 1-.048-.093.4.4 0 0 1 .01-.246c.053-.195.168-.371.284-.534q.078-.106.16-.21l.173-.214q.148-.18.291-.363.083-.108.161-.219c.121-.18.239-.369.294-.58q.085-.336.096-.684l.003-.076v-.183l-.002-.047-.001-.03-.002-.048-.002-.029-.003-.053-.002-.023-.006-.076-.002-.02-.006-.055-.003-.031-.006-.045-.004-.034-.006-.04-.005-.037-.007-.039-.006-.037-.006-.037-.007-.038-.007-.034a4 4 0 0 0-.062-.273 2 2 0 0 0-.26-.627 1.8 1.8 0 0 0-.602-.537 3 3 0 0 0-.21-.111q-.06-.03-.12-.052a1 1 0 0 0-.187-.042c-.16-.02-.322-.029-.483-.047-.11-.015-.25-.03-.328-.12a.5.5 0 0 1-.086-.167c-.03-.098-.054-.198-.085-.296a.46.46 0 0 0-.107-.19l-.011-.009-.004-.003-.008-.006-.005-.003-.007-.005-.005-.003-.008-.004-.005-.003-.008-.003-.005-.003-.008-.003-.005-.002-.01-.003-.004-.002-.014-.004-.003-.001-.01-.003-.022-.005-.017-.003-.012-.002-.018-.002-.012-.002-.027-.004a3 3 0 0 0-.336-.02c-.358-.007-.717.01-1.074.035l-.17.012-.188.014-.068.006a3 3 0 0 0-.2-.283 3 3 0 0 0-.597-.556 2 2 0 0 0-.306-.178l-.026-.011-.008-.003-.018-.007-.008-.003-.02-.007-.006-.002-.025-.009-.006-.002a2 2 0 0 0-.267-.059 3.6 3.6 0 0 0-.558-.035 8 8 0 0 0-.836.052l-.036.004-.113.012-.15.018-.42.052q-.086.007-.172.02l-.109.024c-.245.074-.455.218-.653.378-.204.165-.396.345-.597.514-.067.055-.067.054-.135.108a2 2 0 0 1-.568.317l-.038.011-.036.01v.009c-.006.143-.02.29-.052.434l-.021.183q-.018.135-.04.269-.016.09-.038.178a2 2 0 0 1-.046.157.8.8 0 0 1-.105.206l-.008.01-.007.008-.001.002-.002.002-.007.01-.005.005-.002.002-.004.004-.008.008-.003.004-.003.002-.006.006-.007.007-.005.004-.001.001-.018.015v.001h-.002l-.018.014-.001.001-.005.003-.004.003-.002.001-.005.004-.004.002h-.001l-.008.005-.003.002h-.001l-.011.006a.4.4 0 0 1-.163.044h-.012a.2.2 0 0 1-.119-.04.5.5 0 0 1-.101-.12l-.037-.063q-.15.06-.31.096c-.25.059-.507.076-.764.083q-.27.002-.543-.002c-.155-.001-.31.003-.466-.002a5 5 0 0 1-.64-.072 3 3 0 0 1-.163.009h-.041a1.1 1.1 0 0 1-.547-.123 2 2 0 0 0-.161-.012c-.126-.004-.251.005-.376.006a2 2 0 0 1-.164-.01.7.7 0 0 1-.197-.05.7.7 0 0 1-.15-.105 2 2 0 0 1-.18-.184c-.126-.145-.243-.296-.37-.44a3 3 0 0 0-.116-.119c-.123-.113-.258-.219-.43-.233h-.021l-.113-.034-.086.007h-.011l-.05.004-.098.003h-.034q-.066 0-.131-.008a.7.7 0 0 1-.206-.055.5.5 0 0 1-.215-.202l-.333-.1c-.058-.136-.126-.268-.184-.405a1.7 1.7 0 0 1-.128-.51c-.031-.212-.05-.44.004-.652m2.254 20.35.874 2.058-.005-.13-.012-.32a5 5 0 0 0-.023-.257 1.8 1.8 0 0 0-.115-.457 2.2 2.2 0 0 0-.323-.501 1.8 1.8 0 0 0-.39-.389zm-.581-14.962c1.224.53 2.207 1.473 2.463 3.244.23.013.43.092.617.237a4.3 4.3 0 0 0-.278.743h-.775a5 5 0 0 0 0 2.229h.775c.095.351.235.689.416 1.005l-.547.547c.4.637.939 1.176 1.576 1.577l.547-.548q.476.272 1.006.416v.775a5 5 0 0 0 2.228 0v-.775q.53-.143 1.006-.416l1.233 1.233A5.93 5.93 0 0 1 24 29.413a5.964 5.964 0 0 1-5.961-5.96c0-.456.04-.93.062-1.43.02-.437-.125-1.174-.523-1.572-.698-.699-1.406-1.162-1.406-1.162zM30.914 28.79c-1.224-.53-2.207-1.473-2.463-3.244a1.07 1.07 0 0 1-.617-.237q.174-.358.278-.742h.775a5 5 0 0 0 0-2.23h-.775a4.3 4.3 0 0 0-.416-1.005l.547-.547a5 5 0 0 0-1.576-1.576l-.547.547a4.3 4.3 0 0 0-1.006-.416v-.775a5 5 0 0 0-2.228 0v.775q-.53.143-1.006.416l-1.233-1.233A5.93 5.93 0 0 1 24 17.491a5.964 5.964 0 0 1 5.961 5.961c0 .456-.04.93-.062 1.43-.02.436.125 1.173.523 1.571a10 10 0 0 0 1.406 1.162zm4.73-2.32c-.13.144-.273.277-.401.414q-.056.06-.105.123a.7.7 0 0 0-.12.203c-.019.067-.028.145-.039.21l-.027.165q-.017.11-.031.222zm-10.833-7.1a4.2 4.2 0 0 0-1.624 0l.02.634c-.385.089-.752.24-1.086.45l-.435-.462a4.2 4.2 0 0 0-1.149 1.148l.463.435a3.5 3.5 0 0 0-.45 1.086l-.634-.02a4.2 4.2 0 0 0 0 1.624l.634-.02c.089.385.24.752.45 1.087l-.463.434c.304.455.695.845 1.15 1.149l.434-.463c.334.21.701.362 1.086.45l-.02.634a4.2 4.2 0 0 0 1.624 0l-.02-.634a3.5 3.5 0 0 0 1.086-.45l.435.463a4.2 4.2 0 0 0 1.149-1.149l-.463-.434a3.5 3.5 0 0 0 .45-1.087l.634.02a4.2 4.2 0 0 0 0-1.624l-.634.02a3.5 3.5 0 0 0-.45-1.086l.463-.435a4.2 4.2 0 0 0-1.15-1.148l-.434.462a3.5 3.5 0 0 0-1.086-.45zm-.992 1.814v-.376h.36v.375c.416-.078.603-.398.598-.372-.068.322-.227.67-.598.757v.772c.742-.084 1.076-.647 1.067-.603-.116.538-.394 1.123-1.067 1.215v.702c.913-.08 1.322-.728 1.31-.678-.14.61-.48 1.275-1.31 1.363v.849c1.166-.085 1.689-.937 1.675-.872-.187.836-.658 1.753-1.855 1.757-1.2.004-1.67-.919-1.848-1.76-.012-.062.502.796 1.668.875v-.847c-.836-.08-1.177-.752-1.31-1.368-.01-.047.394.607 1.31.682v-.701c-.678-.086-.956-.677-1.067-1.22-.007-.04.322.528 1.067.608v-.772c-.374-.084-.533-.436-.598-.76-.004-.025.18.299.598.374m-9.952 2.94.134.316a1 1 0 0 0-.015-.127.3.3 0 0 0-.04-.12.4.4 0 0 0-.08-.07m4.638-8.813.046.005c.134.007.268-.003.401-.004.066.001.066.001.131.005.36.031.712.1 1.068.153q.143.02.284.033.114.01.229.01c.296-.001.592.006.888.002.201-.006.404-.017.602-.057a1.6 1.6 0 0 0 .358-.113.9.9 0 0 0 .329-.233.75.75 0 0 0 .128-.278c.041-.156.053-.32.055-.481a4 4 0 0 0-.006-.264 8 8 0 0 0-.02-.277c-.027-.28-.063-.558-.087-.838-.016-.22-.018-.44-.03-.66a5 5 0 0 0-.02-.22 1.7 1.7 0 0 0-.066-.305c-.01-.032-.02-.074-.043-.1a.3.3 0 0 0-.055-.042l-.069-.039c-.116-.058-.236-.11-.352-.17a1.6 1.6 0 0 1-.404-.295 1.8 1.8 0 0 1-.259-.38 2.8 2.8 0 0 1-.326-.941l-.004-.034-.052.005-.034.003-.009.001-.023.002-.01.001-.019.002h-.01l-.039.003c-.104.004-.207.002-.31.003-.228.001-.292.003-.519.007l-.085.002h-.023l-.02.001-.042.001-.028.001h-.017l-.016.001h-.024l-.047.002h-.02l-.008.001-.098.003h-.01l-.073.003-.016.001h-.01l-.019.001-.04.002h-.034l-.014.001H19.6l-.024.002-.063.002h-.01l-.105.005-.502.021c-.305.008-.61-.003-.914.004a4 4 0 0 0-.446.035h-.004l-.01.002-.008.002h-.003l-.008.002h-.008l-.002.001h-.003l-.007.002-.008.001h-.003l-.003.002h-.006l-.007.002h-.004l-.004.002h-.006l-.006.002-.005.001h-.004l-.005.002-.005.001-.006.001-.005.002h-.004l-.004.001-.007.002-.006.001-.003.001h-.004l-.008.003-.006.002h-.005l-.01.003-.006.002h-.003l-.012.004-.005.002h-.001l-.02.006a.8.8 0 0 0-.19.08c-.02.011-.047.025-.06.045q-.014.028-.017.061c-.012.084-.007.17-.002.254l.002.02.016.189a9 9 0 0 1 .02.284c.007.237-.012.475-.106.696q-.068.156-.168.292a2 2 0 0 1-.253.285l-.013.012-.005.004-.008.008-.023.02-.003.003-.012.01-.015.014-.012.011-.014.012-.014.012-.012.01-.017.015-.007.006-.05.042q-.119.099-.233.204a.8.8 0 0 0-.193.25c-.05.12-.038.27-.026.395q.012.116.034.23c.011.063.022.127.042.188.026.08.062.154.098.23l.02.042.995.3-.031-.001c.048.004.047.003.095.01.046.009.046.008.09.02q.105.029.203.077c.214.108.384.274.541.454l.025.029.024.028.024.029.023.027.02.024.079.096.041.05.038.045.022.027.025.029.023.026.021.024q.05.054.103.103c.01.009.025.026.04.03zM22.838.028A24 24 0 0 1 25.22.03z"/></svg>